%
M48
M72
T01C0.0315
T02C0.0320
T03C0.0394
T04C0.0400
T05C0.0520
T06C0.1260
%
T01
X14267Y23070
X14267Y24070
X15267Y23070
X15267Y24070
X16267Y23070
X16267Y24070
X17267Y23070
X17267Y24070
X18267Y23070
X18267Y24070
X19267Y23070
X19267Y24070
X20267Y23070
X20267Y24070
X21267Y23070
X21267Y24070
X22267Y23070
X22267Y24070
X23267Y23070
X23267Y24070
X24267Y23070
X24267Y24070
X25267Y23070
X25267Y24070
X26267Y23070
X26267Y24070
X27267Y23070
X27267Y24070
X28267Y23070
X28267Y24070
X29267Y23070
X29267Y24070
X30267Y23070
X30267Y24070
X31267Y23070
X31267Y24070
X32267Y23070
X32267Y24070
X33267Y23070
X33267Y24070
X34267Y23070
X34267Y24070
X35267Y23070
X35267Y24070
X36267Y23070
X36267Y24070
X37267Y23070
X37267Y24070
X38267Y23070
X38267Y24070
X14267Y43070
X14267Y44070
X15267Y43070
X15267Y44070
X16267Y43070
X16267Y44070
X17267Y43070
X17267Y44070
X18267Y43070
X18267Y44070
X19267Y43070
X19267Y44070
X20267Y43070
X20267Y44070
X21267Y43070
X21267Y44070
X22267Y43070
X22267Y44070
X23267Y43070
X23267Y44070
X24267Y43070
X24267Y44070
X25267Y43070
X25267Y44070
X26267Y43070
X26267Y44070
X27267Y43070
X27267Y44070
X28267Y43070
X28267Y44070
X29267Y43070
X29267Y44070
X30267Y43070
X30267Y44070
X31267Y43070
X31267Y44070
X32267Y43070
X32267Y44070
X33267Y43070
X33267Y44070
X34267Y43070
X34267Y44070
X35267Y43070
X35267Y44070
X36267Y43070
X36267Y44070
X37267Y43070
X37267Y44070
X38267Y43070
X38267Y44070
X2267Y23070
X3267Y23070
X2267Y44070
X3267Y44070
X37267Y34270
X28467Y34270
X16267Y45070
X37267Y45070
X24267Y45070
T02
X10767Y27570
X11767Y27570
X16767Y27570
X17767Y27570
X12767Y27570
X13767Y27570
X15767Y27570
X14767Y27570
X18767Y27570
X19767Y27570
X19767Y30570
X18767Y30570
X17767Y30570
X16767Y30570
X15767Y30570
X14767Y30570
X13767Y30570
X12767Y30570
X11767Y30570
X10767Y30570
X29267Y29070
X30267Y29070
X35267Y29070
X36267Y29070
X31267Y29070
X32267Y29070
X34267Y29070
X33267Y29070
X37267Y29070
X38267Y29070
X38267Y32070
X37267Y32070
X36267Y32070
X35267Y32070
X34267Y32070
X33267Y32070
X32267Y32070
X31267Y32070
X30267Y32070
X29267Y32070
X20704Y51582
X20704Y52382
X21329Y48782
X21329Y47982
X23779Y47107
X23779Y51107
X24792Y47120
X24792Y51120
X13767Y25057
X9767Y25057
X13767Y22070
X9767Y22070
X11517Y51220
X10717Y51220
X11517Y49057
X10717Y49057
X29704Y40757
X28904Y40757
X37267Y52070
X38267Y52070
X37267Y50070
X38267Y50070
X37267Y48070
X38267Y48070
X35767Y52070
X31767Y52070
X35767Y50070
X31767Y50070
X35767Y48070
X31767Y48070
X26767Y47070
X26767Y51070
X25767Y47070
X25767Y51070
T03
X9267Y19020
X10267Y19020
T04
X18267Y50070
X18267Y49070
X18267Y48070
X27842Y33070
X21842Y33070
X34767Y55070
X33767Y55070
X32767Y55070
X31767Y55070
X33767Y19070
X34767Y19070
X35767Y19070
X36767Y19070
T05
X17237Y53570
X15267Y53570
X13297Y53570
X4979Y54047
X4979Y52067
X5004Y49760
X5004Y47780
T06
X3767Y19570
X38767Y54570
M30
