G04 This is an RS-274x file exported by *
G04 gerbv version 2.6.0 *
G04 More information is available about gerbv at *
G04 http://gerbv.gpleda.org/ *
G04 --End of header info--*
%MOIN*%
%FSLAX34Y34*%
%IPPOS*%
G04 --Define apertures--*
%ADD10C,0.0120*%
%ADD11C,0.0050*%
%ADD12C,0.0080*%
%ADD13C,0.0040*%
%ADD14C,0.0060*%
%ADD15R,0.0340X0.0240*%
G04 --Start main section--*
G54D10*
G01X0001767Y0017570D02*
G01X0001767Y0056440D01*
G01X0001767Y0056440D02*
G01X0040759Y0056440D01*
G01X0040759Y0056440D02*
G01X0040759Y0017570D01*
G01X0040759Y0017570D02*
G01X0001767Y0017570D01*
G54D11*
G01X0012942Y0026133D02*
G01X0012942Y0025682D01*
G01X0012942Y0025833D02*
G01X0012716Y0025833D01*
G01X0012716Y0025833D02*
G01X0012641Y0025908D01*
G01X0012641Y0025908D02*
G01X0012641Y0026058D01*
G01X0012641Y0026058D02*
G01X0012716Y0026133D01*
G01X0012716Y0026133D02*
G01X0012942Y0026133D01*
G01X0012792Y0025833D02*
G01X0012641Y0025682D01*
G01X0012481Y0025682D02*
G01X0012181Y0025682D01*
G01X0012331Y0025682D02*
G01X0012331Y0026133D01*
G01X0012331Y0026133D02*
G01X0012481Y0025983D01*
G01X0012021Y0026058D02*
G01X0011946Y0026133D01*
G01X0011946Y0026133D02*
G01X0011796Y0026133D01*
G01X0011796Y0026133D02*
G01X0011721Y0026058D01*
G01X0011721Y0026058D02*
G01X0012021Y0025757D01*
G01X0012021Y0025757D02*
G01X0011946Y0025682D01*
G01X0011946Y0025682D02*
G01X0011796Y0025682D01*
G01X0011796Y0025682D02*
G01X0011721Y0025757D01*
G01X0011721Y0025757D02*
G01X0011721Y0026058D01*
G01X0012021Y0026058D02*
G01X0012021Y0025757D01*
G01X0011946Y0023145D02*
G01X0012021Y0023070D01*
G01X0011946Y0023145D02*
G01X0011796Y0023145D01*
G01X0011796Y0023145D02*
G01X0011721Y0023070D01*
G01X0011721Y0023070D02*
G01X0011721Y0022995D01*
G01X0011721Y0022995D02*
G01X0012021Y0022695D01*
G01X0012021Y0022695D02*
G01X0011721Y0022695D01*
G01X0012181Y0022695D02*
G01X0012481Y0022695D01*
G01X0012331Y0022695D02*
G01X0012331Y0023145D01*
G01X0012331Y0023145D02*
G01X0012481Y0022995D01*
G01X0012641Y0022920D02*
G01X0012716Y0022845D01*
G01X0012716Y0022845D02*
G01X0012942Y0022845D01*
G01X0012942Y0022695D02*
G01X0012942Y0023145D01*
G01X0012942Y0023145D02*
G01X0012716Y0023145D01*
G01X0012716Y0023145D02*
G01X0012641Y0023070D01*
G01X0012641Y0023070D02*
G01X0012641Y0022920D01*
G01X0012792Y0022845D02*
G01X0012641Y0022695D01*
G54D12*
G01X0017654Y0035625D02*
G01X0024379Y0035625D01*
G01X0024379Y0035625D02*
G01X0024379Y0037515D01*
G01X0024379Y0037515D02*
G01X0017654Y0037515D01*
G01X0017654Y0037515D02*
G01X0017654Y0035625D01*
G01X0017615Y0035940D02*
G01X0017458Y0035940D01*
G01X0017458Y0035940D02*
G01X0017458Y0036097D01*
G01X0017458Y0036097D02*
G01X0017615Y0036097D01*
G01X0017615Y0036294D02*
G01X0017458Y0036294D01*
G01X0017458Y0036294D02*
G01X0017458Y0036845D01*
G01X0017458Y0036845D02*
G01X0017615Y0036845D01*
G01X0017615Y0037042D02*
G01X0017458Y0037042D01*
G01X0017458Y0037042D02*
G01X0017458Y0037200D01*
G01X0017458Y0037200D02*
G01X0017615Y0037200D01*
G01X0017969Y0037357D02*
G01X0024064Y0037357D01*
G01X0024064Y0037357D02*
G01X0024064Y0035782D01*
G01X0024064Y0035782D02*
G01X0017969Y0035782D01*
G01X0017969Y0035782D02*
G01X0017969Y0037357D01*
G01X0024418Y0037200D02*
G01X0024576Y0037200D01*
G01X0024576Y0037200D02*
G01X0024576Y0037042D01*
G01X0024576Y0037042D02*
G01X0024418Y0037042D01*
G01X0024418Y0036845D02*
G01X0024576Y0036845D01*
G01X0024576Y0036845D02*
G01X0024576Y0036294D01*
G01X0024576Y0036294D02*
G01X0024418Y0036294D01*
G01X0024418Y0036097D02*
G01X0024576Y0036097D01*
G01X0024576Y0036097D02*
G01X0024576Y0035940D01*
G01X0024576Y0035940D02*
G01X0024418Y0035940D01*
G01X0032208Y0035940D02*
G01X0032208Y0036097D01*
G01X0032208Y0036097D02*
G01X0032365Y0036097D01*
G01X0032365Y0035940D02*
G01X0032208Y0035940D01*
G01X0032208Y0036294D02*
G01X0032208Y0036845D01*
G01X0032208Y0036845D02*
G01X0032365Y0036845D01*
G01X0032365Y0037042D02*
G01X0032208Y0037042D01*
G01X0032208Y0037042D02*
G01X0032208Y0037200D01*
G01X0032208Y0037200D02*
G01X0032365Y0037200D01*
G01X0032404Y0037515D02*
G01X0039129Y0037515D01*
G01X0039129Y0037515D02*
G01X0039129Y0035625D01*
G01X0039129Y0035625D02*
G01X0032404Y0035625D01*
G01X0032404Y0035625D02*
G01X0032404Y0037515D01*
G01X0032719Y0037357D02*
G01X0038814Y0037357D01*
G01X0038814Y0037357D02*
G01X0038814Y0035782D01*
G01X0038814Y0035782D02*
G01X0032719Y0035782D01*
G01X0032719Y0035782D02*
G01X0032719Y0037357D01*
G01X0032365Y0036294D02*
G01X0032208Y0036294D01*
G01X0039168Y0036294D02*
G01X0039326Y0036294D01*
G01X0039326Y0036294D02*
G01X0039326Y0036845D01*
G01X0039326Y0036845D02*
G01X0039168Y0036845D01*
G01X0039168Y0037042D02*
G01X0039326Y0037042D01*
G01X0039326Y0037042D02*
G01X0039326Y0037200D01*
G01X0039326Y0037200D02*
G01X0039168Y0037200D01*
G01X0039168Y0036097D02*
G01X0039326Y0036097D01*
G01X0039326Y0036097D02*
G01X0039326Y0035940D01*
G01X0039326Y0035940D02*
G01X0039168Y0035940D01*
G54D13*
G01X0039090Y0035940D02*
G01X0038971Y0035940D01*
G01X0038971Y0035940D02*
G01X0038853Y0036058D01*
G01X0038932Y0036019D02*
G01X0038971Y0036058D01*
G01X0038971Y0036058D02*
G01X0038971Y0036452D01*
G01X0038971Y0036452D02*
G01X0038932Y0036491D01*
G01X0038971Y0036452D02*
G01X0039090Y0036452D01*
G01X0039090Y0036570D02*
G01X0038971Y0036570D01*
G01X0038971Y0036570D02*
G01X0038853Y0036452D01*
G01X0038853Y0036570D02*
G01X0038971Y0036570D01*
G01X0038971Y0036058D02*
G01X0039090Y0036058D01*
G01X0038971Y0035940D02*
G01X0038853Y0035940D01*
G01X0033667Y0034550D02*
G01X0033361Y0034090D01*
G01X0033207Y0034090D02*
G01X0032900Y0034090D01*
G01X0033054Y0034090D02*
G01X0033054Y0034550D01*
G01X0033054Y0034550D02*
G01X0033207Y0034397D01*
G01X0033361Y0034550D02*
G01X0033667Y0034090D01*
G01X0030117Y0030474D02*
G01X0030117Y0030167D01*
G01X0030117Y0030167D02*
G01X0030041Y0030090D01*
G01X0030041Y0030090D02*
G01X0029887Y0030090D01*
G01X0029887Y0030090D02*
G01X0029811Y0030167D01*
G01X0029657Y0030090D02*
G01X0029350Y0030397D01*
G01X0029350Y0030397D02*
G01X0029350Y0030474D01*
G01X0029350Y0030474D02*
G01X0029427Y0030550D01*
G01X0029427Y0030550D02*
G01X0029580Y0030550D01*
G01X0029580Y0030550D02*
G01X0029657Y0030474D01*
G01X0029811Y0030474D02*
G01X0029887Y0030550D01*
G01X0029887Y0030550D02*
G01X0030041Y0030550D01*
G01X0030041Y0030550D02*
G01X0030117Y0030474D01*
G01X0029657Y0030090D02*
G01X0029350Y0030090D01*
G01X0024340Y0035940D02*
G01X0024221Y0035940D01*
G01X0024221Y0035940D02*
G01X0024103Y0036058D01*
G01X0024182Y0036019D02*
G01X0024221Y0036058D01*
G01X0024221Y0036058D02*
G01X0024221Y0036452D01*
G01X0024221Y0036452D02*
G01X0024182Y0036491D01*
G01X0024221Y0036452D02*
G01X0024340Y0036452D01*
G01X0024340Y0036570D02*
G01X0024221Y0036570D01*
G01X0024221Y0036570D02*
G01X0024103Y0036452D01*
G01X0024103Y0036570D02*
G01X0024221Y0036570D01*
G01X0024637Y0036696D02*
G01X0024713Y0036619D01*
G01X0024713Y0036619D02*
G01X0025020Y0036619D01*
G01X0025020Y0036619D02*
G01X0025097Y0036696D01*
G01X0025097Y0036696D02*
G01X0025097Y0036849D01*
G01X0025097Y0036849D02*
G01X0025020Y0036926D01*
G01X0025020Y0036926D02*
G01X0024713Y0036926D01*
G01X0024713Y0036926D02*
G01X0024637Y0036849D01*
G01X0024637Y0036849D02*
G01X0024637Y0036696D01*
G01X0024790Y0036773D02*
G01X0024637Y0036926D01*
G01X0024637Y0037079D02*
G01X0024944Y0037386D01*
G01X0024944Y0037386D02*
G01X0025020Y0037386D01*
G01X0025020Y0037386D02*
G01X0025097Y0037310D01*
G01X0025097Y0037310D02*
G01X0025097Y0037156D01*
G01X0025097Y0037156D02*
G01X0025020Y0037079D01*
G01X0024637Y0037079D02*
G01X0024637Y0037386D01*
G01X0024340Y0036058D02*
G01X0024221Y0036058D01*
G01X0024221Y0035940D02*
G01X0024103Y0035940D01*
G01X0018667Y0034550D02*
G01X0018361Y0034090D01*
G01X0018207Y0034090D02*
G01X0017900Y0034397D01*
G01X0017900Y0034397D02*
G01X0017900Y0034474D01*
G01X0017900Y0034474D02*
G01X0017977Y0034550D01*
G01X0017977Y0034550D02*
G01X0018130Y0034550D01*
G01X0018130Y0034550D02*
G01X0018207Y0034474D01*
G01X0018361Y0034550D02*
G01X0018667Y0034090D01*
G01X0018207Y0034090D02*
G01X0017900Y0034090D01*
G01X0015645Y0039369D02*
G01X0015722Y0039446D01*
G01X0015722Y0039446D02*
G01X0015722Y0039599D01*
G01X0015722Y0039599D02*
G01X0015645Y0039676D01*
G01X0015645Y0039676D02*
G01X0015338Y0039676D01*
G01X0015338Y0039676D02*
G01X0015262Y0039599D01*
G01X0015262Y0039599D02*
G01X0015262Y0039446D01*
G01X0015262Y0039446D02*
G01X0015338Y0039369D01*
G01X0015338Y0039369D02*
G01X0015645Y0039369D01*
G01X0015415Y0039523D02*
G01X0015262Y0039676D01*
G01X0015338Y0039829D02*
G01X0015262Y0039906D01*
G01X0015262Y0039906D02*
G01X0015262Y0040060D01*
G01X0015262Y0040060D02*
G01X0015338Y0040136D01*
G01X0015338Y0040136D02*
G01X0015415Y0040136D01*
G01X0015415Y0040136D02*
G01X0015492Y0040060D01*
G01X0015492Y0040060D02*
G01X0015492Y0039983D01*
G01X0015492Y0040060D02*
G01X0015569Y0040136D01*
G01X0015569Y0040136D02*
G01X0015645Y0040136D01*
G01X0015645Y0040136D02*
G01X0015722Y0040060D01*
G01X0015722Y0040060D02*
G01X0015722Y0039906D01*
G01X0015722Y0039906D02*
G01X0015645Y0039829D01*
G01X0013545Y0041890D02*
G01X0013391Y0041890D01*
G01X0013391Y0041890D02*
G01X0013315Y0041967D01*
G01X0013161Y0041967D02*
G01X0013085Y0041890D01*
G01X0013085Y0041890D02*
G01X0012931Y0041890D01*
G01X0012931Y0041890D02*
G01X0012854Y0041967D01*
G01X0012854Y0041967D02*
G01X0012854Y0042043D01*
G01X0012854Y0042043D02*
G01X0012931Y0042120D01*
G01X0012931Y0042120D02*
G01X0013008Y0042120D01*
G01X0012931Y0042120D02*
G01X0012854Y0042197D01*
G01X0012854Y0042197D02*
G01X0012854Y0042274D01*
G01X0012854Y0042274D02*
G01X0012931Y0042350D01*
G01X0012931Y0042350D02*
G01X0013085Y0042350D01*
G01X0013085Y0042350D02*
G01X0013161Y0042274D01*
G01X0013315Y0042274D02*
G01X0013391Y0042350D01*
G01X0013391Y0042350D02*
G01X0013545Y0042350D01*
G01X0013545Y0042350D02*
G01X0013622Y0042274D01*
G01X0013622Y0042274D02*
G01X0013622Y0041967D01*
G01X0013622Y0041967D02*
G01X0013545Y0041890D01*
G01X0012083Y0043565D02*
G01X0012160Y0043642D01*
G01X0012160Y0043642D02*
G01X0012160Y0043795D01*
G01X0012160Y0043795D02*
G01X0012083Y0043872D01*
G01X0012083Y0043872D02*
G01X0011776Y0043872D01*
G01X0011776Y0043872D02*
G01X0011699Y0043795D01*
G01X0011699Y0043795D02*
G01X0011699Y0043642D01*
G01X0011699Y0043642D02*
G01X0011776Y0043565D01*
G01X0011776Y0043565D02*
G01X0012083Y0043565D01*
G01X0011853Y0043718D02*
G01X0011699Y0043872D01*
G01X0011776Y0044025D02*
G01X0011699Y0044102D01*
G01X0011699Y0044102D02*
G01X0011699Y0044255D01*
G01X0011699Y0044255D02*
G01X0011776Y0044332D01*
G01X0011776Y0044332D02*
G01X0011853Y0044332D01*
G01X0011853Y0044332D02*
G01X0011929Y0044255D01*
G01X0011929Y0044255D02*
G01X0011929Y0044025D01*
G01X0011929Y0044025D02*
G01X0011776Y0044025D01*
G01X0011929Y0044025D02*
G01X0012083Y0044179D01*
G01X0012083Y0044179D02*
G01X0012160Y0044332D01*
G01X0013781Y0045740D02*
G01X0013781Y0046200D01*
G01X0013781Y0046200D02*
G01X0014011Y0045970D01*
G01X0014011Y0045970D02*
G01X0013704Y0045970D01*
G01X0014165Y0045817D02*
G01X0014241Y0045740D01*
G01X0014241Y0045740D02*
G01X0014395Y0045740D01*
G01X0014395Y0045740D02*
G01X0014472Y0045817D01*
G01X0014472Y0045817D02*
G01X0014472Y0046124D01*
G01X0014472Y0046124D02*
G01X0014395Y0046200D01*
G01X0014395Y0046200D02*
G01X0014241Y0046200D01*
G01X0014241Y0046200D02*
G01X0014165Y0046124D01*
G01X0011547Y0046840D02*
G01X0011547Y0047070D01*
G01X0011547Y0047070D02*
G01X0011470Y0047147D01*
G01X0011470Y0047147D02*
G01X0011317Y0047147D01*
G01X0011317Y0047147D02*
G01X0011240Y0047070D01*
G01X0011240Y0047070D02*
G01X0011240Y0046840D01*
G01X0011087Y0046840D02*
G01X0011547Y0046840D01*
G01X0011240Y0046993D02*
G01X0011087Y0047147D01*
G01X0011087Y0047300D02*
G01X0011087Y0047607D01*
G01X0011087Y0047454D02*
G01X0011547Y0047454D01*
G01X0011547Y0047454D02*
G01X0011394Y0047300D01*
G01X0011547Y0047761D02*
G01X0011547Y0048068D01*
G01X0011547Y0048068D02*
G01X0011470Y0048068D01*
G01X0011470Y0048068D02*
G01X0011163Y0047761D01*
G01X0011163Y0047761D02*
G01X0011087Y0047761D01*
G01X0010191Y0049265D02*
G01X0010267Y0049342D01*
G01X0010267Y0049342D02*
G01X0010267Y0049649D01*
G01X0010267Y0049649D02*
G01X0010191Y0049725D01*
G01X0010191Y0049725D02*
G01X0010037Y0049725D01*
G01X0010037Y0049725D02*
G01X0009961Y0049649D01*
G01X0009961Y0049649D02*
G01X0009961Y0049342D01*
G01X0009961Y0049342D02*
G01X0010037Y0049265D01*
G01X0010037Y0049265D02*
G01X0010191Y0049265D01*
G01X0010114Y0049418D02*
G01X0009961Y0049265D01*
G01X0009807Y0049265D02*
G01X0009807Y0049342D01*
G01X0009807Y0049342D02*
G01X0009500Y0049649D01*
G01X0009500Y0049649D02*
G01X0009500Y0049725D01*
G01X0009500Y0049725D02*
G01X0009807Y0049725D01*
G01X0007128Y0050090D02*
G01X0007128Y0050550D01*
G01X0007128Y0050550D02*
G01X0006898Y0050550D01*
G01X0006898Y0050550D02*
G01X0006821Y0050474D01*
G01X0006821Y0050474D02*
G01X0006821Y0050320D01*
G01X0006821Y0050320D02*
G01X0006898Y0050243D01*
G01X0006898Y0050243D02*
G01X0007128Y0050243D01*
G01X0006974Y0050243D02*
G01X0006821Y0050090D01*
G01X0006667Y0050090D02*
G01X0006361Y0050090D01*
G01X0006514Y0050090D02*
G01X0006514Y0050550D01*
G01X0006514Y0050550D02*
G01X0006667Y0050397D01*
G01X0006207Y0050320D02*
G01X0005977Y0050320D01*
G01X0005977Y0050320D02*
G01X0005900Y0050243D01*
G01X0005900Y0050243D02*
G01X0005900Y0050167D01*
G01X0005900Y0050167D02*
G01X0005977Y0050090D01*
G01X0005977Y0050090D02*
G01X0006130Y0050090D01*
G01X0006130Y0050090D02*
G01X0006207Y0050167D01*
G01X0006207Y0050167D02*
G01X0006207Y0050320D01*
G01X0006207Y0050320D02*
G01X0006054Y0050474D01*
G01X0006054Y0050474D02*
G01X0005900Y0050550D01*
G01X0010037Y0052496D02*
G01X0010113Y0052419D01*
G01X0010113Y0052419D02*
G01X0010420Y0052419D01*
G01X0010420Y0052419D02*
G01X0010497Y0052496D01*
G01X0010497Y0052496D02*
G01X0010497Y0052649D01*
G01X0010497Y0052649D02*
G01X0010420Y0052726D01*
G01X0010420Y0052726D02*
G01X0010113Y0052726D01*
G01X0010113Y0052726D02*
G01X0010037Y0052649D01*
G01X0010037Y0052649D02*
G01X0010037Y0052496D01*
G01X0010190Y0052573D02*
G01X0010037Y0052726D01*
G01X0010113Y0052879D02*
G01X0010037Y0052956D01*
G01X0010037Y0052956D02*
G01X0010037Y0053110D01*
G01X0010037Y0053110D02*
G01X0010113Y0053186D01*
G01X0010113Y0053186D02*
G01X0010420Y0053186D01*
G01X0010420Y0053186D02*
G01X0010497Y0053110D01*
G01X0010497Y0053110D02*
G01X0010497Y0052956D01*
G01X0010497Y0052956D02*
G01X0010420Y0052879D01*
G01X0010420Y0052879D02*
G01X0010344Y0052879D01*
G01X0010344Y0052879D02*
G01X0010267Y0052956D01*
G01X0010267Y0052956D02*
G01X0010267Y0053186D01*
G01X0007132Y0045463D02*
G01X0006979Y0045463D01*
G01X0006979Y0045463D02*
G01X0006902Y0045386D01*
G01X0006902Y0045386D02*
G01X0006902Y0045079D01*
G01X0006902Y0045079D02*
G01X0006979Y0045002D01*
G01X0006979Y0045002D02*
G01X0007132Y0045002D01*
G01X0007132Y0045002D02*
G01X0007209Y0045079D01*
G01X0007209Y0045079D02*
G01X0007209Y0045386D01*
G01X0007209Y0045386D02*
G01X0007132Y0045463D01*
G01X0007056Y0045156D02*
G01X0006902Y0045002D01*
G01X0006749Y0045079D02*
G01X0006749Y0045156D01*
G01X0006749Y0045156D02*
G01X0006672Y0045233D01*
G01X0006672Y0045233D02*
G01X0006519Y0045233D01*
G01X0006519Y0045233D02*
G01X0006442Y0045156D01*
G01X0006442Y0045156D02*
G01X0006442Y0045079D01*
G01X0006442Y0045079D02*
G01X0006519Y0045002D01*
G01X0006519Y0045002D02*
G01X0006672Y0045002D01*
G01X0006672Y0045002D02*
G01X0006749Y0045079D01*
G01X0006672Y0045233D02*
G01X0006749Y0045309D01*
G01X0006749Y0045309D02*
G01X0006749Y0045386D01*
G01X0006749Y0045386D02*
G01X0006672Y0045463D01*
G01X0006672Y0045463D02*
G01X0006519Y0045463D01*
G01X0006519Y0045463D02*
G01X0006442Y0045386D01*
G01X0006442Y0045386D02*
G01X0006442Y0045309D01*
G01X0006442Y0045309D02*
G01X0006519Y0045233D01*
G01X0019979Y0042325D02*
G01X0020133Y0042249D01*
G01X0020133Y0042249D02*
G01X0020286Y0042095D01*
G01X0020286Y0042095D02*
G01X0020056Y0042095D01*
G01X0020056Y0042095D02*
G01X0019979Y0042018D01*
G01X0019979Y0042018D02*
G01X0019979Y0041942D01*
G01X0019979Y0041942D02*
G01X0020056Y0041865D01*
G01X0020056Y0041865D02*
G01X0020210Y0041865D01*
G01X0020210Y0041865D02*
G01X0020286Y0041942D01*
G01X0020286Y0041942D02*
G01X0020286Y0042095D01*
G01X0020440Y0042095D02*
G01X0020516Y0042018D01*
G01X0020516Y0042018D02*
G01X0020747Y0042018D01*
G01X0020747Y0041865D02*
G01X0020747Y0042325D01*
G01X0020747Y0042325D02*
G01X0020516Y0042325D01*
G01X0020516Y0042325D02*
G01X0020440Y0042249D01*
G01X0020440Y0042249D02*
G01X0020440Y0042095D01*
G01X0020593Y0042018D02*
G01X0020440Y0041865D01*
G01X0023729Y0041600D02*
G01X0024036Y0041600D01*
G01X0024036Y0041600D02*
G01X0024036Y0041370D01*
G01X0024036Y0041370D02*
G01X0023883Y0041447D01*
G01X0023883Y0041447D02*
G01X0023806Y0041447D01*
G01X0023806Y0041447D02*
G01X0023729Y0041370D01*
G01X0023729Y0041370D02*
G01X0023729Y0041217D01*
G01X0023729Y0041217D02*
G01X0023806Y0041140D01*
G01X0023806Y0041140D02*
G01X0023960Y0041140D01*
G01X0023960Y0041140D02*
G01X0024036Y0041217D01*
G01X0024190Y0041217D02*
G01X0024266Y0041140D01*
G01X0024266Y0041140D02*
G01X0024420Y0041140D01*
G01X0024420Y0041140D02*
G01X0024497Y0041217D01*
G01X0024497Y0041217D02*
G01X0024497Y0041524D01*
G01X0024497Y0041524D02*
G01X0024420Y0041600D01*
G01X0024420Y0041600D02*
G01X0024266Y0041600D01*
G01X0024266Y0041600D02*
G01X0024190Y0041524D01*
G01X0024190Y0041524D02*
G01X0024190Y0041217D01*
G01X0024190Y0041140D02*
G01X0024343Y0041293D01*
G01X0024692Y0049777D02*
G01X0024999Y0049777D01*
G01X0025152Y0049777D02*
G01X0025306Y0049931D01*
G01X0025382Y0049777D02*
G01X0025459Y0049854D01*
G01X0025459Y0049854D02*
G01X0025459Y0050161D01*
G01X0025459Y0050161D02*
G01X0025382Y0050238D01*
G01X0025382Y0050238D02*
G01X0025229Y0050238D01*
G01X0025229Y0050238D02*
G01X0025152Y0050161D01*
G01X0025152Y0050161D02*
G01X0025152Y0049854D01*
G01X0025152Y0049854D02*
G01X0025229Y0049777D01*
G01X0025229Y0049777D02*
G01X0025382Y0049777D01*
G01X0024999Y0050084D02*
G01X0024845Y0050238D01*
G01X0024845Y0050238D02*
G01X0024845Y0049777D01*
G01X0025854Y0050070D02*
G01X0026161Y0050070D01*
G01X0026161Y0050070D02*
G01X0025931Y0050300D01*
G01X0025931Y0050300D02*
G01X0025931Y0049840D01*
G01X0026315Y0049840D02*
G01X0026468Y0049993D01*
G01X0026391Y0049840D02*
G01X0026545Y0049840D01*
G01X0026545Y0049840D02*
G01X0026622Y0049917D01*
G01X0026622Y0049917D02*
G01X0026622Y0050224D01*
G01X0026622Y0050224D02*
G01X0026545Y0050300D01*
G01X0026545Y0050300D02*
G01X0026391Y0050300D01*
G01X0026391Y0050300D02*
G01X0026315Y0050224D01*
G01X0026315Y0050224D02*
G01X0026315Y0049917D01*
G01X0026315Y0049917D02*
G01X0026391Y0049840D01*
G01X0020672Y0049833D02*
G01X0020672Y0049679D01*
G01X0020672Y0049679D02*
G01X0020595Y0049602D01*
G01X0020595Y0049602D02*
G01X0020288Y0049602D01*
G01X0020288Y0049602D02*
G01X0020212Y0049679D01*
G01X0020212Y0049679D02*
G01X0020212Y0049833D01*
G01X0020212Y0049833D02*
G01X0020288Y0049909D01*
G01X0020288Y0050063D02*
G01X0020365Y0050063D01*
G01X0020365Y0050063D02*
G01X0020442Y0050140D01*
G01X0020442Y0050140D02*
G01X0020442Y0050293D01*
G01X0020442Y0050293D02*
G01X0020365Y0050370D01*
G01X0020365Y0050370D02*
G01X0020288Y0050370D01*
G01X0020288Y0050370D02*
G01X0020212Y0050293D01*
G01X0020212Y0050293D02*
G01X0020212Y0050140D01*
G01X0020212Y0050140D02*
G01X0020288Y0050063D01*
G01X0020442Y0050140D02*
G01X0020519Y0050063D01*
G01X0020519Y0050063D02*
G01X0020595Y0050063D01*
G01X0020595Y0050063D02*
G01X0020672Y0050140D01*
G01X0020672Y0050140D02*
G01X0020672Y0050293D01*
G01X0020672Y0050293D02*
G01X0020595Y0050370D01*
G01X0020595Y0050370D02*
G01X0020519Y0050370D01*
G01X0020519Y0050370D02*
G01X0020442Y0050293D01*
G01X0020595Y0049909D02*
G01X0020672Y0049833D01*
G01X0019958Y0054252D02*
G01X0019651Y0054252D01*
G01X0019651Y0054252D02*
G01X0019574Y0054329D01*
G01X0019574Y0054329D02*
G01X0019574Y0054483D01*
G01X0019574Y0054483D02*
G01X0019651Y0054559D01*
G01X0019651Y0054713D02*
G01X0019574Y0054713D01*
G01X0019651Y0054713D02*
G01X0019958Y0055020D01*
G01X0019958Y0055020D02*
G01X0020035Y0055020D01*
G01X0020035Y0055020D02*
G01X0020035Y0054713D01*
G01X0019958Y0054559D02*
G01X0020035Y0054483D01*
G01X0020035Y0054483D02*
G01X0020035Y0054329D01*
G01X0020035Y0054329D02*
G01X0019958Y0054252D01*
G01X0035287Y0054246D02*
G01X0035287Y0054399D01*
G01X0035287Y0054399D02*
G01X0035363Y0054476D01*
G01X0035363Y0054629D02*
G01X0035287Y0054706D01*
G01X0035287Y0054706D02*
G01X0035287Y0054860D01*
G01X0035287Y0054860D02*
G01X0035363Y0054936D01*
G01X0035363Y0054936D02*
G01X0035517Y0054936D01*
G01X0035517Y0054936D02*
G01X0035594Y0054860D01*
G01X0035594Y0054860D02*
G01X0035594Y0054783D01*
G01X0035594Y0054783D02*
G01X0035517Y0054629D01*
G01X0035517Y0054629D02*
G01X0035747Y0054629D01*
G01X0035747Y0054629D02*
G01X0035747Y0054936D01*
G01X0035670Y0054476D02*
G01X0035747Y0054399D01*
G01X0035747Y0054399D02*
G01X0035747Y0054246D01*
G01X0035747Y0054246D02*
G01X0035670Y0054169D01*
G01X0035670Y0054169D02*
G01X0035363Y0054169D01*
G01X0035363Y0054169D02*
G01X0035287Y0054246D01*
G01X0038054Y0042050D02*
G01X0038054Y0041590D01*
G01X0038207Y0041590D02*
G01X0037900Y0041590D01*
G01X0038207Y0041897D02*
G01X0038054Y0042050D01*
G01X0038361Y0042050D02*
G01X0038361Y0041590D01*
G01X0038361Y0041820D02*
G01X0038667Y0041820D01*
G01X0038667Y0041590D02*
G01X0038667Y0042050D01*
G01X0011730Y0028711D02*
G01X0011730Y0028404D01*
G01X0011730Y0028404D02*
G01X0011653Y0028327D01*
G01X0011653Y0028327D02*
G01X0011500Y0028327D01*
G01X0011500Y0028327D02*
G01X0011423Y0028404D01*
G01X0011270Y0028327D02*
G01X0010963Y0028327D01*
G01X0011116Y0028327D02*
G01X0011116Y0028788D01*
G01X0011116Y0028788D02*
G01X0011270Y0028634D01*
G01X0011423Y0028711D02*
G01X0011500Y0028788D01*
G01X0011500Y0028788D02*
G01X0011653Y0028788D01*
G01X0011653Y0028788D02*
G01X0011730Y0028711D01*
G01X0010170Y0021200D02*
G01X0010247Y0021124D01*
G01X0010247Y0021124D02*
G01X0010247Y0020817D01*
G01X0010247Y0020817D02*
G01X0010170Y0020740D01*
G01X0010170Y0020740D02*
G01X0010016Y0020740D01*
G01X0010016Y0020740D02*
G01X0009940Y0020817D01*
G01X0009786Y0020740D02*
G01X0009479Y0020740D01*
G01X0009633Y0020740D02*
G01X0009633Y0021200D01*
G01X0009633Y0021200D02*
G01X0009786Y0021047D01*
G01X0009940Y0021124D02*
G01X0010016Y0021200D01*
G01X0010016Y0021200D02*
G01X0010170Y0021200D01*
G01X0009326Y0021124D02*
G01X0009249Y0021200D01*
G01X0009249Y0021200D02*
G01X0009096Y0021200D01*
G01X0009096Y0021200D02*
G01X0009019Y0021124D01*
G01X0009019Y0021124D02*
G01X0009019Y0021047D01*
G01X0009019Y0021047D02*
G01X0009096Y0020970D01*
G01X0009096Y0020970D02*
G01X0009019Y0020893D01*
G01X0009019Y0020893D02*
G01X0009019Y0020817D01*
G01X0009019Y0020817D02*
G01X0009096Y0020740D01*
G01X0009096Y0020740D02*
G01X0009249Y0020740D01*
G01X0009249Y0020740D02*
G01X0009326Y0020817D01*
G01X0009172Y0020970D02*
G01X0009096Y0020970D01*
G54D14*
G01X0010517Y0021720D02*
G01X0010517Y0022420D01*
G01X0010517Y0022420D02*
G01X0010519Y0022437D01*
G01X0010519Y0022437D02*
G01X0010523Y0022454D01*
G01X0010523Y0022454D02*
G01X0010530Y0022470D01*
G01X0010530Y0022470D02*
G01X0010540Y0022484D01*
G01X0010540Y0022484D02*
G01X0010553Y0022497D01*
G01X0010553Y0022497D02*
G01X0010567Y0022507D01*
G01X0010567Y0022507D02*
G01X0010583Y0022514D01*
G01X0010583Y0022514D02*
G01X0010600Y0022518D01*
G01X0010600Y0022518D02*
G01X0010617Y0022520D01*
G01X0010617Y0022520D02*
G01X0010767Y0022520D01*
G01X0010767Y0022520D02*
G01X0010817Y0022470D01*
G01X0010817Y0022470D02*
G01X0012717Y0022470D01*
G01X0012717Y0022470D02*
G01X0012767Y0022520D01*
G01X0012767Y0022520D02*
G01X0012917Y0022520D01*
G01X0012917Y0022520D02*
G01X0012934Y0022518D01*
G01X0012934Y0022518D02*
G01X0012951Y0022514D01*
G01X0012951Y0022514D02*
G01X0012967Y0022507D01*
G01X0012967Y0022507D02*
G01X0012981Y0022497D01*
G01X0012981Y0022497D02*
G01X0012994Y0022484D01*
G01X0012994Y0022484D02*
G01X0013004Y0022470D01*
G01X0013004Y0022470D02*
G01X0013011Y0022454D01*
G01X0013011Y0022454D02*
G01X0013015Y0022437D01*
G01X0013015Y0022437D02*
G01X0013017Y0022420D01*
G01X0013017Y0022420D02*
G01X0013017Y0021720D01*
G01X0013017Y0021720D02*
G01X0013015Y0021703D01*
G01X0013015Y0021703D02*
G01X0013011Y0021686D01*
G01X0013011Y0021686D02*
G01X0013004Y0021670D01*
G01X0013004Y0021670D02*
G01X0012994Y0021656D01*
G01X0012994Y0021656D02*
G01X0012981Y0021643D01*
G01X0012981Y0021643D02*
G01X0012967Y0021633D01*
G01X0012967Y0021633D02*
G01X0012951Y0021626D01*
G01X0012951Y0021626D02*
G01X0012934Y0021622D01*
G01X0012934Y0021622D02*
G01X0012917Y0021620D01*
G01X0012917Y0021620D02*
G01X0012767Y0021620D01*
G01X0012767Y0021620D02*
G01X0012717Y0021670D01*
G01X0012717Y0021670D02*
G01X0010817Y0021670D01*
G01X0010817Y0021670D02*
G01X0010767Y0021620D01*
G01X0010767Y0021620D02*
G01X0010617Y0021620D01*
G01X0010617Y0021620D02*
G01X0010600Y0021622D01*
G01X0010600Y0021622D02*
G01X0010583Y0021626D01*
G01X0010583Y0021626D02*
G01X0010567Y0021633D01*
G01X0010567Y0021633D02*
G01X0010553Y0021643D01*
G01X0010553Y0021643D02*
G01X0010540Y0021656D01*
G01X0010540Y0021656D02*
G01X0010530Y0021670D01*
G01X0010530Y0021670D02*
G01X0010523Y0021686D01*
G01X0010523Y0021686D02*
G01X0010519Y0021703D01*
G01X0010519Y0021703D02*
G01X0010517Y0021720D01*
G01X0010617Y0024607D02*
G01X0010767Y0024607D01*
G01X0010767Y0024607D02*
G01X0010817Y0024657D01*
G01X0010817Y0024657D02*
G01X0012717Y0024657D01*
G01X0012717Y0024657D02*
G01X0012767Y0024607D01*
G01X0012767Y0024607D02*
G01X0012917Y0024607D01*
G01X0012917Y0024607D02*
G01X0012934Y0024609D01*
G01X0012934Y0024609D02*
G01X0012951Y0024613D01*
G01X0012951Y0024613D02*
G01X0012967Y0024620D01*
G01X0012967Y0024620D02*
G01X0012981Y0024630D01*
G01X0012981Y0024630D02*
G01X0012994Y0024643D01*
G01X0012994Y0024643D02*
G01X0013004Y0024657D01*
G01X0013004Y0024657D02*
G01X0013011Y0024673D01*
G01X0013011Y0024673D02*
G01X0013015Y0024690D01*
G01X0013015Y0024690D02*
G01X0013017Y0024707D01*
G01X0013017Y0024707D02*
G01X0013017Y0025407D01*
G01X0013017Y0025407D02*
G01X0013015Y0025424D01*
G01X0013015Y0025424D02*
G01X0013011Y0025441D01*
G01X0013011Y0025441D02*
G01X0013004Y0025457D01*
G01X0013004Y0025457D02*
G01X0012994Y0025471D01*
G01X0012994Y0025471D02*
G01X0012981Y0025484D01*
G01X0012981Y0025484D02*
G01X0012967Y0025494D01*
G01X0012967Y0025494D02*
G01X0012951Y0025501D01*
G01X0012951Y0025501D02*
G01X0012934Y0025505D01*
G01X0012934Y0025505D02*
G01X0012917Y0025507D01*
G01X0012917Y0025507D02*
G01X0012767Y0025507D01*
G01X0012767Y0025507D02*
G01X0012717Y0025457D01*
G01X0012717Y0025457D02*
G01X0010817Y0025457D01*
G01X0010817Y0025457D02*
G01X0010767Y0025507D01*
G01X0010767Y0025507D02*
G01X0010617Y0025507D01*
G01X0010617Y0025507D02*
G01X0010600Y0025505D01*
G01X0010600Y0025505D02*
G01X0010583Y0025501D01*
G01X0010583Y0025501D02*
G01X0010567Y0025494D01*
G01X0010567Y0025494D02*
G01X0010553Y0025484D01*
G01X0010553Y0025484D02*
G01X0010540Y0025471D01*
G01X0010540Y0025471D02*
G01X0010530Y0025457D01*
G01X0010530Y0025457D02*
G01X0010523Y0025441D01*
G01X0010523Y0025441D02*
G01X0010519Y0025424D01*
G01X0010519Y0025424D02*
G01X0010517Y0025407D01*
G01X0010517Y0025407D02*
G01X0010517Y0024707D01*
G01X0010517Y0024707D02*
G01X0010519Y0024690D01*
G01X0010519Y0024690D02*
G01X0010523Y0024673D01*
G01X0010523Y0024673D02*
G01X0010530Y0024657D01*
G01X0010530Y0024657D02*
G01X0010540Y0024643D01*
G01X0010540Y0024643D02*
G01X0010553Y0024630D01*
G01X0010553Y0024630D02*
G01X0010567Y0024620D01*
G01X0010567Y0024620D02*
G01X0010583Y0024613D01*
G01X0010583Y0024613D02*
G01X0010600Y0024609D01*
G01X0010600Y0024609D02*
G01X0010617Y0024607D01*
G54D15*
G01X0010347Y0025057D03*
G01X0013187Y0025057D03*
G01X0013187Y0022070D03*
G01X0010347Y0022070D03*
M02*
