G75*
G70*
%OFA0B0*%
%FSLAX24Y24*%
%IPPOS*%
%LPD*%
%AMOC8*
5,1,8,0,0,1.08239X$1,22.5*
%
%ADD10C,0.0120*%
%ADD11C,0.0520*%
%ADD12R,0.0515X0.0515*%
%ADD13C,0.0515*%
%ADD14C,0.0515*%
%ADD15C,0.0780*%
%ADD16C,0.0600*%
%ADD17OC8,0.0520*%
%ADD18C,0.0520*%
%ADD19OC8,0.0600*%
%ADD20C,0.0594*%
%ADD21C,0.2300*%
%ADD22C,0.0160*%
%ADD23C,0.0472*%
D10*
X001767Y017570D02*
X001767Y056440D01*
X040759Y056440D01*
X040759Y017570D01*
X001767Y017570D01*
X028467Y034270D02*
X037267Y034270D01*
X037267Y045070D02*
X024267Y045070D01*
X016267Y045070D01*
D11*
X029267Y032330D02*
X029267Y031810D01*
X030267Y031810D02*
X030267Y032330D01*
X031267Y032330D02*
X031267Y031810D01*
X032267Y031810D02*
X032267Y032330D01*
X033267Y032330D02*
X033267Y031810D01*
X034267Y031810D02*
X034267Y032330D01*
X035267Y032330D02*
X035267Y031810D01*
X036267Y031810D02*
X036267Y032330D01*
X037267Y032330D02*
X037267Y031810D01*
X038267Y031810D02*
X038267Y032330D01*
X038267Y029330D02*
X038267Y028810D01*
X037267Y028810D02*
X037267Y029330D01*
X036267Y029330D02*
X036267Y028810D01*
X035267Y028810D02*
X035267Y029330D01*
X034267Y029330D02*
X034267Y028810D01*
X033267Y028810D02*
X033267Y029330D01*
X032267Y029330D02*
X032267Y028810D01*
X031267Y028810D02*
X031267Y029330D01*
X030267Y029330D02*
X030267Y028810D01*
X029267Y028810D02*
X029267Y029330D01*
X019767Y030310D02*
X019767Y030830D01*
X018767Y030830D02*
X018767Y030310D01*
X017767Y030310D02*
X017767Y030830D01*
X016767Y030830D02*
X016767Y030310D01*
X015767Y030310D02*
X015767Y030830D01*
X014767Y030830D02*
X014767Y030310D01*
X013767Y030310D02*
X013767Y030830D01*
X012767Y030830D02*
X012767Y030310D01*
X011767Y030310D02*
X011767Y030830D01*
X010767Y030830D02*
X010767Y030310D01*
X010767Y027830D02*
X010767Y027310D01*
X011767Y027310D02*
X011767Y027830D01*
X012767Y027830D02*
X012767Y027310D01*
X013767Y027310D02*
X013767Y027830D01*
X014767Y027830D02*
X014767Y027310D01*
X015767Y027310D02*
X015767Y027830D01*
X016767Y027830D02*
X016767Y027310D01*
X017767Y027310D02*
X017767Y027830D01*
X018767Y027830D02*
X018767Y027310D01*
X019767Y027310D02*
X019767Y027830D01*
D12*
X014267Y023070D03*
X014267Y043070D03*
D13*
X015267Y043070D03*
X016267Y043070D03*
X017267Y043070D03*
X018267Y043070D03*
X019267Y043070D03*
X020267Y043070D03*
X021267Y043070D03*
X022267Y043070D03*
X023267Y043070D03*
X024267Y043070D03*
X025267Y043070D03*
X026267Y043070D03*
X027267Y043070D03*
X028267Y043070D03*
X029267Y043070D03*
X030267Y043070D03*
X031267Y043070D03*
X032267Y043070D03*
X033267Y043070D03*
X034267Y043070D03*
X035267Y043070D03*
X036267Y043070D03*
X037267Y043070D03*
X038267Y043070D03*
X038267Y044070D03*
X037267Y044070D03*
X036267Y044070D03*
X035267Y044070D03*
X034267Y044070D03*
X033267Y044070D03*
X032267Y044070D03*
X031267Y044070D03*
X030267Y044070D03*
X029267Y044070D03*
X028267Y044070D03*
X027267Y044070D03*
X026267Y044070D03*
X025267Y044070D03*
X024267Y044070D03*
X023267Y044070D03*
X022267Y044070D03*
X021267Y044070D03*
X020267Y044070D03*
X019267Y044070D03*
X018267Y044070D03*
X017267Y044070D03*
X016267Y044070D03*
X015267Y044070D03*
X014267Y044070D03*
X014267Y024070D03*
X015267Y024070D03*
X016267Y024070D03*
X017267Y024070D03*
X018267Y024070D03*
X019267Y024070D03*
X020267Y024070D03*
X021267Y024070D03*
X022267Y024070D03*
X023267Y024070D03*
X024267Y024070D03*
X025267Y024070D03*
X026267Y024070D03*
X027267Y024070D03*
X028267Y024070D03*
X029267Y024070D03*
X030267Y024070D03*
X031267Y024070D03*
X032267Y024070D03*
X033267Y024070D03*
X034267Y024070D03*
X035267Y024070D03*
X036267Y024070D03*
X037267Y024070D03*
X038267Y024070D03*
X038267Y023070D03*
X037267Y023070D03*
X036267Y023070D03*
X035267Y023070D03*
X034267Y023070D03*
X033267Y023070D03*
X032267Y023070D03*
X031267Y023070D03*
X030267Y023070D03*
X029267Y023070D03*
X028267Y023070D03*
X027267Y023070D03*
X026267Y023070D03*
X025267Y023070D03*
X024267Y023070D03*
X023267Y023070D03*
X022267Y023070D03*
X021267Y023070D03*
X020267Y023070D03*
X019267Y023070D03*
X018267Y023070D03*
X017267Y023070D03*
X016267Y023070D03*
X015267Y023070D03*
D14*
X003267Y022812D02*
X003267Y023327D01*
X002267Y023327D02*
X002267Y022812D01*
X002267Y043812D02*
X002267Y044327D01*
X003267Y044327D02*
X003267Y043812D01*
D15*
X004614Y047780D02*
X005394Y047780D01*
X005394Y049760D02*
X004614Y049760D01*
X004589Y052067D02*
X005369Y052067D01*
X005369Y054047D02*
X004589Y054047D01*
X013297Y053960D02*
X013297Y053180D01*
X015267Y053180D02*
X015267Y053960D01*
X017237Y053960D02*
X017237Y053180D01*
D16*
X017967Y050070D02*
X018567Y050070D01*
X018567Y049070D02*
X017967Y049070D01*
X017967Y048070D02*
X018567Y048070D01*
X031767Y054770D02*
X031767Y055370D01*
X032767Y055370D02*
X032767Y054770D01*
X033767Y054770D02*
X033767Y055370D01*
X034767Y055370D02*
X034767Y054770D01*
X034767Y019370D02*
X034767Y018770D01*
X033767Y018770D02*
X033767Y019370D01*
X035767Y019370D02*
X035767Y018770D01*
X036767Y018770D02*
X036767Y019370D01*
D17*
X013767Y022070D03*
X013767Y025057D03*
X009767Y025057D03*
X009767Y022070D03*
X029704Y040757D03*
X026767Y047070D03*
X025767Y047070D03*
X024792Y047120D03*
X023779Y047107D03*
X021329Y048782D03*
X020704Y051582D03*
X023779Y051107D03*
X024792Y051120D03*
X025767Y051070D03*
X026767Y051070D03*
X031767Y052070D03*
X031767Y050070D03*
X031767Y048070D03*
X035767Y048070D03*
X037267Y048070D03*
X038267Y048070D03*
X038267Y050070D03*
X037267Y050070D03*
X035767Y050070D03*
X035767Y052070D03*
X037267Y052070D03*
X038267Y052070D03*
X011517Y051220D03*
X011517Y049057D03*
D18*
X010717Y049057D03*
X010717Y051220D03*
X020704Y052382D03*
X021329Y047982D03*
X028904Y040757D03*
D19*
X027842Y033070D03*
X021842Y033070D03*
D20*
X010267Y019317D02*
X010267Y018723D01*
X009267Y018723D02*
X009267Y019317D01*
D21*
X003767Y019570D03*
X038767Y054570D03*
D22*
X038847Y054500D02*
X040519Y054500D01*
X040519Y054342D02*
X040077Y054342D01*
X040084Y054374D02*
X040095Y054490D01*
X038847Y054490D01*
X038847Y054650D01*
X040095Y054650D01*
X040084Y054765D01*
X040058Y054893D01*
X040020Y055018D01*
X039970Y055139D01*
X039909Y055254D01*
X039836Y055363D01*
X039753Y055464D01*
X039661Y055557D01*
X039560Y055639D01*
X039451Y055712D01*
X039336Y055774D01*
X039215Y055824D01*
X039090Y055862D01*
X038962Y055887D01*
X038847Y055898D01*
X038847Y054650D01*
X038687Y054650D01*
X038687Y055898D01*
X038571Y055887D01*
X038443Y055862D01*
X038318Y055824D01*
X038197Y055774D01*
X038082Y055712D01*
X037973Y055639D01*
X037872Y055557D01*
X037780Y055464D01*
X037697Y055363D01*
X037625Y055254D01*
X037563Y055139D01*
X037513Y055018D01*
X037475Y054893D01*
X037449Y054765D01*
X037438Y054650D01*
X038687Y054650D01*
X038687Y054490D01*
X038847Y054490D01*
X038847Y053241D01*
X038962Y053253D01*
X039090Y053278D01*
X039215Y053316D01*
X039336Y053366D01*
X039451Y053428D01*
X039560Y053500D01*
X039661Y053583D01*
X039753Y053676D01*
X039836Y053777D01*
X039909Y053885D01*
X039970Y054001D01*
X040020Y054121D01*
X040058Y054246D01*
X040084Y054374D01*
X040039Y054183D02*
X040519Y054183D01*
X040519Y054025D02*
X039981Y054025D01*
X039896Y053866D02*
X040519Y053866D01*
X040519Y053708D02*
X039780Y053708D01*
X039620Y053549D02*
X040519Y053549D01*
X040519Y053391D02*
X039382Y053391D01*
X038847Y053391D02*
X038687Y053391D01*
X038687Y053241D02*
X038571Y053253D01*
X038443Y053278D01*
X038318Y053316D01*
X038197Y053366D01*
X038082Y053428D01*
X037973Y053500D01*
X037872Y053583D01*
X037780Y053676D01*
X037697Y053777D01*
X037625Y053885D01*
X037563Y054001D01*
X037513Y054121D01*
X037475Y054246D01*
X037449Y054374D01*
X037438Y054490D01*
X038687Y054490D01*
X038687Y053241D01*
X038687Y053549D02*
X038847Y053549D01*
X038847Y053708D02*
X038687Y053708D01*
X038687Y053866D02*
X038847Y053866D01*
X038847Y054025D02*
X038687Y054025D01*
X038687Y054183D02*
X038847Y054183D01*
X038847Y054342D02*
X038687Y054342D01*
X038687Y054500D02*
X035119Y054500D01*
X035140Y054521D02*
X035207Y054682D01*
X035207Y055457D01*
X035140Y055619D01*
X035016Y055743D01*
X034854Y055810D01*
X034679Y055810D01*
X034517Y055743D01*
X034394Y055619D01*
X034327Y055457D01*
X034327Y054682D01*
X034394Y054521D01*
X034517Y054397D01*
X034679Y054330D01*
X034854Y054330D01*
X035016Y054397D01*
X035140Y054521D01*
X035197Y054659D02*
X037439Y054659D01*
X037460Y054817D02*
X035207Y054817D01*
X035207Y054976D02*
X037500Y054976D01*
X037561Y055134D02*
X035207Y055134D01*
X035207Y055293D02*
X037650Y055293D01*
X037770Y055451D02*
X035207Y055451D01*
X035143Y055610D02*
X037937Y055610D01*
X038188Y055768D02*
X034954Y055768D01*
X034579Y055768D02*
X034035Y055768D01*
X034018Y055780D02*
X033951Y055815D01*
X033879Y055838D01*
X033804Y055850D01*
X033787Y055850D01*
X033787Y055090D01*
X034247Y055090D01*
X034247Y055408D01*
X034235Y055482D01*
X034211Y055554D01*
X034177Y055621D01*
X034133Y055683D01*
X034079Y055736D01*
X034018Y055780D01*
X033787Y055768D02*
X033747Y055768D01*
X033747Y055850D02*
X033729Y055850D01*
X033654Y055838D01*
X033582Y055815D01*
X033515Y055780D01*
X033454Y055736D01*
X033401Y055683D01*
X033356Y055621D01*
X033322Y055554D01*
X033298Y055482D01*
X033287Y055408D01*
X033287Y055090D01*
X033747Y055090D01*
X033747Y055850D01*
X033747Y055610D02*
X033787Y055610D01*
X033787Y055451D02*
X033747Y055451D01*
X033747Y055293D02*
X033787Y055293D01*
X033787Y055134D02*
X033747Y055134D01*
X033747Y055090D02*
X033787Y055090D01*
X033787Y055050D01*
X034247Y055050D01*
X034247Y054732D01*
X034235Y054657D01*
X034211Y054586D01*
X034177Y054518D01*
X034133Y054457D01*
X034079Y054404D01*
X034018Y054359D01*
X033951Y054325D01*
X033879Y054302D01*
X033804Y054290D01*
X033787Y054290D01*
X033787Y055050D01*
X033747Y055050D01*
X033747Y054290D01*
X033729Y054290D01*
X033654Y054302D01*
X033582Y054325D01*
X033515Y054359D01*
X033454Y054404D01*
X033401Y054457D01*
X033356Y054518D01*
X033322Y054586D01*
X033298Y054657D01*
X033287Y054732D01*
X033287Y055050D01*
X033747Y055050D01*
X033747Y055090D01*
X033747Y054976D02*
X033787Y054976D01*
X033787Y054817D02*
X033747Y054817D01*
X033747Y054659D02*
X033787Y054659D01*
X033787Y054500D02*
X033747Y054500D01*
X033747Y054342D02*
X033787Y054342D01*
X033984Y054342D02*
X034650Y054342D01*
X034883Y054342D02*
X037456Y054342D01*
X037494Y054183D02*
X017718Y054183D01*
X017686Y054260D02*
X017537Y054409D01*
X017342Y054490D01*
X017131Y054490D01*
X016936Y054409D01*
X016787Y054260D01*
X016707Y054065D01*
X016707Y053074D01*
X015827Y053074D01*
X015823Y053046D02*
X015837Y053135D01*
X015837Y053520D01*
X015317Y053520D01*
X015317Y053620D01*
X015837Y053620D01*
X015837Y054005D01*
X015823Y054093D01*
X015795Y054179D01*
X015754Y054259D01*
X015701Y054331D01*
X015638Y054395D01*
X015565Y054447D01*
X015485Y054488D01*
X015400Y054516D01*
X015317Y054529D01*
X015317Y053620D01*
X015217Y053620D01*
X015217Y054529D01*
X015133Y054516D01*
X015048Y054488D01*
X014968Y054447D01*
X014895Y054395D01*
X014832Y054331D01*
X014779Y054259D01*
X014738Y054179D01*
X014711Y054093D01*
X014697Y054005D01*
X014697Y053620D01*
X015217Y053620D01*
X015217Y053520D01*
X015317Y053520D01*
X015317Y052611D01*
X015400Y052624D01*
X015485Y052652D01*
X015565Y052692D01*
X015638Y052745D01*
X015701Y052809D01*
X015754Y052881D01*
X015795Y052961D01*
X015823Y053046D01*
X015772Y052915D02*
X016773Y052915D01*
X016787Y052880D02*
X016936Y052731D01*
X017131Y052650D01*
X017342Y052650D01*
X017537Y052731D01*
X017686Y052880D01*
X017767Y053074D01*
X017766Y053074D02*
X040519Y053074D01*
X040519Y053232D02*
X017767Y053232D01*
X017767Y053074D02*
X017767Y054065D01*
X017686Y054260D01*
X017604Y054342D02*
X031650Y054342D01*
X031679Y054330D02*
X031854Y054330D01*
X032016Y054397D01*
X032140Y054521D01*
X032207Y054682D01*
X032207Y055457D01*
X032140Y055619D01*
X032016Y055743D01*
X031854Y055810D01*
X031679Y055810D01*
X031517Y055743D01*
X031394Y055619D01*
X031327Y055457D01*
X031327Y054682D01*
X031394Y054521D01*
X031517Y054397D01*
X031679Y054330D01*
X031883Y054342D02*
X032650Y054342D01*
X032679Y054330D02*
X032854Y054330D01*
X033016Y054397D01*
X033140Y054521D01*
X033207Y054682D01*
X033207Y055457D01*
X033140Y055619D01*
X033016Y055743D01*
X032854Y055810D01*
X032679Y055810D01*
X032517Y055743D01*
X032394Y055619D01*
X032327Y055457D01*
X032327Y054682D01*
X032394Y054521D01*
X032517Y054397D01*
X032679Y054330D01*
X032883Y054342D02*
X033549Y054342D01*
X033369Y054500D02*
X033119Y054500D01*
X033197Y054659D02*
X033298Y054659D01*
X033287Y054817D02*
X033207Y054817D01*
X033207Y054976D02*
X033287Y054976D01*
X033287Y055134D02*
X033207Y055134D01*
X033207Y055293D02*
X033287Y055293D01*
X033294Y055451D02*
X033207Y055451D01*
X033143Y055610D02*
X033350Y055610D01*
X033499Y055768D02*
X032954Y055768D01*
X032579Y055768D02*
X031954Y055768D01*
X032143Y055610D02*
X032390Y055610D01*
X032327Y055451D02*
X032207Y055451D01*
X032207Y055293D02*
X032327Y055293D01*
X032327Y055134D02*
X032207Y055134D01*
X032207Y054976D02*
X032327Y054976D01*
X032327Y054817D02*
X032207Y054817D01*
X032197Y054659D02*
X032336Y054659D01*
X032414Y054500D02*
X032119Y054500D01*
X031414Y054500D02*
X015448Y054500D01*
X015317Y054500D02*
X015217Y054500D01*
X015086Y054500D02*
X005715Y054500D01*
X005740Y054482D02*
X005668Y054535D01*
X005588Y054576D01*
X005503Y054603D01*
X005414Y054617D01*
X005029Y054617D01*
X005029Y054097D01*
X005938Y054097D01*
X005925Y054181D01*
X005897Y054266D01*
X005857Y054346D01*
X005804Y054419D01*
X005740Y054482D01*
X005859Y054342D02*
X012929Y054342D01*
X012996Y054409D02*
X012847Y054260D01*
X012767Y054065D01*
X012767Y053074D01*
X002007Y053074D01*
X002007Y053232D02*
X012767Y053232D01*
X012767Y053074D02*
X012847Y052880D01*
X012996Y052731D01*
X013191Y052650D01*
X013402Y052650D01*
X013597Y052731D01*
X013746Y052880D01*
X013827Y053074D01*
X013826Y053074D02*
X014706Y053074D01*
X014711Y053046D02*
X014738Y052961D01*
X014779Y052881D01*
X014832Y052809D01*
X014895Y052745D01*
X014968Y052692D01*
X015048Y052652D01*
X015133Y052624D01*
X015217Y052611D01*
X015217Y053520D01*
X014697Y053520D01*
X014697Y053135D01*
X014711Y053046D01*
X014762Y052915D02*
X013761Y052915D01*
X013827Y053074D02*
X013827Y054065D01*
X013746Y054260D01*
X013597Y054409D01*
X013402Y054490D01*
X013191Y054490D01*
X012996Y054409D01*
X012816Y054183D02*
X005924Y054183D01*
X005938Y053997D02*
X005029Y053997D01*
X005029Y053477D01*
X005414Y053477D01*
X005503Y053491D01*
X005588Y053519D01*
X005668Y053560D01*
X005740Y053613D01*
X005804Y053676D01*
X005857Y053749D01*
X005897Y053829D01*
X005925Y053914D01*
X005938Y053997D01*
X005910Y053866D02*
X012767Y053866D01*
X012767Y053708D02*
X005827Y053708D01*
X005647Y053549D02*
X012767Y053549D01*
X012767Y053391D02*
X002007Y053391D01*
X002007Y053549D02*
X004311Y053549D01*
X004290Y053560D02*
X004370Y053519D01*
X004456Y053491D01*
X004544Y053477D01*
X004929Y053477D01*
X004929Y053997D01*
X005029Y053997D01*
X005029Y054097D01*
X004929Y054097D01*
X004929Y053997D01*
X004020Y053997D01*
X004033Y053914D01*
X004061Y053829D01*
X004102Y053749D01*
X004154Y053676D01*
X004218Y053613D01*
X004290Y053560D01*
X004131Y053708D02*
X002007Y053708D01*
X002007Y053866D02*
X004049Y053866D01*
X004020Y054097D02*
X004929Y054097D01*
X004929Y054617D01*
X004544Y054617D01*
X004456Y054603D01*
X004370Y054576D01*
X004290Y054535D01*
X004218Y054482D01*
X004154Y054419D01*
X004102Y054346D01*
X004061Y054266D01*
X004033Y054181D01*
X004020Y054097D01*
X004034Y054183D02*
X002007Y054183D01*
X002007Y054025D02*
X004929Y054025D01*
X005029Y054025D02*
X012767Y054025D01*
X013664Y054342D02*
X014843Y054342D01*
X014741Y054183D02*
X013778Y054183D01*
X013827Y054025D02*
X014700Y054025D01*
X014697Y053866D02*
X013827Y053866D01*
X013827Y053708D02*
X014697Y053708D01*
X014697Y053391D02*
X013827Y053391D01*
X013827Y053549D02*
X015217Y053549D01*
X015317Y053549D02*
X016707Y053549D01*
X016707Y053391D02*
X015837Y053391D01*
X015837Y053232D02*
X016707Y053232D01*
X016707Y053074D02*
X016787Y052880D01*
X016910Y052757D02*
X015650Y052757D01*
X015317Y052757D02*
X015217Y052757D01*
X015217Y052915D02*
X015317Y052915D01*
X015317Y053074D02*
X015217Y053074D01*
X015217Y053232D02*
X015317Y053232D01*
X015317Y053391D02*
X015217Y053391D01*
X015217Y053708D02*
X015317Y053708D01*
X015317Y053866D02*
X015217Y053866D01*
X015217Y054025D02*
X015317Y054025D01*
X015317Y054183D02*
X015217Y054183D01*
X015217Y054342D02*
X015317Y054342D01*
X015691Y054342D02*
X016869Y054342D01*
X016756Y054183D02*
X015792Y054183D01*
X015833Y054025D02*
X016707Y054025D01*
X016707Y053866D02*
X015837Y053866D01*
X015837Y053708D02*
X016707Y053708D01*
X017767Y053708D02*
X037753Y053708D01*
X037637Y053866D02*
X017767Y053866D01*
X017767Y054025D02*
X037553Y054025D01*
X037914Y053549D02*
X017767Y053549D01*
X017767Y053391D02*
X038151Y053391D01*
X038084Y052510D02*
X037827Y052252D01*
X037827Y052070D01*
X038267Y052070D01*
X038707Y052070D01*
X038707Y052252D01*
X038449Y052510D01*
X038267Y052510D01*
X038267Y052070D01*
X038267Y052070D01*
X038707Y052070D01*
X038707Y051888D01*
X038449Y051630D01*
X038267Y051630D01*
X038267Y052070D01*
X038267Y052070D01*
X038267Y052070D01*
X038267Y052510D01*
X038084Y052510D01*
X038014Y052440D02*
X037462Y052440D01*
X037432Y052470D02*
X037101Y052470D01*
X036867Y052236D01*
X036867Y051904D01*
X037101Y051670D01*
X037432Y051670D01*
X037667Y051904D01*
X037667Y052236D01*
X037432Y052470D01*
X037621Y052281D02*
X037856Y052281D01*
X037827Y052123D02*
X037667Y052123D01*
X037667Y051964D02*
X037827Y051964D01*
X037827Y051888D02*
X038084Y051630D01*
X038267Y051630D01*
X038267Y052070D01*
X038267Y052070D01*
X037827Y052070D01*
X037827Y051888D01*
X037908Y051806D02*
X037568Y051806D01*
X038067Y051647D02*
X021144Y051647D01*
X021144Y051582D02*
X021144Y051765D01*
X020886Y052022D01*
X020880Y052022D01*
X020931Y052043D01*
X021043Y052156D01*
X021104Y052303D01*
X021104Y052462D01*
X021043Y052609D01*
X020931Y052721D01*
X020784Y052782D01*
X020625Y052782D01*
X020478Y052721D01*
X020365Y052609D01*
X020304Y052462D01*
X020304Y052303D01*
X020365Y052156D01*
X020478Y052043D01*
X020528Y052022D01*
X020522Y052022D01*
X020264Y051765D01*
X020264Y051582D01*
X020264Y051400D01*
X020522Y051142D01*
X020704Y051142D01*
X020704Y051582D01*
X020704Y051582D01*
X020264Y051582D01*
X020704Y051582D01*
X020704Y051582D01*
X020704Y051142D01*
X020886Y051142D01*
X021144Y051400D01*
X021144Y051582D01*
X020704Y051582D01*
X020704Y051582D01*
X021144Y051582D01*
X021144Y051489D02*
X023595Y051489D01*
X023613Y051507D02*
X023379Y051273D01*
X023379Y050942D01*
X023613Y050707D01*
X023945Y050707D01*
X024179Y050942D01*
X024179Y051273D01*
X023945Y051507D01*
X023613Y051507D01*
X023437Y051330D02*
X021074Y051330D01*
X020916Y051172D02*
X023379Y051172D01*
X023379Y051013D02*
X011932Y051013D01*
X011957Y051038D02*
X011957Y051220D01*
X011957Y051402D01*
X011699Y051660D01*
X011517Y051660D01*
X011517Y051220D01*
X011957Y051220D01*
X011517Y051220D01*
X011517Y051220D01*
X011517Y051220D01*
X011517Y050780D01*
X011699Y050780D01*
X011957Y051038D01*
X011957Y051172D02*
X020492Y051172D01*
X020704Y051172D02*
X020704Y051172D01*
X020704Y051330D02*
X020704Y051330D01*
X020704Y051489D02*
X020704Y051489D01*
X020334Y051330D02*
X011957Y051330D01*
X011870Y051489D02*
X020264Y051489D01*
X020264Y051647D02*
X011711Y051647D01*
X011517Y051647D02*
X011517Y051647D01*
X011517Y051660D02*
X011334Y051660D01*
X011077Y051402D01*
X011077Y051396D01*
X011056Y051446D01*
X010943Y051559D01*
X010796Y051620D01*
X010637Y051620D01*
X010490Y051559D01*
X010378Y051446D01*
X010317Y051299D01*
X010317Y051140D01*
X010378Y050993D01*
X010490Y050881D01*
X010637Y050820D01*
X010796Y050820D01*
X010943Y050881D01*
X011056Y050993D01*
X011077Y051044D01*
X011077Y051038D01*
X011334Y050780D01*
X011517Y050780D01*
X011517Y051220D01*
X011517Y051220D01*
X011517Y051660D01*
X011517Y051489D02*
X011517Y051489D01*
X011517Y051330D02*
X011517Y051330D01*
X011517Y051172D02*
X011517Y051172D01*
X011517Y051013D02*
X011517Y051013D01*
X011517Y050855D02*
X011517Y050855D01*
X011774Y050855D02*
X023466Y050855D01*
X024092Y050855D02*
X024491Y050855D01*
X024392Y050954D02*
X024626Y050720D01*
X024957Y050720D01*
X025192Y050954D01*
X025192Y051286D01*
X024957Y051520D01*
X024626Y051520D01*
X024392Y051286D01*
X024392Y050954D01*
X024392Y051013D02*
X024179Y051013D01*
X024179Y051172D02*
X024392Y051172D01*
X024437Y051330D02*
X024122Y051330D01*
X023963Y051489D02*
X024595Y051489D01*
X024988Y051489D02*
X040519Y051489D01*
X040519Y051647D02*
X038466Y051647D01*
X038267Y051647D02*
X038267Y051647D01*
X038267Y051806D02*
X038267Y051806D01*
X038267Y051964D02*
X038267Y051964D01*
X038267Y052123D02*
X038267Y052123D01*
X038267Y052281D02*
X038267Y052281D01*
X038267Y052440D02*
X038267Y052440D01*
X038519Y052440D02*
X040519Y052440D01*
X040519Y052598D02*
X021048Y052598D01*
X021104Y052440D02*
X031571Y052440D01*
X031601Y052470D02*
X031367Y052236D01*
X031367Y051904D01*
X031601Y051670D01*
X031932Y051670D01*
X032167Y051904D01*
X032167Y052236D01*
X031932Y052470D01*
X031601Y052470D01*
X031413Y052281D02*
X021095Y052281D01*
X021010Y052123D02*
X031367Y052123D01*
X031367Y051964D02*
X020944Y051964D01*
X021103Y051806D02*
X031465Y051806D01*
X032068Y051806D02*
X035465Y051806D01*
X035367Y051904D02*
X035601Y051670D01*
X035932Y051670D01*
X036167Y051904D01*
X036167Y052236D01*
X035932Y052470D01*
X035601Y052470D01*
X035367Y052236D01*
X035367Y051904D01*
X035367Y051964D02*
X032167Y051964D01*
X032167Y052123D02*
X035367Y052123D01*
X035413Y052281D02*
X032121Y052281D01*
X031962Y052440D02*
X035571Y052440D01*
X035962Y052440D02*
X037071Y052440D01*
X036913Y052281D02*
X036121Y052281D01*
X036167Y052123D02*
X036867Y052123D01*
X036867Y051964D02*
X036167Y051964D01*
X036068Y051806D02*
X036965Y051806D01*
X038084Y050510D02*
X037827Y050252D01*
X037827Y050070D01*
X038267Y050070D01*
X038707Y050070D01*
X038707Y050252D01*
X038449Y050510D01*
X038267Y050510D01*
X038267Y050070D01*
X038267Y050070D01*
X038707Y050070D01*
X038707Y049888D01*
X038449Y049630D01*
X038267Y049630D01*
X038267Y050070D01*
X038267Y050070D01*
X038267Y050070D01*
X038267Y050510D01*
X038084Y050510D01*
X037954Y050379D02*
X037523Y050379D01*
X037432Y050470D02*
X037101Y050470D01*
X036867Y050236D01*
X036867Y049904D01*
X036166Y049904D01*
X036167Y049904D02*
X035932Y049670D01*
X035601Y049670D01*
X035367Y049904D01*
X032166Y049904D01*
X032167Y049904D02*
X031932Y049670D01*
X031601Y049670D01*
X031367Y049904D01*
X018974Y049904D01*
X019007Y049982D02*
X018940Y049821D01*
X018816Y049697D01*
X018654Y049630D01*
X017879Y049630D01*
X017717Y049697D01*
X017594Y049821D01*
X017527Y049982D01*
X017527Y050157D01*
X017594Y050319D01*
X017717Y050443D01*
X017879Y050510D01*
X018654Y050510D01*
X018816Y050443D01*
X018940Y050319D01*
X019007Y050157D01*
X019007Y049982D01*
X019007Y050062D02*
X031367Y050062D01*
X031367Y049904D02*
X031367Y050236D01*
X031601Y050470D01*
X031932Y050470D01*
X032167Y050236D01*
X032167Y049904D01*
X032167Y050062D02*
X035367Y050062D01*
X035367Y049904D02*
X035367Y050236D01*
X035601Y050470D01*
X035932Y050470D01*
X036167Y050236D01*
X036167Y049904D01*
X036167Y050062D02*
X036867Y050062D01*
X036867Y049904D02*
X037101Y049670D01*
X037432Y049670D01*
X037667Y049904D01*
X037667Y050236D01*
X037432Y050470D01*
X037667Y050221D02*
X037827Y050221D01*
X037827Y050070D02*
X037827Y049888D01*
X038084Y049630D01*
X038267Y049630D01*
X038267Y050070D01*
X038267Y050070D01*
X037827Y050070D01*
X037827Y050062D02*
X037667Y050062D01*
X037666Y049904D02*
X037827Y049904D01*
X037969Y049745D02*
X037508Y049745D01*
X037025Y049745D02*
X036008Y049745D01*
X035525Y049745D02*
X032008Y049745D01*
X031525Y049745D02*
X018864Y049745D01*
X018751Y049515D02*
X018679Y049538D01*
X018604Y049550D01*
X018287Y049550D01*
X018287Y049090D01*
X019047Y049090D01*
X019047Y049108D01*
X019035Y049182D01*
X019011Y049254D01*
X018977Y049321D01*
X018933Y049383D01*
X018879Y049436D01*
X018818Y049480D01*
X018751Y049515D01*
X018887Y049428D02*
X040519Y049428D01*
X040519Y049270D02*
X019003Y049270D01*
X019046Y049111D02*
X021036Y049111D01*
X021147Y049222D02*
X020889Y048965D01*
X020889Y048782D01*
X020889Y048600D01*
X021147Y048342D01*
X021153Y048342D01*
X021103Y048321D01*
X020990Y048209D01*
X020929Y048062D01*
X020929Y047903D01*
X020990Y047756D01*
X021103Y047643D01*
X021250Y047582D01*
X021409Y047582D01*
X021556Y047643D01*
X021668Y047756D01*
X021729Y047903D01*
X021729Y048062D01*
X021668Y048209D01*
X021556Y048321D01*
X021505Y048342D01*
X021511Y048342D01*
X021769Y048600D01*
X021769Y048782D01*
X021329Y048782D01*
X020889Y048782D01*
X021329Y048782D01*
X021329Y048782D01*
X021329Y048782D01*
X021329Y049222D01*
X021147Y049222D01*
X021329Y049222D02*
X021329Y048782D01*
X021329Y048782D01*
X021769Y048782D01*
X021769Y048965D01*
X021511Y049222D01*
X021329Y049222D01*
X021329Y049111D02*
X021329Y049111D01*
X021329Y048953D02*
X021329Y048953D01*
X021329Y048794D02*
X021329Y048794D01*
X021622Y049111D02*
X040519Y049111D01*
X040519Y048953D02*
X021769Y048953D01*
X021769Y048794D02*
X040519Y048794D01*
X040519Y048636D02*
X021769Y048636D01*
X021646Y048477D02*
X038052Y048477D01*
X038084Y048510D02*
X037827Y048252D01*
X037827Y048070D01*
X038267Y048070D01*
X038707Y048070D01*
X038707Y048252D01*
X038449Y048510D01*
X038267Y048510D01*
X038267Y048070D01*
X038267Y048070D01*
X038707Y048070D01*
X038707Y047888D01*
X038449Y047630D01*
X038267Y047630D01*
X038267Y048070D01*
X038267Y048070D01*
X038267Y048070D01*
X038267Y048510D01*
X038084Y048510D01*
X038267Y048477D02*
X038267Y048477D01*
X038267Y048319D02*
X038267Y048319D01*
X038267Y048160D02*
X038267Y048160D01*
X038267Y048070D02*
X038267Y048070D01*
X038267Y047630D01*
X038084Y047630D01*
X037827Y047888D01*
X037827Y048070D01*
X038267Y048070D01*
X038267Y048002D02*
X038267Y048002D01*
X038267Y047843D02*
X038267Y047843D01*
X038267Y047685D02*
X038267Y047685D01*
X038504Y047685D02*
X040519Y047685D01*
X040519Y047843D02*
X038662Y047843D01*
X038707Y048002D02*
X040519Y048002D01*
X040519Y048160D02*
X038707Y048160D01*
X038640Y048319D02*
X040519Y048319D01*
X040519Y048477D02*
X038481Y048477D01*
X037893Y048319D02*
X037583Y048319D01*
X037667Y048236D02*
X037432Y048470D01*
X037101Y048470D01*
X036867Y048236D01*
X036867Y047904D01*
X037101Y047670D01*
X037432Y047670D01*
X037667Y047904D01*
X037667Y048236D01*
X037667Y048160D02*
X037827Y048160D01*
X037827Y048002D02*
X037667Y048002D01*
X037606Y047843D02*
X037871Y047843D01*
X038029Y047685D02*
X037447Y047685D01*
X037086Y047685D02*
X035947Y047685D01*
X035932Y047670D02*
X036167Y047904D01*
X036167Y048236D01*
X035932Y048470D01*
X035601Y048470D01*
X035367Y048236D01*
X035367Y047904D01*
X035601Y047670D01*
X035932Y047670D01*
X036106Y047843D02*
X036927Y047843D01*
X036867Y048002D02*
X036167Y048002D01*
X036167Y048160D02*
X036867Y048160D01*
X036950Y048319D02*
X036083Y048319D01*
X035450Y048319D02*
X032083Y048319D01*
X032167Y048236D02*
X031932Y048470D01*
X031601Y048470D01*
X031367Y048236D01*
X031367Y047904D01*
X031601Y047670D01*
X031932Y047670D01*
X032167Y047904D01*
X032167Y048236D01*
X032167Y048160D02*
X035367Y048160D01*
X035367Y048002D02*
X032167Y048002D01*
X032106Y047843D02*
X035427Y047843D01*
X035586Y047685D02*
X031947Y047685D01*
X031586Y047685D02*
X021597Y047685D01*
X021705Y047843D02*
X031427Y047843D01*
X031367Y048002D02*
X021729Y048002D01*
X021688Y048160D02*
X031367Y048160D01*
X031450Y048319D02*
X021558Y048319D01*
X021100Y048319D02*
X018940Y048319D01*
X018816Y048443D01*
X018654Y048510D01*
X017879Y048510D01*
X017717Y048443D01*
X017594Y048319D01*
X017527Y048157D01*
X017527Y047982D01*
X017594Y047821D01*
X017717Y047697D01*
X017879Y047630D01*
X018654Y047630D01*
X018816Y047697D01*
X018940Y047821D01*
X019007Y047982D01*
X019007Y048157D01*
X018940Y048319D01*
X019005Y048160D02*
X020970Y048160D01*
X020929Y048002D02*
X019007Y048002D01*
X018949Y047843D02*
X020954Y047843D01*
X021061Y047685D02*
X018787Y047685D01*
X018733Y048477D02*
X021012Y048477D01*
X020889Y048636D02*
X018772Y048636D01*
X018751Y048625D02*
X018818Y048659D01*
X018879Y048704D01*
X018933Y048757D01*
X018977Y048818D01*
X019011Y048886D01*
X019035Y048957D01*
X019047Y049032D01*
X019047Y049050D01*
X018287Y049050D01*
X018287Y049090D01*
X018247Y049090D01*
X018247Y049550D01*
X017929Y049550D01*
X017854Y049538D01*
X017782Y049515D01*
X017715Y049480D01*
X017654Y049436D01*
X017601Y049383D01*
X017556Y049321D01*
X017522Y049254D01*
X017498Y049182D01*
X017487Y049108D01*
X017487Y049090D01*
X018247Y049090D01*
X018247Y049050D01*
X018287Y049050D01*
X018287Y048590D01*
X018604Y048590D01*
X018679Y048602D01*
X018751Y048625D01*
X018960Y048794D02*
X020889Y048794D01*
X020889Y048953D02*
X019033Y048953D01*
X018287Y048953D02*
X018247Y048953D01*
X018247Y049050D02*
X018247Y048590D01*
X017929Y048590D01*
X017854Y048602D01*
X017782Y048625D01*
X017715Y048659D01*
X017654Y048704D01*
X017601Y048757D01*
X017556Y048818D01*
X017522Y048886D01*
X017498Y048957D01*
X017487Y049032D01*
X017487Y049050D01*
X018247Y049050D01*
X018247Y049111D02*
X018287Y049111D01*
X018287Y049270D02*
X018247Y049270D01*
X018247Y049428D02*
X018287Y049428D01*
X017646Y049428D02*
X011768Y049428D01*
X011699Y049497D02*
X011517Y049497D01*
X011517Y049057D01*
X011517Y049057D01*
X011957Y049057D01*
X011957Y048875D01*
X011699Y048617D01*
X011517Y048617D01*
X011517Y049057D01*
X011517Y049057D01*
X011957Y049057D01*
X011957Y049240D01*
X011699Y049497D01*
X011517Y049497D02*
X011334Y049497D01*
X011077Y049240D01*
X011077Y049234D01*
X011056Y049284D01*
X010943Y049396D01*
X010796Y049457D01*
X010637Y049457D01*
X010490Y049396D01*
X010378Y049284D01*
X010317Y049137D01*
X010317Y048978D01*
X010378Y048831D01*
X010490Y048718D01*
X010637Y048657D01*
X010796Y048657D01*
X010943Y048718D01*
X011056Y048831D01*
X011077Y048881D01*
X011077Y048875D01*
X011334Y048617D01*
X011517Y048617D01*
X011517Y049057D01*
X011517Y049057D01*
X011517Y049497D01*
X011517Y049428D02*
X011517Y049428D01*
X011517Y049270D02*
X011517Y049270D01*
X011517Y049111D02*
X011517Y049111D01*
X011517Y048953D02*
X011517Y048953D01*
X011517Y048794D02*
X011517Y048794D01*
X011517Y048636D02*
X011517Y048636D01*
X011717Y048636D02*
X017761Y048636D01*
X017801Y048477D02*
X002007Y048477D01*
X002007Y048319D02*
X017594Y048319D01*
X017528Y048160D02*
X005763Y048160D01*
X005694Y048229D02*
X005843Y048080D01*
X005924Y047885D01*
X005924Y047674D01*
X005843Y047480D01*
X005694Y047331D01*
X005500Y047250D01*
X004509Y047250D01*
X004314Y047331D01*
X004165Y047480D01*
X004084Y047674D01*
X004084Y047885D01*
X004165Y048080D01*
X004314Y048229D01*
X004509Y048310D01*
X005500Y048310D01*
X005694Y048229D01*
X005876Y048002D02*
X017527Y048002D01*
X017584Y047843D02*
X005924Y047843D01*
X005924Y047685D02*
X017746Y047685D01*
X018247Y048636D02*
X018287Y048636D01*
X018287Y048794D02*
X018247Y048794D01*
X017573Y048794D02*
X011876Y048794D01*
X011957Y048953D02*
X017500Y048953D01*
X017487Y049111D02*
X011957Y049111D01*
X011926Y049270D02*
X017530Y049270D01*
X017669Y049745D02*
X005054Y049745D01*
X005054Y049710D02*
X005054Y049810D01*
X004954Y049810D01*
X004954Y049710D01*
X004045Y049710D01*
X004058Y049626D01*
X004086Y049541D01*
X004127Y049461D01*
X004179Y049389D01*
X004243Y049325D01*
X004315Y049272D01*
X004395Y049232D01*
X004481Y049204D01*
X004569Y049190D01*
X004954Y049190D01*
X004954Y049710D01*
X005054Y049710D01*
X005054Y049190D01*
X005439Y049190D01*
X005528Y049204D01*
X005613Y049232D01*
X005693Y049272D01*
X005765Y049325D01*
X005829Y049389D01*
X005882Y049461D01*
X005922Y049541D01*
X005950Y049626D01*
X005963Y049710D01*
X005054Y049710D01*
X005054Y049810D02*
X005963Y049810D01*
X005950Y049893D01*
X005922Y049979D01*
X005882Y050059D01*
X005829Y050131D01*
X005765Y050195D01*
X005693Y050247D01*
X005613Y050288D01*
X005528Y050316D01*
X005439Y050330D01*
X005054Y050330D01*
X005054Y049810D01*
X005054Y049904D02*
X004954Y049904D01*
X004954Y049810D02*
X004954Y050330D01*
X004569Y050330D01*
X004481Y050316D01*
X004395Y050288D01*
X004315Y050247D01*
X004243Y050195D01*
X004179Y050131D01*
X004127Y050059D01*
X004086Y049979D01*
X004058Y049893D01*
X004045Y049810D01*
X004954Y049810D01*
X004954Y049745D02*
X002007Y049745D01*
X002007Y049587D02*
X004071Y049587D01*
X004150Y049428D02*
X002007Y049428D01*
X002007Y049270D02*
X004320Y049270D01*
X004954Y049270D02*
X005054Y049270D01*
X005054Y049428D02*
X004954Y049428D01*
X004954Y049587D02*
X005054Y049587D01*
X005054Y050062D02*
X004954Y050062D01*
X004954Y050221D02*
X005054Y050221D01*
X005729Y050221D02*
X017553Y050221D01*
X017527Y050062D02*
X005879Y050062D01*
X005947Y049904D02*
X017559Y049904D01*
X017654Y050379D02*
X002007Y050379D01*
X002007Y050221D02*
X004279Y050221D01*
X004129Y050062D02*
X002007Y050062D01*
X002007Y049904D02*
X004062Y049904D01*
X005688Y049270D02*
X010372Y049270D01*
X010317Y049111D02*
X002007Y049111D01*
X002007Y048953D02*
X010327Y048953D01*
X010414Y048794D02*
X002007Y048794D01*
X002007Y048636D02*
X011316Y048636D01*
X011157Y048794D02*
X011019Y048794D01*
X011062Y049270D02*
X011107Y049270D01*
X011265Y049428D02*
X010866Y049428D01*
X010567Y049428D02*
X005858Y049428D01*
X005937Y049587D02*
X040519Y049587D01*
X040519Y049745D02*
X038564Y049745D01*
X038707Y049904D02*
X040519Y049904D01*
X040519Y050062D02*
X038707Y050062D01*
X038707Y050221D02*
X040519Y050221D01*
X040519Y050379D02*
X038579Y050379D01*
X038267Y050379D02*
X038267Y050379D01*
X038267Y050221D02*
X038267Y050221D01*
X038267Y050062D02*
X038267Y050062D01*
X038267Y049904D02*
X038267Y049904D01*
X038267Y049745D02*
X038267Y049745D01*
X037011Y050379D02*
X036023Y050379D01*
X036167Y050221D02*
X036867Y050221D01*
X035511Y050379D02*
X032023Y050379D01*
X032167Y050221D02*
X035367Y050221D01*
X038625Y051806D02*
X040519Y051806D01*
X040519Y051964D02*
X038707Y051964D01*
X038707Y052123D02*
X040519Y052123D01*
X040519Y052281D02*
X038677Y052281D01*
X040519Y052757D02*
X020845Y052757D01*
X020563Y052757D02*
X017563Y052757D01*
X017701Y052915D02*
X040519Y052915D01*
X040519Y051330D02*
X027072Y051330D01*
X027167Y051236D02*
X026932Y051470D01*
X026601Y051470D01*
X026367Y051236D01*
X026367Y050904D01*
X026601Y050670D01*
X026932Y050670D01*
X027167Y050904D01*
X027167Y051236D01*
X027167Y051172D02*
X040519Y051172D01*
X040519Y051013D02*
X027167Y051013D01*
X027117Y050855D02*
X040519Y050855D01*
X040519Y050696D02*
X026959Y050696D01*
X026574Y050696D02*
X025959Y050696D01*
X025932Y050670D02*
X026167Y050904D01*
X026167Y051236D01*
X025932Y051470D01*
X025601Y051470D01*
X025367Y051236D01*
X025367Y050904D01*
X025601Y050670D01*
X025932Y050670D01*
X026117Y050855D02*
X026416Y050855D01*
X026367Y051013D02*
X026167Y051013D01*
X026167Y051172D02*
X026367Y051172D01*
X026462Y051330D02*
X026072Y051330D01*
X025462Y051330D02*
X025147Y051330D01*
X025192Y051172D02*
X025367Y051172D01*
X025367Y051013D02*
X025192Y051013D01*
X025092Y050855D02*
X025416Y050855D01*
X025574Y050696D02*
X002007Y050696D01*
X002007Y050538D02*
X040519Y050538D01*
X040519Y047526D02*
X005863Y047526D01*
X005732Y047368D02*
X023474Y047368D01*
X023379Y047273D02*
X023379Y046942D01*
X023613Y046707D01*
X023945Y046707D01*
X024179Y046942D01*
X024179Y047273D01*
X023945Y047507D01*
X023613Y047507D01*
X023379Y047273D01*
X023379Y047209D02*
X002007Y047209D01*
X002007Y047051D02*
X023379Y047051D01*
X023428Y046892D02*
X002007Y046892D01*
X002007Y046734D02*
X023587Y046734D01*
X023971Y046734D02*
X024612Y046734D01*
X024626Y046720D02*
X024957Y046720D01*
X025192Y046954D01*
X025192Y047286D01*
X024957Y047520D01*
X024626Y047520D01*
X024392Y047286D01*
X024392Y046954D01*
X024626Y046720D01*
X024453Y046892D02*
X024130Y046892D01*
X024179Y047051D02*
X024392Y047051D01*
X024392Y047209D02*
X024179Y047209D01*
X024084Y047368D02*
X024474Y047368D01*
X025109Y047368D02*
X025499Y047368D01*
X025601Y047470D02*
X025367Y047236D01*
X025367Y046904D01*
X025601Y046670D01*
X025932Y046670D01*
X026167Y046904D01*
X026167Y047236D01*
X025932Y047470D01*
X025601Y047470D01*
X025367Y047209D02*
X025192Y047209D01*
X025192Y047051D02*
X025367Y047051D01*
X025378Y046892D02*
X025130Y046892D01*
X024971Y046734D02*
X025537Y046734D01*
X025996Y046734D02*
X026537Y046734D01*
X026601Y046670D02*
X026932Y046670D01*
X027167Y046904D01*
X027167Y047236D01*
X026932Y047470D01*
X026601Y047470D01*
X026367Y047236D01*
X026367Y046904D01*
X026601Y046670D01*
X026378Y046892D02*
X026155Y046892D01*
X026167Y047051D02*
X026367Y047051D01*
X026367Y047209D02*
X026167Y047209D01*
X026034Y047368D02*
X026499Y047368D01*
X027034Y047368D02*
X040519Y047368D01*
X040519Y047209D02*
X027167Y047209D01*
X027167Y047051D02*
X040519Y047051D01*
X040519Y046892D02*
X027155Y046892D01*
X026996Y046734D02*
X040519Y046734D01*
X040519Y046575D02*
X002007Y046575D01*
X002007Y046417D02*
X040519Y046417D01*
X040519Y046258D02*
X002007Y046258D01*
X002007Y046100D02*
X040519Y046100D01*
X040519Y045941D02*
X002007Y045941D01*
X002007Y045783D02*
X040519Y045783D01*
X040519Y045624D02*
X002007Y045624D01*
X002007Y045466D02*
X040519Y045466D01*
X040519Y045307D02*
X037561Y045307D01*
X037586Y045283D02*
X037480Y045389D01*
X037342Y045446D01*
X037192Y045446D01*
X037054Y045389D01*
X036948Y045283D01*
X036942Y045270D01*
X024591Y045270D01*
X024586Y045283D01*
X024480Y045389D01*
X024342Y045446D01*
X024192Y045446D01*
X024054Y045389D01*
X023948Y045283D01*
X023942Y045270D01*
X016591Y045270D01*
X016586Y045283D01*
X016480Y045389D01*
X016342Y045446D01*
X016192Y045446D01*
X016054Y045389D01*
X015948Y045283D01*
X015890Y045145D01*
X015890Y044995D01*
X015948Y044857D01*
X016054Y044751D01*
X016192Y044694D01*
X016342Y044694D01*
X016480Y044751D01*
X016586Y044857D01*
X016591Y044870D01*
X023942Y044870D01*
X023948Y044857D01*
X024054Y044751D01*
X024192Y044694D01*
X024342Y044694D01*
X024480Y044751D01*
X024586Y044857D01*
X024591Y044870D01*
X036942Y044870D01*
X036948Y044857D01*
X037054Y044751D01*
X037192Y044694D01*
X037342Y044694D01*
X037480Y044751D01*
X037586Y044857D01*
X037643Y044995D01*
X037643Y045145D01*
X037586Y045283D01*
X037641Y045149D02*
X040519Y045149D01*
X040519Y044990D02*
X037641Y044990D01*
X037561Y044832D02*
X040519Y044832D01*
X040519Y044673D02*
X003470Y044673D01*
X003492Y044664D02*
X003346Y044725D01*
X003188Y044725D01*
X003042Y044664D01*
X002930Y044553D01*
X002869Y044406D01*
X002869Y043733D01*
X002930Y043587D01*
X003042Y043475D01*
X003188Y043415D01*
X003346Y043415D01*
X003492Y043475D01*
X003604Y043587D01*
X003664Y043733D01*
X003664Y044406D01*
X003604Y044553D01*
X003492Y044664D01*
X003619Y044515D02*
X040519Y044515D01*
X040519Y044356D02*
X038599Y044356D01*
X038600Y044355D02*
X038552Y044404D01*
X038496Y044444D01*
X038435Y044475D01*
X038369Y044497D01*
X038301Y044507D01*
X038267Y044507D01*
X038267Y044070D01*
X038704Y044070D01*
X038704Y044104D01*
X038693Y044172D01*
X038672Y044238D01*
X038641Y044299D01*
X038600Y044355D01*
X038685Y044198D02*
X040519Y044198D01*
X040519Y044039D02*
X038704Y044039D01*
X038704Y044035D02*
X038704Y044070D01*
X038267Y044070D01*
X038267Y044070D01*
X038267Y044070D01*
X038267Y043632D01*
X038301Y043632D01*
X038369Y043643D01*
X038435Y043664D01*
X038496Y043696D01*
X038552Y043736D01*
X038600Y043785D01*
X038641Y043841D01*
X038672Y043902D01*
X038693Y043967D01*
X038704Y044035D01*
X038661Y043881D02*
X040519Y043881D01*
X040519Y043722D02*
X038533Y043722D01*
X038435Y043475D02*
X038369Y043497D01*
X038301Y043507D01*
X038267Y043507D01*
X038267Y043070D01*
X038704Y043070D01*
X038704Y043104D01*
X038693Y043172D01*
X038672Y043238D01*
X038641Y043299D01*
X038600Y043355D01*
X038552Y043404D01*
X038496Y043444D01*
X038435Y043475D01*
X038549Y043405D02*
X040519Y043405D01*
X040519Y043247D02*
X038667Y043247D01*
X038704Y043088D02*
X040519Y043088D01*
X040519Y042930D02*
X038681Y042930D01*
X038672Y042902D02*
X038693Y042967D01*
X038704Y043035D01*
X038704Y043070D01*
X038267Y043070D01*
X038267Y043070D01*
X038267Y043070D01*
X038267Y042632D01*
X038301Y042632D01*
X038369Y042643D01*
X038435Y042664D01*
X038496Y042696D01*
X038552Y042736D01*
X038600Y042785D01*
X038641Y042841D01*
X038672Y042902D01*
X038587Y042771D02*
X040519Y042771D01*
X040519Y042613D02*
X002007Y042613D01*
X002007Y042771D02*
X013834Y042771D01*
X013829Y042789D02*
X013841Y042743D01*
X013865Y042702D01*
X013899Y042668D01*
X013940Y042645D01*
X013985Y042632D01*
X014267Y042632D01*
X014548Y042632D01*
X014594Y042645D01*
X014635Y042668D01*
X014668Y042702D01*
X014692Y042743D01*
X014704Y042789D01*
X014704Y043070D01*
X014704Y043351D01*
X014692Y043397D01*
X014668Y043438D01*
X014635Y043471D01*
X014594Y043495D01*
X014548Y043507D01*
X014267Y043507D01*
X014267Y043070D01*
X014704Y043070D01*
X014267Y043070D01*
X014267Y043070D01*
X014267Y043070D01*
X014267Y042632D01*
X014267Y043070D01*
X014267Y043070D01*
X014267Y043507D01*
X013985Y043507D01*
X013940Y043495D01*
X013899Y043471D01*
X013865Y043438D01*
X013841Y043397D01*
X013829Y043351D01*
X013829Y043070D01*
X014267Y043070D01*
X014267Y043070D01*
X013829Y043070D01*
X013829Y042789D01*
X013829Y042930D02*
X002007Y042930D01*
X002007Y043088D02*
X013829Y043088D01*
X013829Y043247D02*
X002007Y043247D01*
X002007Y043405D02*
X013846Y043405D01*
X014037Y043696D02*
X014099Y043664D01*
X014164Y043643D01*
X014232Y043632D01*
X014267Y043632D01*
X014301Y043632D01*
X014369Y043643D01*
X014435Y043664D01*
X014496Y043696D01*
X014552Y043736D01*
X014600Y043785D01*
X014641Y043841D01*
X014672Y043902D01*
X014693Y043967D01*
X014704Y044035D01*
X014704Y044070D01*
X014704Y044104D01*
X014693Y044172D01*
X014672Y044238D01*
X014641Y044299D01*
X014600Y044355D01*
X014552Y044404D01*
X014496Y044444D01*
X014435Y044475D01*
X014369Y044497D01*
X014301Y044507D01*
X014267Y044507D01*
X014267Y044070D01*
X014704Y044070D01*
X014267Y044070D01*
X014267Y044070D01*
X014267Y044070D01*
X014267Y043632D01*
X014267Y044070D01*
X014267Y044070D01*
X014267Y044507D01*
X014232Y044507D01*
X014164Y044497D01*
X014099Y044475D01*
X014037Y044444D01*
X013982Y044404D01*
X013933Y044355D01*
X013892Y044299D01*
X013861Y044238D01*
X013840Y044172D01*
X013829Y044104D01*
X013829Y044070D01*
X014267Y044070D01*
X014267Y044070D01*
X013829Y044070D01*
X013829Y044035D01*
X013840Y043967D01*
X013861Y043902D01*
X013892Y043841D01*
X013933Y043785D01*
X013982Y043736D01*
X014037Y043696D01*
X014001Y043722D02*
X003660Y043722D01*
X003664Y043881D02*
X013872Y043881D01*
X013829Y044039D02*
X003664Y044039D01*
X003664Y044198D02*
X013848Y044198D01*
X013935Y044356D02*
X003664Y044356D01*
X003063Y044673D02*
X002470Y044673D01*
X002492Y044664D02*
X002346Y044725D01*
X002188Y044725D01*
X002042Y044664D01*
X002007Y044629D01*
X002007Y056200D01*
X040519Y056200D01*
X040519Y017810D01*
X002007Y017810D01*
X002007Y022510D01*
X002042Y022475D01*
X002188Y022415D01*
X002346Y022415D01*
X002492Y022475D01*
X002604Y022587D01*
X002664Y022733D01*
X002664Y023406D01*
X002604Y023553D01*
X002492Y023664D01*
X002346Y023725D01*
X002188Y023725D01*
X002042Y023664D01*
X002007Y023629D01*
X002007Y043510D01*
X002042Y043475D01*
X002188Y043415D01*
X002346Y043415D01*
X002492Y043475D01*
X002604Y043587D01*
X002664Y043733D01*
X002664Y044406D01*
X002604Y044553D01*
X002492Y044664D01*
X002619Y044515D02*
X002914Y044515D01*
X002869Y044356D02*
X002664Y044356D01*
X002664Y044198D02*
X002869Y044198D01*
X002869Y044039D02*
X002664Y044039D01*
X002664Y043881D02*
X002869Y043881D01*
X002874Y043722D02*
X002660Y043722D01*
X002580Y043564D02*
X002953Y043564D01*
X003580Y043564D02*
X040519Y043564D01*
X040519Y042454D02*
X002007Y042454D01*
X002007Y042296D02*
X040519Y042296D01*
X040519Y042137D02*
X002007Y042137D01*
X002007Y041979D02*
X040519Y041979D01*
X040519Y041820D02*
X002007Y041820D01*
X002007Y041662D02*
X040519Y041662D01*
X040519Y041503D02*
X002007Y041503D01*
X002007Y041345D02*
X040519Y041345D01*
X040519Y041186D02*
X029897Y041186D01*
X029886Y041197D02*
X029704Y041197D01*
X029522Y041197D01*
X029264Y040940D01*
X029264Y040934D01*
X029243Y040984D01*
X029131Y041096D01*
X028984Y041157D01*
X028825Y041157D01*
X028678Y041096D01*
X028565Y040984D01*
X028504Y040837D01*
X028504Y040678D01*
X028565Y040531D01*
X028678Y040418D01*
X028825Y040357D01*
X028984Y040357D01*
X029131Y040418D01*
X029243Y040531D01*
X029264Y040581D01*
X029264Y040575D01*
X029522Y040317D01*
X029704Y040317D01*
X029704Y040757D01*
X029704Y040757D01*
X029704Y040317D01*
X029886Y040317D01*
X030144Y040575D01*
X030144Y040757D01*
X029704Y040757D01*
X029704Y040757D01*
X030144Y040757D01*
X030144Y040940D01*
X029886Y041197D01*
X029704Y041197D02*
X029704Y040757D01*
X029704Y041197D01*
X029704Y041186D02*
X029704Y041186D01*
X029704Y041028D02*
X029704Y041028D01*
X029704Y040869D02*
X029704Y040869D01*
X029704Y040757D02*
X029704Y040757D01*
X029704Y040711D02*
X029704Y040711D01*
X029704Y040552D02*
X029704Y040552D01*
X029704Y040394D02*
X029704Y040394D01*
X029445Y040394D02*
X029072Y040394D01*
X029252Y040552D02*
X029287Y040552D01*
X029352Y041028D02*
X029199Y041028D01*
X029511Y041186D02*
X002007Y041186D01*
X002007Y041028D02*
X028609Y041028D01*
X028518Y040869D02*
X002007Y040869D01*
X002007Y040711D02*
X028504Y040711D01*
X028556Y040552D02*
X002007Y040552D01*
X002007Y040394D02*
X028736Y040394D01*
X029963Y040394D02*
X040519Y040394D01*
X040519Y040552D02*
X030121Y040552D01*
X030144Y040711D02*
X040519Y040711D01*
X040519Y040869D02*
X030144Y040869D01*
X030056Y041028D02*
X040519Y041028D01*
X040519Y040235D02*
X002007Y040235D01*
X002007Y040077D02*
X040519Y040077D01*
X040519Y039918D02*
X002007Y039918D01*
X002007Y039760D02*
X040519Y039760D01*
X040519Y039601D02*
X002007Y039601D01*
X002007Y039443D02*
X040519Y039443D01*
X040519Y039284D02*
X002007Y039284D01*
X002007Y039126D02*
X040519Y039126D01*
X040519Y038967D02*
X002007Y038967D01*
X002007Y038809D02*
X040519Y038809D01*
X040519Y038650D02*
X002007Y038650D01*
X002007Y038492D02*
X040519Y038492D01*
X040519Y038333D02*
X002007Y038333D01*
X002007Y038175D02*
X040519Y038175D01*
X040519Y038016D02*
X002007Y038016D01*
X002007Y037858D02*
X040519Y037858D01*
X040519Y037699D02*
X002007Y037699D01*
X002007Y037541D02*
X040519Y037541D01*
X040519Y037382D02*
X002007Y037382D01*
X002007Y037224D02*
X040519Y037224D01*
X040519Y037065D02*
X002007Y037065D01*
X002007Y036907D02*
X040519Y036907D01*
X040519Y036748D02*
X002007Y036748D01*
X002007Y036590D02*
X040519Y036590D01*
X040519Y036431D02*
X002007Y036431D01*
X002007Y036273D02*
X040519Y036273D01*
X040519Y036114D02*
X002007Y036114D01*
X002007Y035956D02*
X040519Y035956D01*
X040519Y035797D02*
X002007Y035797D01*
X002007Y035639D02*
X040519Y035639D01*
X040519Y035480D02*
X002007Y035480D01*
X002007Y035322D02*
X040519Y035322D01*
X040519Y035163D02*
X002007Y035163D01*
X002007Y035005D02*
X040519Y035005D01*
X040519Y034846D02*
X002007Y034846D01*
X002007Y034688D02*
X040519Y034688D01*
X040519Y034529D02*
X037539Y034529D01*
X037586Y034483D02*
X037480Y034589D01*
X037342Y034646D01*
X037192Y034646D01*
X037054Y034589D01*
X036948Y034483D01*
X036942Y034470D01*
X028791Y034470D01*
X028786Y034483D01*
X028680Y034589D01*
X028542Y034646D01*
X028392Y034646D01*
X028254Y034589D01*
X028148Y034483D01*
X028090Y034345D01*
X028090Y034195D01*
X028148Y034057D01*
X028254Y033951D01*
X028392Y033894D01*
X028542Y033894D01*
X028680Y033951D01*
X028786Y034057D01*
X028791Y034070D01*
X036942Y034070D01*
X036948Y034057D01*
X037054Y033951D01*
X037192Y033894D01*
X037342Y033894D01*
X037480Y033951D01*
X037586Y034057D01*
X037643Y034195D01*
X037643Y034345D01*
X037586Y034483D01*
X037632Y034371D02*
X040519Y034371D01*
X040519Y034212D02*
X037643Y034212D01*
X037583Y034054D02*
X040519Y034054D01*
X040519Y033895D02*
X037346Y033895D01*
X037188Y033895D02*
X028546Y033895D01*
X028388Y033895D02*
X002007Y033895D01*
X002007Y033737D02*
X040519Y033737D01*
X040519Y033578D02*
X002007Y033578D01*
X002007Y033420D02*
X021569Y033420D01*
X021659Y033510D02*
X021402Y033252D01*
X021402Y032888D01*
X021659Y032630D01*
X022024Y032630D01*
X022282Y032888D01*
X022282Y033252D01*
X022024Y033510D01*
X021659Y033510D01*
X021411Y033261D02*
X002007Y033261D01*
X002007Y033103D02*
X021402Y033103D01*
X021402Y032944D02*
X002007Y032944D01*
X002007Y032786D02*
X021503Y032786D01*
X022180Y032786D02*
X027503Y032786D01*
X027402Y032888D02*
X027659Y032630D01*
X028024Y032630D01*
X028282Y032888D01*
X028282Y033252D01*
X028024Y033510D01*
X027659Y033510D01*
X027402Y033252D01*
X027402Y032888D01*
X027402Y032944D02*
X022282Y032944D01*
X022282Y033103D02*
X027402Y033103D01*
X027411Y033261D02*
X022272Y033261D01*
X022114Y033420D02*
X027569Y033420D01*
X028114Y033420D02*
X040519Y033420D01*
X040519Y033261D02*
X028272Y033261D01*
X028282Y033103D02*
X040519Y033103D01*
X040519Y032944D02*
X028282Y032944D01*
X028180Y032786D02*
X040519Y032786D01*
X040519Y032627D02*
X038535Y032627D01*
X038493Y032669D02*
X038346Y032730D01*
X038187Y032730D01*
X038040Y032669D01*
X037928Y032556D01*
X037867Y032409D01*
X037867Y031730D01*
X037928Y031583D01*
X038040Y031471D01*
X038187Y031410D01*
X038346Y031410D01*
X038493Y031471D01*
X038606Y031583D01*
X038667Y031730D01*
X038667Y032409D01*
X038606Y032556D01*
X038493Y032669D01*
X038642Y032469D02*
X040519Y032469D01*
X040519Y032310D02*
X038667Y032310D01*
X038667Y032152D02*
X040519Y032152D01*
X040519Y031993D02*
X038667Y031993D01*
X038667Y031835D02*
X040519Y031835D01*
X040519Y031676D02*
X038644Y031676D01*
X038540Y031518D02*
X040519Y031518D01*
X040519Y031359D02*
X002007Y031359D01*
X002007Y031201D02*
X010617Y031201D01*
X010687Y031230D02*
X010540Y031169D01*
X010428Y031056D01*
X010367Y030909D01*
X010367Y030230D01*
X010428Y030083D01*
X010540Y029971D01*
X010687Y029910D01*
X010846Y029910D01*
X010993Y029971D01*
X011106Y030083D01*
X011167Y030230D01*
X011167Y030909D01*
X011106Y031056D01*
X010993Y031169D01*
X010846Y031230D01*
X010687Y031230D01*
X010916Y031201D02*
X011529Y031201D01*
X011536Y031206D02*
X011480Y031165D01*
X011431Y031117D01*
X011390Y031060D01*
X011359Y030999D01*
X011338Y030933D01*
X011327Y030865D01*
X011327Y030570D01*
X011767Y030570D01*
X012207Y030570D01*
X012207Y030865D01*
X012196Y030933D01*
X012174Y030999D01*
X012143Y031060D01*
X012102Y031117D01*
X012053Y031165D01*
X011997Y031206D01*
X011936Y031238D01*
X011870Y031259D01*
X011801Y031270D01*
X011767Y031270D01*
X011767Y030570D01*
X011767Y030570D01*
X012207Y030570D01*
X012207Y030275D01*
X012196Y030207D01*
X012174Y030141D01*
X012143Y030079D01*
X012102Y030023D01*
X012053Y029974D01*
X011997Y029934D01*
X011936Y029902D01*
X011870Y029881D01*
X011801Y029870D01*
X011767Y029870D01*
X011767Y030570D01*
X011767Y030570D01*
X011767Y030570D01*
X011767Y031270D01*
X011732Y031270D01*
X011664Y031259D01*
X011598Y031238D01*
X011536Y031206D01*
X011381Y031042D02*
X011112Y031042D01*
X011167Y030884D02*
X011330Y030884D01*
X011327Y030725D02*
X011167Y030725D01*
X011167Y030567D02*
X011327Y030567D01*
X011327Y030570D02*
X011327Y030275D01*
X011338Y030207D01*
X011359Y030141D01*
X011390Y030079D01*
X011431Y030023D01*
X011480Y029974D01*
X011536Y029934D01*
X011598Y029902D01*
X011664Y029881D01*
X011732Y029870D01*
X011767Y029870D01*
X011767Y030570D01*
X011767Y030570D01*
X011327Y030570D01*
X011327Y030408D02*
X011167Y030408D01*
X011167Y030250D02*
X011331Y030250D01*
X011384Y030091D02*
X011109Y030091D01*
X010902Y029933D02*
X011537Y029933D01*
X011767Y029933D02*
X011767Y029933D01*
X011767Y030091D02*
X011767Y030091D01*
X011767Y030250D02*
X011767Y030250D01*
X011767Y030408D02*
X011767Y030408D01*
X011767Y030567D02*
X011767Y030567D01*
X011767Y030725D02*
X011767Y030725D01*
X011767Y030884D02*
X011767Y030884D01*
X011767Y031042D02*
X011767Y031042D01*
X011767Y031201D02*
X011767Y031201D01*
X012005Y031201D02*
X012617Y031201D01*
X012687Y031230D02*
X012540Y031169D01*
X012428Y031056D01*
X012367Y030909D01*
X012367Y030230D01*
X012428Y030083D01*
X012540Y029971D01*
X012687Y029910D01*
X012846Y029910D01*
X012993Y029971D01*
X013106Y030083D01*
X013167Y030230D01*
X013167Y030909D01*
X013106Y031056D01*
X012993Y031169D01*
X012846Y031230D01*
X012687Y031230D01*
X012916Y031201D02*
X013617Y031201D01*
X013687Y031230D02*
X013540Y031169D01*
X013428Y031056D01*
X013367Y030909D01*
X013367Y030230D01*
X013428Y030083D01*
X013540Y029971D01*
X013687Y029910D01*
X013846Y029910D01*
X013993Y029971D01*
X014106Y030083D01*
X014167Y030230D01*
X014167Y030909D01*
X014106Y031056D01*
X013993Y031169D01*
X013846Y031230D01*
X013687Y031230D01*
X013916Y031201D02*
X014617Y031201D01*
X014687Y031230D02*
X014540Y031169D01*
X014428Y031056D01*
X014367Y030909D01*
X014367Y030230D01*
X014428Y030083D01*
X014540Y029971D01*
X014687Y029910D01*
X014846Y029910D01*
X014993Y029971D01*
X015106Y030083D01*
X015167Y030230D01*
X015167Y030909D01*
X015106Y031056D01*
X014993Y031169D01*
X014846Y031230D01*
X014687Y031230D01*
X014916Y031201D02*
X015617Y031201D01*
X015687Y031230D02*
X015540Y031169D01*
X015428Y031056D01*
X015367Y030909D01*
X015367Y030230D01*
X015428Y030083D01*
X015540Y029971D01*
X015687Y029910D01*
X015846Y029910D01*
X015993Y029971D01*
X016106Y030083D01*
X016167Y030230D01*
X016167Y030909D01*
X016106Y031056D01*
X015993Y031169D01*
X015846Y031230D01*
X015687Y031230D01*
X015916Y031201D02*
X016617Y031201D01*
X016687Y031230D02*
X016540Y031169D01*
X016428Y031056D01*
X016367Y030909D01*
X016367Y030230D01*
X016428Y030083D01*
X016540Y029971D01*
X016687Y029910D01*
X016846Y029910D01*
X016993Y029971D01*
X017106Y030083D01*
X017167Y030230D01*
X017167Y030909D01*
X017106Y031056D01*
X016993Y031169D01*
X016846Y031230D01*
X016687Y031230D01*
X016916Y031201D02*
X017617Y031201D01*
X017687Y031230D02*
X017540Y031169D01*
X017428Y031056D01*
X017367Y030909D01*
X017367Y030230D01*
X017428Y030083D01*
X017540Y029971D01*
X017687Y029910D01*
X017846Y029910D01*
X017993Y029971D01*
X018106Y030083D01*
X018167Y030230D01*
X018167Y030909D01*
X018106Y031056D01*
X017993Y031169D01*
X017846Y031230D01*
X017687Y031230D01*
X017916Y031201D02*
X018617Y031201D01*
X018687Y031230D02*
X018540Y031169D01*
X018428Y031056D01*
X018367Y030909D01*
X018367Y030230D01*
X018428Y030083D01*
X018540Y029971D01*
X018687Y029910D01*
X018846Y029910D01*
X018993Y029971D01*
X019106Y030083D01*
X019167Y030230D01*
X019167Y030909D01*
X019106Y031056D01*
X018993Y031169D01*
X018846Y031230D01*
X018687Y031230D01*
X018916Y031201D02*
X019617Y031201D01*
X019687Y031230D02*
X019540Y031169D01*
X019428Y031056D01*
X019367Y030909D01*
X019367Y030230D01*
X019428Y030083D01*
X019540Y029971D01*
X019687Y029910D01*
X019846Y029910D01*
X019993Y029971D01*
X020106Y030083D01*
X020167Y030230D01*
X020167Y030909D01*
X020106Y031056D01*
X019993Y031169D01*
X019846Y031230D01*
X019687Y031230D01*
X019916Y031201D02*
X040519Y031201D01*
X040519Y031042D02*
X020112Y031042D01*
X020167Y030884D02*
X040519Y030884D01*
X040519Y030725D02*
X020167Y030725D01*
X020167Y030567D02*
X040519Y030567D01*
X040519Y030408D02*
X020167Y030408D01*
X020167Y030250D02*
X040519Y030250D01*
X040519Y030091D02*
X020109Y030091D01*
X019902Y029933D02*
X040519Y029933D01*
X040519Y029774D02*
X002007Y029774D01*
X002007Y029616D02*
X028987Y029616D01*
X029040Y029669D02*
X028928Y029556D01*
X028867Y029409D01*
X028867Y028730D01*
X028928Y028583D01*
X029040Y028471D01*
X029187Y028410D01*
X029346Y028410D01*
X029493Y028471D01*
X029606Y028583D01*
X029667Y028730D01*
X029667Y029409D01*
X029606Y029556D01*
X029493Y029669D01*
X029346Y029730D01*
X029187Y029730D01*
X029040Y029669D01*
X028887Y029457D02*
X002007Y029457D01*
X002007Y029299D02*
X028867Y029299D01*
X028867Y029140D02*
X002007Y029140D01*
X002007Y028982D02*
X028867Y028982D01*
X028867Y028823D02*
X002007Y028823D01*
X002007Y028665D02*
X028894Y028665D01*
X029004Y028506D02*
X002007Y028506D01*
X002007Y028348D02*
X040519Y028348D01*
X040519Y028506D02*
X038585Y028506D01*
X038602Y028523D02*
X038643Y028579D01*
X038674Y028641D01*
X038696Y028707D01*
X038707Y028775D01*
X038707Y029070D01*
X038707Y029365D01*
X038696Y029433D01*
X038674Y029499D01*
X038643Y029560D01*
X038602Y029617D01*
X038553Y029665D01*
X038497Y029706D01*
X038436Y029738D01*
X038370Y029759D01*
X038301Y029770D01*
X038267Y029770D01*
X038267Y029070D01*
X038707Y029070D01*
X038267Y029070D01*
X038267Y029070D01*
X038267Y029070D01*
X038267Y028370D01*
X038301Y028370D01*
X038370Y028381D01*
X038436Y028402D01*
X038497Y028434D01*
X038553Y028474D01*
X038602Y028523D01*
X038682Y028665D02*
X040519Y028665D01*
X040519Y028823D02*
X038707Y028823D01*
X038707Y028982D02*
X040519Y028982D01*
X040519Y029140D02*
X038707Y029140D01*
X038707Y029299D02*
X040519Y029299D01*
X040519Y029457D02*
X038688Y029457D01*
X038603Y029616D02*
X040519Y029616D01*
X040519Y028189D02*
X020020Y028189D01*
X019997Y028206D02*
X020053Y028165D01*
X020102Y028117D01*
X020143Y028060D01*
X020174Y027999D01*
X020196Y027933D01*
X020207Y027865D01*
X020207Y027570D01*
X019767Y027570D01*
X019767Y027570D01*
X020207Y027570D01*
X020207Y027275D01*
X020196Y027207D01*
X020174Y027141D01*
X020143Y027079D01*
X020102Y027023D01*
X020053Y026974D01*
X019997Y026934D01*
X019936Y026902D01*
X019870Y026881D01*
X019801Y026870D01*
X019767Y026870D01*
X019767Y027570D01*
X019767Y027570D01*
X019767Y028270D01*
X019801Y028270D01*
X019870Y028259D01*
X019936Y028238D01*
X019997Y028206D01*
X019767Y028189D02*
X019767Y028189D01*
X019767Y028270D02*
X019732Y028270D01*
X019664Y028259D01*
X019598Y028238D01*
X019536Y028206D01*
X019480Y028165D01*
X019431Y028117D01*
X019390Y028060D01*
X019359Y027999D01*
X019338Y027933D01*
X019327Y027865D01*
X019327Y027570D01*
X019767Y027570D01*
X019767Y027570D01*
X019767Y028270D01*
X019767Y028031D02*
X019767Y028031D01*
X019767Y027872D02*
X019767Y027872D01*
X019767Y027714D02*
X019767Y027714D01*
X019767Y027570D02*
X019767Y027570D01*
X019767Y026870D01*
X019732Y026870D01*
X019664Y026881D01*
X019598Y026902D01*
X019536Y026934D01*
X019480Y026974D01*
X019431Y027023D01*
X019390Y027079D01*
X019359Y027141D01*
X019338Y027207D01*
X019327Y027275D01*
X019327Y027570D01*
X019767Y027570D01*
X019767Y027555D02*
X019767Y027555D01*
X019767Y027397D02*
X019767Y027397D01*
X019767Y027238D02*
X019767Y027238D01*
X019767Y027080D02*
X019767Y027080D01*
X019767Y026921D02*
X019767Y026921D01*
X019973Y026921D02*
X040519Y026921D01*
X040519Y026763D02*
X002007Y026763D01*
X002007Y026921D02*
X010659Y026921D01*
X010687Y026910D02*
X010846Y026910D01*
X010993Y026971D01*
X011106Y027083D01*
X011167Y027230D01*
X011167Y027909D01*
X011106Y028056D01*
X010993Y028169D01*
X010846Y028230D01*
X010687Y028230D01*
X010540Y028169D01*
X010428Y028056D01*
X010367Y027909D01*
X010367Y027230D01*
X010428Y027083D01*
X010540Y026971D01*
X010687Y026910D01*
X010874Y026921D02*
X011659Y026921D01*
X011687Y026910D02*
X011846Y026910D01*
X011993Y026971D01*
X012106Y027083D01*
X012167Y027230D01*
X012167Y027909D01*
X012106Y028056D01*
X011993Y028169D01*
X011846Y028230D01*
X011687Y028230D01*
X011540Y028169D01*
X011428Y028056D01*
X011367Y027909D01*
X011367Y027230D01*
X011428Y027083D01*
X011540Y026971D01*
X011687Y026910D01*
X011874Y026921D02*
X012659Y026921D01*
X012687Y026910D02*
X012846Y026910D01*
X012993Y026971D01*
X013106Y027083D01*
X013167Y027230D01*
X013167Y027909D01*
X013106Y028056D01*
X012993Y028169D01*
X012846Y028230D01*
X012687Y028230D01*
X012540Y028169D01*
X012428Y028056D01*
X012367Y027909D01*
X012367Y027230D01*
X012428Y027083D01*
X012540Y026971D01*
X012687Y026910D01*
X012874Y026921D02*
X013659Y026921D01*
X013687Y026910D02*
X013846Y026910D01*
X013993Y026971D01*
X014106Y027083D01*
X014167Y027230D01*
X014167Y027909D01*
X014106Y028056D01*
X013993Y028169D01*
X013846Y028230D01*
X013687Y028230D01*
X013540Y028169D01*
X013428Y028056D01*
X013367Y027909D01*
X013367Y027230D01*
X013428Y027083D01*
X013540Y026971D01*
X013687Y026910D01*
X013874Y026921D02*
X014659Y026921D01*
X014687Y026910D02*
X014846Y026910D01*
X014993Y026971D01*
X015106Y027083D01*
X015167Y027230D01*
X015167Y027909D01*
X015106Y028056D01*
X014993Y028169D01*
X014846Y028230D01*
X014687Y028230D01*
X014540Y028169D01*
X014428Y028056D01*
X014367Y027909D01*
X014367Y027230D01*
X014428Y027083D01*
X014540Y026971D01*
X014687Y026910D01*
X014874Y026921D02*
X015659Y026921D01*
X015687Y026910D02*
X015846Y026910D01*
X015993Y026971D01*
X016106Y027083D01*
X016167Y027230D01*
X016167Y027909D01*
X016106Y028056D01*
X015993Y028169D01*
X015846Y028230D01*
X015687Y028230D01*
X015540Y028169D01*
X015428Y028056D01*
X015367Y027909D01*
X015367Y027230D01*
X015428Y027083D01*
X015540Y026971D01*
X015687Y026910D01*
X015874Y026921D02*
X016659Y026921D01*
X016687Y026910D02*
X016846Y026910D01*
X016993Y026971D01*
X017106Y027083D01*
X017167Y027230D01*
X017167Y027909D01*
X017106Y028056D01*
X016993Y028169D01*
X016846Y028230D01*
X016687Y028230D01*
X016540Y028169D01*
X016428Y028056D01*
X016367Y027909D01*
X016367Y027230D01*
X016428Y027083D01*
X016540Y026971D01*
X016687Y026910D01*
X016874Y026921D02*
X017659Y026921D01*
X017687Y026910D02*
X017846Y026910D01*
X017993Y026971D01*
X018106Y027083D01*
X018167Y027230D01*
X018167Y027909D01*
X018106Y028056D01*
X017993Y028169D01*
X017846Y028230D01*
X017687Y028230D01*
X017540Y028169D01*
X017428Y028056D01*
X017367Y027909D01*
X017367Y027230D01*
X017428Y027083D01*
X017540Y026971D01*
X017687Y026910D01*
X017874Y026921D02*
X018659Y026921D01*
X018687Y026910D02*
X018846Y026910D01*
X018993Y026971D01*
X019106Y027083D01*
X019167Y027230D01*
X019167Y027909D01*
X019106Y028056D01*
X018993Y028169D01*
X018846Y028230D01*
X018687Y028230D01*
X018540Y028169D01*
X018428Y028056D01*
X018367Y027909D01*
X018367Y027230D01*
X018428Y027083D01*
X018540Y026971D01*
X018687Y026910D01*
X018874Y026921D02*
X019560Y026921D01*
X019390Y027080D02*
X019102Y027080D01*
X019167Y027238D02*
X019333Y027238D01*
X019327Y027397D02*
X019167Y027397D01*
X019167Y027555D02*
X019327Y027555D01*
X019327Y027714D02*
X019167Y027714D01*
X019167Y027872D02*
X019328Y027872D01*
X019375Y028031D02*
X019116Y028031D01*
X018944Y028189D02*
X019513Y028189D01*
X020158Y028031D02*
X040519Y028031D01*
X040519Y027872D02*
X020205Y027872D01*
X020207Y027714D02*
X040519Y027714D01*
X040519Y027555D02*
X020207Y027555D01*
X020207Y027397D02*
X040519Y027397D01*
X040519Y027238D02*
X020201Y027238D01*
X020143Y027080D02*
X040519Y027080D01*
X040519Y026604D02*
X002007Y026604D01*
X002007Y026446D02*
X040519Y026446D01*
X040519Y026287D02*
X002007Y026287D01*
X002007Y026129D02*
X040519Y026129D01*
X040519Y025970D02*
X002007Y025970D01*
X002007Y025812D02*
X040519Y025812D01*
X040519Y025653D02*
X002007Y025653D01*
X002007Y025495D02*
X040519Y025495D01*
X040519Y025336D02*
X014053Y025336D01*
X014167Y025223D02*
X013932Y025457D01*
X013601Y025457D01*
X013367Y025223D01*
X013367Y024892D01*
X013601Y024657D01*
X013932Y024657D01*
X014167Y024892D01*
X014167Y025223D01*
X014167Y025178D02*
X040519Y025178D01*
X040519Y025019D02*
X014167Y025019D01*
X014136Y024861D02*
X040519Y024861D01*
X040519Y024702D02*
X013977Y024702D01*
X014099Y024475D02*
X014037Y024444D01*
X013982Y024404D01*
X013933Y024355D01*
X013892Y024299D01*
X013861Y024238D01*
X013840Y024172D01*
X013829Y024104D01*
X013829Y024070D01*
X014267Y024070D01*
X014704Y024070D01*
X014704Y024104D01*
X014693Y024172D01*
X014672Y024238D01*
X014641Y024299D01*
X014600Y024355D01*
X014552Y024404D01*
X014496Y024444D01*
X014435Y024475D01*
X014369Y024497D01*
X014301Y024507D01*
X014267Y024507D01*
X014267Y024070D01*
X014267Y024070D01*
X014267Y024070D01*
X014704Y024070D01*
X014704Y024035D01*
X014693Y023967D01*
X014672Y023902D01*
X014641Y023841D01*
X014600Y023785D01*
X014552Y023736D01*
X014496Y023696D01*
X014435Y023664D01*
X014369Y023643D01*
X014301Y023632D01*
X014267Y023632D01*
X014267Y024070D01*
X014267Y024070D01*
X014267Y024507D01*
X014232Y024507D01*
X014164Y024497D01*
X014099Y024475D01*
X013963Y024385D02*
X002007Y024385D01*
X002007Y024227D02*
X013858Y024227D01*
X013829Y024070D02*
X013829Y024035D01*
X013840Y023967D01*
X013861Y023902D01*
X013892Y023841D01*
X013933Y023785D01*
X013982Y023736D01*
X014037Y023696D01*
X014099Y023664D01*
X014164Y023643D01*
X014232Y023632D01*
X014267Y023632D01*
X014267Y024070D01*
X014267Y024070D01*
X013829Y024070D01*
X013829Y024068D02*
X002007Y024068D01*
X002007Y023910D02*
X013859Y023910D01*
X013966Y023751D02*
X002007Y023751D01*
X002563Y023593D02*
X002970Y023593D01*
X002930Y023553D02*
X002869Y023406D01*
X002869Y022733D01*
X002930Y022587D01*
X003042Y022475D01*
X003188Y022415D01*
X003346Y022415D01*
X003492Y022475D01*
X003604Y022587D01*
X003664Y022733D01*
X003664Y023406D01*
X003604Y023553D01*
X003492Y023664D01*
X003346Y023725D01*
X003188Y023725D01*
X003042Y023664D01*
X002930Y023553D01*
X002881Y023434D02*
X002653Y023434D01*
X002664Y023276D02*
X002869Y023276D01*
X002869Y023117D02*
X002664Y023117D01*
X002664Y022959D02*
X002869Y022959D01*
X002869Y022800D02*
X002664Y022800D01*
X002626Y022642D02*
X002907Y022642D01*
X003034Y022483D02*
X002500Y022483D01*
X002034Y022483D02*
X002007Y022483D01*
X002007Y022325D02*
X009456Y022325D01*
X009367Y022236D02*
X009367Y021904D01*
X009601Y021670D01*
X009932Y021670D01*
X010167Y021904D01*
X010167Y022236D01*
X009932Y022470D01*
X009601Y022470D01*
X009367Y022236D01*
X009367Y022166D02*
X002007Y022166D01*
X002007Y022008D02*
X009367Y022008D01*
X009421Y021849D02*
X002007Y021849D01*
X002007Y021691D02*
X009580Y021691D01*
X009953Y021691D02*
X013580Y021691D01*
X013601Y021670D02*
X013367Y021904D01*
X013367Y022236D01*
X013601Y022470D01*
X013932Y022470D01*
X014167Y022236D01*
X014167Y021904D01*
X013932Y021670D01*
X013601Y021670D01*
X013421Y021849D02*
X010112Y021849D01*
X010167Y022008D02*
X013367Y022008D01*
X013367Y022166D02*
X010167Y022166D01*
X010077Y022325D02*
X013456Y022325D01*
X013865Y022702D02*
X013899Y022668D01*
X013940Y022645D01*
X013985Y022632D01*
X014267Y022632D01*
X014548Y022632D01*
X014594Y022645D01*
X014635Y022668D01*
X014668Y022702D01*
X014692Y022743D01*
X014704Y022789D01*
X014704Y023070D01*
X014704Y023351D01*
X014692Y023397D01*
X014668Y023438D01*
X014635Y023471D01*
X014594Y023495D01*
X014548Y023507D01*
X014267Y023507D01*
X014267Y023070D01*
X014704Y023070D01*
X014267Y023070D01*
X014267Y023070D01*
X014267Y023070D01*
X014267Y022632D01*
X014267Y023070D01*
X014267Y023070D01*
X014267Y023507D01*
X013985Y023507D01*
X013940Y023495D01*
X013899Y023471D01*
X013865Y023438D01*
X013841Y023397D01*
X013829Y023351D01*
X013829Y023070D01*
X014267Y023070D01*
X014267Y023070D01*
X013829Y023070D01*
X013829Y022789D01*
X013841Y022743D01*
X013865Y022702D01*
X013950Y022642D02*
X003626Y022642D01*
X003664Y022800D02*
X013829Y022800D01*
X013829Y022959D02*
X003664Y022959D01*
X003664Y023117D02*
X013829Y023117D01*
X013829Y023276D02*
X003664Y023276D01*
X003653Y023434D02*
X013863Y023434D01*
X014267Y023434D02*
X014267Y023434D01*
X014267Y023276D02*
X014267Y023276D01*
X014267Y023117D02*
X014267Y023117D01*
X014267Y022959D02*
X014267Y022959D01*
X014267Y022800D02*
X014267Y022800D01*
X014267Y022642D02*
X014267Y022642D01*
X014583Y022642D02*
X016172Y022642D01*
X016164Y022643D02*
X016232Y022632D01*
X016267Y022632D01*
X016301Y022632D01*
X016369Y022643D01*
X016435Y022664D01*
X016496Y022696D01*
X016552Y022736D01*
X016600Y022785D01*
X016641Y022841D01*
X016672Y022902D01*
X016693Y022967D01*
X016704Y023035D01*
X016704Y023070D01*
X016704Y023104D01*
X016693Y023172D01*
X016672Y023238D01*
X016641Y023299D01*
X016600Y023355D01*
X016552Y023404D01*
X016496Y023444D01*
X016435Y023475D01*
X016369Y023497D01*
X016301Y023507D01*
X016267Y023507D01*
X016267Y023070D01*
X016704Y023070D01*
X016267Y023070D01*
X016267Y023070D01*
X016267Y023070D01*
X016267Y022632D01*
X016267Y023070D01*
X016267Y023070D01*
X016267Y023507D01*
X016232Y023507D01*
X016164Y023497D01*
X016099Y023475D01*
X016037Y023444D01*
X015982Y023404D01*
X015933Y023355D01*
X015892Y023299D01*
X015861Y023238D01*
X015840Y023172D01*
X015829Y023104D01*
X015829Y023070D01*
X016267Y023070D01*
X016267Y023070D01*
X015829Y023070D01*
X015829Y023035D01*
X015840Y022967D01*
X015861Y022902D01*
X015892Y022841D01*
X015933Y022785D01*
X015982Y022736D01*
X016037Y022696D01*
X016099Y022664D01*
X016164Y022643D01*
X016267Y022642D02*
X016267Y022642D01*
X016361Y022642D02*
X025172Y022642D01*
X025164Y022643D02*
X025232Y022632D01*
X025267Y022632D01*
X025301Y022632D01*
X025369Y022643D01*
X025435Y022664D01*
X025496Y022696D01*
X025552Y022736D01*
X025600Y022785D01*
X025641Y022841D01*
X025672Y022902D01*
X025693Y022967D01*
X025704Y023035D01*
X025704Y023070D01*
X025704Y023104D01*
X025693Y023172D01*
X025672Y023238D01*
X025641Y023299D01*
X025600Y023355D01*
X025552Y023404D01*
X025496Y023444D01*
X025435Y023475D01*
X025369Y023497D01*
X025301Y023507D01*
X025267Y023507D01*
X025267Y023070D01*
X025704Y023070D01*
X025267Y023070D01*
X025267Y023070D01*
X025267Y023070D01*
X025267Y022632D01*
X025267Y023070D01*
X025267Y023070D01*
X025267Y023507D01*
X025232Y023507D01*
X025164Y023497D01*
X025099Y023475D01*
X025037Y023444D01*
X024982Y023404D01*
X024933Y023355D01*
X024892Y023299D01*
X024861Y023238D01*
X024840Y023172D01*
X024829Y023104D01*
X024829Y023070D01*
X025267Y023070D01*
X025267Y023070D01*
X024829Y023070D01*
X024829Y023035D01*
X024840Y022967D01*
X024861Y022902D01*
X024892Y022841D01*
X024933Y022785D01*
X024982Y022736D01*
X025037Y022696D01*
X025099Y022664D01*
X025164Y022643D01*
X025267Y022642D02*
X025267Y022642D01*
X025361Y022642D02*
X038172Y022642D01*
X038164Y022643D02*
X038232Y022632D01*
X038267Y022632D01*
X038301Y022632D01*
X038369Y022643D01*
X038435Y022664D01*
X038496Y022696D01*
X038552Y022736D01*
X038600Y022785D01*
X038641Y022841D01*
X038672Y022902D01*
X038693Y022967D01*
X038704Y023035D01*
X038704Y023070D01*
X038704Y023104D01*
X038693Y023172D01*
X038672Y023238D01*
X038641Y023299D01*
X038600Y023355D01*
X038552Y023404D01*
X038496Y023444D01*
X038435Y023475D01*
X038369Y023497D01*
X038301Y023507D01*
X038267Y023507D01*
X038267Y023070D01*
X038704Y023070D01*
X038267Y023070D01*
X038267Y023070D01*
X038267Y023070D01*
X038267Y022632D01*
X038267Y023070D01*
X038267Y023070D01*
X038267Y023507D01*
X038232Y023507D01*
X038164Y023497D01*
X038099Y023475D01*
X038037Y023444D01*
X037982Y023404D01*
X037933Y023355D01*
X037892Y023299D01*
X037861Y023238D01*
X037840Y023172D01*
X037829Y023104D01*
X037829Y023070D01*
X038267Y023070D01*
X038267Y023070D01*
X037829Y023070D01*
X037829Y023035D01*
X037840Y022967D01*
X037861Y022902D01*
X037892Y022841D01*
X037933Y022785D01*
X037982Y022736D01*
X038037Y022696D01*
X038099Y022664D01*
X038164Y022643D01*
X038267Y022642D02*
X038267Y022642D01*
X038361Y022642D02*
X040519Y022642D01*
X040519Y022800D02*
X038612Y022800D01*
X038691Y022959D02*
X040519Y022959D01*
X040519Y023117D02*
X038702Y023117D01*
X038653Y023276D02*
X040519Y023276D01*
X040519Y023434D02*
X038509Y023434D01*
X038435Y023664D02*
X038496Y023696D01*
X038552Y023736D01*
X038600Y023785D01*
X038641Y023841D01*
X038672Y023902D01*
X038693Y023967D01*
X038704Y024035D01*
X038704Y024070D01*
X038704Y024104D01*
X038693Y024172D01*
X038672Y024238D01*
X038641Y024299D01*
X038600Y024355D01*
X038552Y024404D01*
X038496Y024444D01*
X038435Y024475D01*
X038369Y024497D01*
X038301Y024507D01*
X038267Y024507D01*
X038267Y024070D01*
X038704Y024070D01*
X038267Y024070D01*
X038267Y024070D01*
X038267Y024070D01*
X038267Y023632D01*
X038301Y023632D01*
X038369Y023643D01*
X038435Y023664D01*
X038567Y023751D02*
X040519Y023751D01*
X040519Y023593D02*
X003563Y023593D01*
X003500Y022483D02*
X040519Y022483D01*
X040519Y022325D02*
X014077Y022325D01*
X014167Y022166D02*
X040519Y022166D01*
X040519Y022008D02*
X014167Y022008D01*
X014112Y021849D02*
X040519Y021849D01*
X040519Y021691D02*
X013953Y021691D01*
X014704Y022800D02*
X014974Y022800D01*
X014930Y022845D02*
X015042Y022733D01*
X015188Y022672D01*
X015346Y022672D01*
X015492Y022733D01*
X015604Y022845D01*
X015664Y022991D01*
X015664Y023149D01*
X015604Y023295D01*
X015492Y023407D01*
X015346Y023467D01*
X015188Y023467D01*
X015042Y023407D01*
X014930Y023295D01*
X014869Y023149D01*
X014869Y022991D01*
X014930Y022845D01*
X014882Y022959D02*
X014704Y022959D01*
X014704Y023117D02*
X014869Y023117D01*
X014922Y023276D02*
X014704Y023276D01*
X014670Y023434D02*
X015108Y023434D01*
X015188Y023672D02*
X015346Y023672D01*
X015492Y023733D01*
X015604Y023845D01*
X015664Y023991D01*
X015664Y024149D01*
X015604Y024295D01*
X015492Y024407D01*
X015346Y024467D01*
X015188Y024467D01*
X015042Y024407D01*
X014930Y024295D01*
X014869Y024149D01*
X014869Y023991D01*
X014930Y023845D01*
X015042Y023733D01*
X015188Y023672D01*
X015023Y023751D02*
X014567Y023751D01*
X014675Y023910D02*
X014903Y023910D01*
X014869Y024068D02*
X014704Y024068D01*
X014676Y024227D02*
X014901Y024227D01*
X015020Y024385D02*
X014570Y024385D01*
X014267Y024385D02*
X014267Y024385D01*
X014267Y024227D02*
X014267Y024227D01*
X014267Y024068D02*
X014267Y024068D01*
X014267Y023910D02*
X014267Y023910D01*
X014267Y023751D02*
X014267Y023751D01*
X013556Y024702D02*
X009977Y024702D01*
X009932Y024657D02*
X010167Y024892D01*
X010167Y025223D01*
X009932Y025457D01*
X009601Y025457D01*
X009367Y025223D01*
X009367Y024892D01*
X009601Y024657D01*
X009932Y024657D01*
X010136Y024861D02*
X013397Y024861D01*
X013367Y025019D02*
X010167Y025019D01*
X010167Y025178D02*
X013367Y025178D01*
X013480Y025336D02*
X010053Y025336D01*
X009480Y025336D02*
X002007Y025336D01*
X002007Y025178D02*
X009367Y025178D01*
X009367Y025019D02*
X002007Y025019D01*
X002007Y024861D02*
X009397Y024861D01*
X009556Y024702D02*
X002007Y024702D01*
X002007Y024544D02*
X040519Y024544D01*
X040519Y024385D02*
X038570Y024385D01*
X038676Y024227D02*
X040519Y024227D01*
X040519Y024068D02*
X038704Y024068D01*
X038675Y023910D02*
X040519Y023910D01*
X038267Y023910D02*
X038267Y023910D01*
X038267Y024068D02*
X038267Y024068D01*
X038267Y024070D02*
X038267Y024070D01*
X038267Y024507D01*
X038232Y024507D01*
X038164Y024497D01*
X038099Y024475D01*
X038037Y024444D01*
X037982Y024404D01*
X037933Y024355D01*
X037892Y024299D01*
X037861Y024238D01*
X037840Y024172D01*
X037829Y024104D01*
X037829Y024070D01*
X038267Y024070D01*
X038267Y024070D01*
X038267Y023632D01*
X038232Y023632D01*
X038164Y023643D01*
X038099Y023664D01*
X038037Y023696D01*
X037982Y023736D01*
X037933Y023785D01*
X037892Y023841D01*
X037861Y023902D01*
X037840Y023967D01*
X037829Y024035D01*
X037829Y024070D01*
X038267Y024070D01*
X038267Y024227D02*
X038267Y024227D01*
X038267Y024385D02*
X038267Y024385D01*
X037963Y024385D02*
X037513Y024385D01*
X037492Y024407D02*
X037604Y024295D01*
X037664Y024149D01*
X037664Y023991D01*
X037604Y023845D01*
X037492Y023733D01*
X037346Y023672D01*
X037188Y023672D01*
X037042Y023733D01*
X036930Y023845D01*
X036869Y023991D01*
X036869Y024149D01*
X036930Y024295D01*
X037042Y024407D01*
X037188Y024467D01*
X037346Y024467D01*
X037492Y024407D01*
X037632Y024227D02*
X037858Y024227D01*
X037829Y024068D02*
X037664Y024068D01*
X037631Y023910D02*
X037859Y023910D01*
X037966Y023751D02*
X037510Y023751D01*
X037425Y023434D02*
X038024Y023434D01*
X037881Y023276D02*
X037612Y023276D01*
X037604Y023295D02*
X037492Y023407D01*
X037346Y023467D01*
X037188Y023467D01*
X037042Y023407D01*
X036930Y023295D01*
X036869Y023149D01*
X036869Y022991D01*
X036930Y022845D01*
X037042Y022733D01*
X037188Y022672D01*
X037346Y022672D01*
X037492Y022733D01*
X037604Y022845D01*
X037664Y022991D01*
X037664Y023149D01*
X037604Y023295D01*
X037664Y023117D02*
X037831Y023117D01*
X037843Y022959D02*
X037651Y022959D01*
X037559Y022800D02*
X037922Y022800D01*
X038267Y022800D02*
X038267Y022800D01*
X038267Y022959D02*
X038267Y022959D01*
X038267Y023117D02*
X038267Y023117D01*
X038267Y023276D02*
X038267Y023276D01*
X038267Y023434D02*
X038267Y023434D01*
X038267Y023751D02*
X038267Y023751D01*
X037108Y023434D02*
X036425Y023434D01*
X036492Y023407D02*
X036346Y023467D01*
X036188Y023467D01*
X036042Y023407D01*
X035930Y023295D01*
X035869Y023149D01*
X035869Y022991D01*
X035930Y022845D01*
X036042Y022733D01*
X036188Y022672D01*
X036346Y022672D01*
X036492Y022733D01*
X036604Y022845D01*
X036664Y022991D01*
X036664Y023149D01*
X036604Y023295D01*
X036492Y023407D01*
X036612Y023276D02*
X036922Y023276D01*
X036869Y023117D02*
X036664Y023117D01*
X036651Y022959D02*
X036882Y022959D01*
X036974Y022800D02*
X036559Y022800D01*
X035974Y022800D02*
X035559Y022800D01*
X035604Y022845D02*
X035664Y022991D01*
X035664Y023149D01*
X035604Y023295D01*
X035492Y023407D01*
X035346Y023467D01*
X035188Y023467D01*
X035042Y023407D01*
X034930Y023295D01*
X034869Y023149D01*
X034869Y022991D01*
X034930Y022845D01*
X035042Y022733D01*
X035188Y022672D01*
X035346Y022672D01*
X035492Y022733D01*
X035604Y022845D01*
X035651Y022959D02*
X035882Y022959D01*
X035869Y023117D02*
X035664Y023117D01*
X035612Y023276D02*
X035922Y023276D01*
X036108Y023434D02*
X035425Y023434D01*
X035346Y023672D02*
X035492Y023733D01*
X035604Y023845D01*
X035664Y023991D01*
X035664Y024149D01*
X035604Y024295D01*
X035492Y024407D01*
X035346Y024467D01*
X035188Y024467D01*
X035042Y024407D01*
X034930Y024295D01*
X034869Y024149D01*
X034869Y023991D01*
X034930Y023845D01*
X035042Y023733D01*
X035188Y023672D01*
X035346Y023672D01*
X035510Y023751D02*
X036023Y023751D01*
X036042Y023733D02*
X036188Y023672D01*
X036346Y023672D01*
X036492Y023733D01*
X036604Y023845D01*
X036664Y023991D01*
X036664Y024149D01*
X036604Y024295D01*
X036492Y024407D01*
X036346Y024467D01*
X036188Y024467D01*
X036042Y024407D01*
X035930Y024295D01*
X035869Y024149D01*
X035869Y023991D01*
X035930Y023845D01*
X036042Y023733D01*
X035903Y023910D02*
X035631Y023910D01*
X035664Y024068D02*
X035869Y024068D01*
X035901Y024227D02*
X035632Y024227D01*
X035513Y024385D02*
X036020Y024385D01*
X036513Y024385D02*
X037020Y024385D01*
X036901Y024227D02*
X036632Y024227D01*
X036664Y024068D02*
X036869Y024068D01*
X036903Y023910D02*
X036631Y023910D01*
X036510Y023751D02*
X037023Y023751D01*
X035108Y023434D02*
X034425Y023434D01*
X034492Y023407D02*
X034346Y023467D01*
X034188Y023467D01*
X034042Y023407D01*
X033930Y023295D01*
X033869Y023149D01*
X033869Y022991D01*
X033930Y022845D01*
X034042Y022733D01*
X034188Y022672D01*
X034346Y022672D01*
X034492Y022733D01*
X034604Y022845D01*
X034664Y022991D01*
X034664Y023149D01*
X034604Y023295D01*
X034492Y023407D01*
X034612Y023276D02*
X034922Y023276D01*
X034869Y023117D02*
X034664Y023117D01*
X034651Y022959D02*
X034882Y022959D01*
X034974Y022800D02*
X034559Y022800D01*
X033974Y022800D02*
X033559Y022800D01*
X033604Y022845D02*
X033492Y022733D01*
X033346Y022672D01*
X033188Y022672D01*
X033042Y022733D01*
X032930Y022845D01*
X032869Y022991D01*
X032869Y023149D01*
X032930Y023295D01*
X033042Y023407D01*
X033188Y023467D01*
X033346Y023467D01*
X033492Y023407D01*
X033604Y023295D01*
X033664Y023149D01*
X033664Y022991D01*
X033604Y022845D01*
X033651Y022959D02*
X033882Y022959D01*
X033869Y023117D02*
X033664Y023117D01*
X033612Y023276D02*
X033922Y023276D01*
X034108Y023434D02*
X033425Y023434D01*
X033346Y023672D02*
X033492Y023733D01*
X033604Y023845D01*
X033664Y023991D01*
X033664Y024149D01*
X033604Y024295D01*
X033492Y024407D01*
X033346Y024467D01*
X033188Y024467D01*
X033042Y024407D01*
X032930Y024295D01*
X032869Y024149D01*
X032869Y023991D01*
X032930Y023845D01*
X033042Y023733D01*
X033188Y023672D01*
X033346Y023672D01*
X033510Y023751D02*
X034023Y023751D01*
X034042Y023733D02*
X034188Y023672D01*
X034346Y023672D01*
X034492Y023733D01*
X034604Y023845D01*
X034664Y023991D01*
X034664Y024149D01*
X034604Y024295D01*
X034492Y024407D01*
X034346Y024467D01*
X034188Y024467D01*
X034042Y024407D01*
X033930Y024295D01*
X033869Y024149D01*
X033869Y023991D01*
X033930Y023845D01*
X034042Y023733D01*
X033903Y023910D02*
X033631Y023910D01*
X033664Y024068D02*
X033869Y024068D01*
X033901Y024227D02*
X033632Y024227D01*
X033513Y024385D02*
X034020Y024385D01*
X034513Y024385D02*
X035020Y024385D01*
X034901Y024227D02*
X034632Y024227D01*
X034664Y024068D02*
X034869Y024068D01*
X034903Y023910D02*
X034631Y023910D01*
X034510Y023751D02*
X035023Y023751D01*
X033108Y023434D02*
X032425Y023434D01*
X032492Y023407D02*
X032346Y023467D01*
X032188Y023467D01*
X032042Y023407D01*
X031930Y023295D01*
X031869Y023149D01*
X031869Y022991D01*
X031930Y022845D01*
X032042Y022733D01*
X032188Y022672D01*
X032346Y022672D01*
X032492Y022733D01*
X032604Y022845D01*
X032664Y022991D01*
X032664Y023149D01*
X032604Y023295D01*
X032492Y023407D01*
X032612Y023276D02*
X032922Y023276D01*
X032869Y023117D02*
X032664Y023117D01*
X032651Y022959D02*
X032882Y022959D01*
X032974Y022800D02*
X032559Y022800D01*
X031974Y022800D02*
X031559Y022800D01*
X031604Y022845D02*
X031664Y022991D01*
X031664Y023149D01*
X031604Y023295D01*
X031492Y023407D01*
X031346Y023467D01*
X031188Y023467D01*
X031042Y023407D01*
X030930Y023295D01*
X030869Y023149D01*
X030869Y022991D01*
X030930Y022845D01*
X031042Y022733D01*
X031188Y022672D01*
X031346Y022672D01*
X031492Y022733D01*
X031604Y022845D01*
X031651Y022959D02*
X031882Y022959D01*
X031869Y023117D02*
X031664Y023117D01*
X031612Y023276D02*
X031922Y023276D01*
X032108Y023434D02*
X031425Y023434D01*
X031346Y023672D02*
X031492Y023733D01*
X031604Y023845D01*
X031664Y023991D01*
X031664Y024149D01*
X031604Y024295D01*
X031492Y024407D01*
X031346Y024467D01*
X031188Y024467D01*
X031042Y024407D01*
X030930Y024295D01*
X030869Y024149D01*
X030869Y023991D01*
X030930Y023845D01*
X031042Y023733D01*
X031188Y023672D01*
X031346Y023672D01*
X031510Y023751D02*
X032023Y023751D01*
X032042Y023733D02*
X032188Y023672D01*
X032346Y023672D01*
X032492Y023733D01*
X032604Y023845D01*
X032664Y023991D01*
X032664Y024149D01*
X032604Y024295D01*
X032492Y024407D01*
X032346Y024467D01*
X032188Y024467D01*
X032042Y024407D01*
X031930Y024295D01*
X031869Y024149D01*
X031869Y023991D01*
X031930Y023845D01*
X032042Y023733D01*
X031903Y023910D02*
X031631Y023910D01*
X031664Y024068D02*
X031869Y024068D01*
X031901Y024227D02*
X031632Y024227D01*
X031513Y024385D02*
X032020Y024385D01*
X032513Y024385D02*
X033020Y024385D01*
X032901Y024227D02*
X032632Y024227D01*
X032664Y024068D02*
X032869Y024068D01*
X032903Y023910D02*
X032631Y023910D01*
X032510Y023751D02*
X033023Y023751D01*
X031108Y023434D02*
X030425Y023434D01*
X030492Y023407D02*
X030346Y023467D01*
X030188Y023467D01*
X030042Y023407D01*
X029930Y023295D01*
X029869Y023149D01*
X029869Y022991D01*
X029930Y022845D01*
X030042Y022733D01*
X030188Y022672D01*
X030346Y022672D01*
X030492Y022733D01*
X030604Y022845D01*
X030664Y022991D01*
X030664Y023149D01*
X030604Y023295D01*
X030492Y023407D01*
X030612Y023276D02*
X030922Y023276D01*
X030869Y023117D02*
X030664Y023117D01*
X030651Y022959D02*
X030882Y022959D01*
X030974Y022800D02*
X030559Y022800D01*
X029974Y022800D02*
X029559Y022800D01*
X029604Y022845D02*
X029664Y022991D01*
X029664Y023149D01*
X029604Y023295D01*
X029492Y023407D01*
X029346Y023467D01*
X029188Y023467D01*
X029042Y023407D01*
X028930Y023295D01*
X028869Y023149D01*
X028869Y022991D01*
X028930Y022845D01*
X029042Y022733D01*
X029188Y022672D01*
X029346Y022672D01*
X029492Y022733D01*
X029604Y022845D01*
X029651Y022959D02*
X029882Y022959D01*
X029869Y023117D02*
X029664Y023117D01*
X029612Y023276D02*
X029922Y023276D01*
X030108Y023434D02*
X029425Y023434D01*
X029346Y023672D02*
X029492Y023733D01*
X029604Y023845D01*
X029664Y023991D01*
X029664Y024149D01*
X029604Y024295D01*
X029492Y024407D01*
X029346Y024467D01*
X029188Y024467D01*
X029042Y024407D01*
X028930Y024295D01*
X028869Y024149D01*
X028869Y023991D01*
X028930Y023845D01*
X029042Y023733D01*
X029188Y023672D01*
X029346Y023672D01*
X029510Y023751D02*
X030023Y023751D01*
X030042Y023733D02*
X029930Y023845D01*
X029869Y023991D01*
X029869Y024149D01*
X029930Y024295D01*
X030042Y024407D01*
X030188Y024467D01*
X030346Y024467D01*
X030492Y024407D01*
X030604Y024295D01*
X030664Y024149D01*
X030664Y023991D01*
X030604Y023845D01*
X030492Y023733D01*
X030346Y023672D01*
X030188Y023672D01*
X030042Y023733D01*
X029903Y023910D02*
X029631Y023910D01*
X029664Y024068D02*
X029869Y024068D01*
X029901Y024227D02*
X029632Y024227D01*
X029513Y024385D02*
X030020Y024385D01*
X030513Y024385D02*
X031020Y024385D01*
X030901Y024227D02*
X030632Y024227D01*
X030664Y024068D02*
X030869Y024068D01*
X030903Y023910D02*
X030631Y023910D01*
X030510Y023751D02*
X031023Y023751D01*
X029108Y023434D02*
X028425Y023434D01*
X028492Y023407D02*
X028346Y023467D01*
X028188Y023467D01*
X028042Y023407D01*
X027930Y023295D01*
X027869Y023149D01*
X027869Y022991D01*
X027930Y022845D01*
X028042Y022733D01*
X028188Y022672D01*
X028346Y022672D01*
X028492Y022733D01*
X028604Y022845D01*
X028664Y022991D01*
X028664Y023149D01*
X028604Y023295D01*
X028492Y023407D01*
X028612Y023276D02*
X028922Y023276D01*
X028869Y023117D02*
X028664Y023117D01*
X028651Y022959D02*
X028882Y022959D01*
X028974Y022800D02*
X028559Y022800D01*
X027974Y022800D02*
X027559Y022800D01*
X027604Y022845D02*
X027664Y022991D01*
X027664Y023149D01*
X027604Y023295D01*
X027492Y023407D01*
X027346Y023467D01*
X027188Y023467D01*
X027042Y023407D01*
X026930Y023295D01*
X026869Y023149D01*
X026869Y022991D01*
X026930Y022845D01*
X027042Y022733D01*
X027188Y022672D01*
X027346Y022672D01*
X027492Y022733D01*
X027604Y022845D01*
X027651Y022959D02*
X027882Y022959D01*
X027869Y023117D02*
X027664Y023117D01*
X027612Y023276D02*
X027922Y023276D01*
X028108Y023434D02*
X027425Y023434D01*
X027346Y023672D02*
X027492Y023733D01*
X027604Y023845D01*
X027664Y023991D01*
X027664Y024149D01*
X027604Y024295D01*
X027492Y024407D01*
X027346Y024467D01*
X027188Y024467D01*
X027042Y024407D01*
X026930Y024295D01*
X026869Y024149D01*
X026869Y023991D01*
X026930Y023845D01*
X027042Y023733D01*
X027188Y023672D01*
X027346Y023672D01*
X027510Y023751D02*
X028023Y023751D01*
X028042Y023733D02*
X028188Y023672D01*
X028346Y023672D01*
X028492Y023733D01*
X028604Y023845D01*
X028664Y023991D01*
X028664Y024149D01*
X028604Y024295D01*
X028492Y024407D01*
X028346Y024467D01*
X028188Y024467D01*
X028042Y024407D01*
X027930Y024295D01*
X027869Y024149D01*
X027869Y023991D01*
X027930Y023845D01*
X028042Y023733D01*
X027903Y023910D02*
X027631Y023910D01*
X027664Y024068D02*
X027869Y024068D01*
X027901Y024227D02*
X027632Y024227D01*
X027513Y024385D02*
X028020Y024385D01*
X028513Y024385D02*
X029020Y024385D01*
X028901Y024227D02*
X028632Y024227D01*
X028664Y024068D02*
X028869Y024068D01*
X028903Y023910D02*
X028631Y023910D01*
X028510Y023751D02*
X029023Y023751D01*
X027108Y023434D02*
X026425Y023434D01*
X026492Y023407D02*
X026346Y023467D01*
X026188Y023467D01*
X026042Y023407D01*
X025930Y023295D01*
X025869Y023149D01*
X025869Y022991D01*
X025930Y022845D01*
X026042Y022733D01*
X026188Y022672D01*
X026346Y022672D01*
X026492Y022733D01*
X026604Y022845D01*
X026664Y022991D01*
X026664Y023149D01*
X026604Y023295D01*
X026492Y023407D01*
X026612Y023276D02*
X026922Y023276D01*
X026869Y023117D02*
X026664Y023117D01*
X026651Y022959D02*
X026882Y022959D01*
X026974Y022800D02*
X026559Y022800D01*
X025974Y022800D02*
X025612Y022800D01*
X025691Y022959D02*
X025882Y022959D01*
X025869Y023117D02*
X025702Y023117D01*
X025653Y023276D02*
X025922Y023276D01*
X026108Y023434D02*
X025509Y023434D01*
X025267Y023434D02*
X025267Y023434D01*
X025267Y023276D02*
X025267Y023276D01*
X025267Y023117D02*
X025267Y023117D01*
X025267Y022959D02*
X025267Y022959D01*
X025267Y022800D02*
X025267Y022800D01*
X024922Y022800D02*
X024559Y022800D01*
X024604Y022845D02*
X024664Y022991D01*
X024664Y023149D01*
X024604Y023295D01*
X024492Y023407D01*
X024346Y023467D01*
X024188Y023467D01*
X024042Y023407D01*
X023930Y023295D01*
X023869Y023149D01*
X023869Y022991D01*
X023930Y022845D01*
X024042Y022733D01*
X024188Y022672D01*
X024346Y022672D01*
X024492Y022733D01*
X024604Y022845D01*
X024651Y022959D02*
X024843Y022959D01*
X024831Y023117D02*
X024664Y023117D01*
X024612Y023276D02*
X024881Y023276D01*
X025024Y023434D02*
X024425Y023434D01*
X024346Y023672D02*
X024492Y023733D01*
X024604Y023845D01*
X024664Y023991D01*
X024664Y024149D01*
X024604Y024295D01*
X024492Y024407D01*
X024346Y024467D01*
X024188Y024467D01*
X024042Y024407D01*
X023930Y024295D01*
X023869Y024149D01*
X023869Y023991D01*
X023930Y023845D01*
X024042Y023733D01*
X024188Y023672D01*
X024346Y023672D01*
X024510Y023751D02*
X025023Y023751D01*
X025042Y023733D02*
X025188Y023672D01*
X025346Y023672D01*
X025492Y023733D01*
X025604Y023845D01*
X025664Y023991D01*
X025664Y024149D01*
X025604Y024295D01*
X025492Y024407D01*
X025346Y024467D01*
X025188Y024467D01*
X025042Y024407D01*
X024930Y024295D01*
X024869Y024149D01*
X024869Y023991D01*
X024930Y023845D01*
X025042Y023733D01*
X024903Y023910D02*
X024631Y023910D01*
X024664Y024068D02*
X024869Y024068D01*
X024901Y024227D02*
X024632Y024227D01*
X024513Y024385D02*
X025020Y024385D01*
X025513Y024385D02*
X026020Y024385D01*
X026042Y024407D02*
X025930Y024295D01*
X025869Y024149D01*
X025869Y023991D01*
X025930Y023845D01*
X026042Y023733D01*
X026188Y023672D01*
X026346Y023672D01*
X026492Y023733D01*
X026604Y023845D01*
X026664Y023991D01*
X026664Y024149D01*
X026604Y024295D01*
X026492Y024407D01*
X026346Y024467D01*
X026188Y024467D01*
X026042Y024407D01*
X025901Y024227D02*
X025632Y024227D01*
X025664Y024068D02*
X025869Y024068D01*
X025903Y023910D02*
X025631Y023910D01*
X025510Y023751D02*
X026023Y023751D01*
X026510Y023751D02*
X027023Y023751D01*
X026903Y023910D02*
X026631Y023910D01*
X026664Y024068D02*
X026869Y024068D01*
X026901Y024227D02*
X026632Y024227D01*
X026513Y024385D02*
X027020Y024385D01*
X024020Y024385D02*
X023513Y024385D01*
X023492Y024407D02*
X023346Y024467D01*
X023188Y024467D01*
X023042Y024407D01*
X022930Y024295D01*
X022869Y024149D01*
X022869Y023991D01*
X022930Y023845D01*
X023042Y023733D01*
X023188Y023672D01*
X023346Y023672D01*
X023492Y023733D01*
X023604Y023845D01*
X023664Y023991D01*
X023664Y024149D01*
X023604Y024295D01*
X023492Y024407D01*
X023632Y024227D02*
X023901Y024227D01*
X023869Y024068D02*
X023664Y024068D01*
X023631Y023910D02*
X023903Y023910D01*
X024023Y023751D02*
X023510Y023751D01*
X023425Y023434D02*
X024108Y023434D01*
X023922Y023276D02*
X023612Y023276D01*
X023604Y023295D02*
X023492Y023407D01*
X023346Y023467D01*
X023188Y023467D01*
X023042Y023407D01*
X022930Y023295D01*
X022869Y023149D01*
X022869Y022991D01*
X022930Y022845D01*
X023042Y022733D01*
X023188Y022672D01*
X023346Y022672D01*
X023492Y022733D01*
X023604Y022845D01*
X023664Y022991D01*
X023664Y023149D01*
X023604Y023295D01*
X023664Y023117D02*
X023869Y023117D01*
X023882Y022959D02*
X023651Y022959D01*
X023559Y022800D02*
X023974Y022800D01*
X022974Y022800D02*
X022559Y022800D01*
X022604Y022845D02*
X022664Y022991D01*
X022664Y023149D01*
X022604Y023295D01*
X022492Y023407D01*
X022346Y023467D01*
X022188Y023467D01*
X022042Y023407D01*
X021930Y023295D01*
X021869Y023149D01*
X021869Y022991D01*
X021930Y022845D01*
X022042Y022733D01*
X022188Y022672D01*
X022346Y022672D01*
X022492Y022733D01*
X022604Y022845D01*
X022651Y022959D02*
X022882Y022959D01*
X022869Y023117D02*
X022664Y023117D01*
X022612Y023276D02*
X022922Y023276D01*
X023108Y023434D02*
X022425Y023434D01*
X022346Y023672D02*
X022492Y023733D01*
X022604Y023845D01*
X022664Y023991D01*
X022664Y024149D01*
X022604Y024295D01*
X022492Y024407D01*
X022346Y024467D01*
X022188Y024467D01*
X022042Y024407D01*
X021930Y024295D01*
X021869Y024149D01*
X021869Y023991D01*
X021930Y023845D01*
X022042Y023733D01*
X022188Y023672D01*
X022346Y023672D01*
X022510Y023751D02*
X023023Y023751D01*
X022903Y023910D02*
X022631Y023910D01*
X022664Y024068D02*
X022869Y024068D01*
X022901Y024227D02*
X022632Y024227D01*
X022513Y024385D02*
X023020Y024385D01*
X022020Y024385D02*
X021513Y024385D01*
X021492Y024407D02*
X021604Y024295D01*
X021664Y024149D01*
X021664Y023991D01*
X021604Y023845D01*
X021492Y023733D01*
X021346Y023672D01*
X021188Y023672D01*
X021042Y023733D01*
X020930Y023845D01*
X020869Y023991D01*
X020869Y024149D01*
X020930Y024295D01*
X021042Y024407D01*
X021188Y024467D01*
X021346Y024467D01*
X021492Y024407D01*
X021632Y024227D02*
X021901Y024227D01*
X021869Y024068D02*
X021664Y024068D01*
X021631Y023910D02*
X021903Y023910D01*
X022023Y023751D02*
X021510Y023751D01*
X021425Y023434D02*
X022108Y023434D01*
X021922Y023276D02*
X021612Y023276D01*
X021604Y023295D02*
X021492Y023407D01*
X021346Y023467D01*
X021188Y023467D01*
X021042Y023407D01*
X020930Y023295D01*
X020869Y023149D01*
X020869Y022991D01*
X020930Y022845D01*
X021042Y022733D01*
X021188Y022672D01*
X021346Y022672D01*
X021492Y022733D01*
X021604Y022845D01*
X021664Y022991D01*
X021664Y023149D01*
X021604Y023295D01*
X021664Y023117D02*
X021869Y023117D01*
X021882Y022959D02*
X021651Y022959D01*
X021559Y022800D02*
X021974Y022800D01*
X020974Y022800D02*
X020559Y022800D01*
X020604Y022845D02*
X020664Y022991D01*
X020664Y023149D01*
X020604Y023295D01*
X020492Y023407D01*
X020346Y023467D01*
X020188Y023467D01*
X020042Y023407D01*
X019930Y023295D01*
X019869Y023149D01*
X019869Y022991D01*
X019930Y022845D01*
X020042Y022733D01*
X020188Y022672D01*
X020346Y022672D01*
X020492Y022733D01*
X020604Y022845D01*
X020651Y022959D02*
X020882Y022959D01*
X020869Y023117D02*
X020664Y023117D01*
X020612Y023276D02*
X020922Y023276D01*
X021108Y023434D02*
X020425Y023434D01*
X020346Y023672D02*
X020492Y023733D01*
X020604Y023845D01*
X020664Y023991D01*
X020664Y024149D01*
X020604Y024295D01*
X020492Y024407D01*
X020346Y024467D01*
X020188Y024467D01*
X020042Y024407D01*
X019930Y024295D01*
X019869Y024149D01*
X019869Y023991D01*
X019930Y023845D01*
X020042Y023733D01*
X020188Y023672D01*
X020346Y023672D01*
X020510Y023751D02*
X021023Y023751D01*
X020903Y023910D02*
X020631Y023910D01*
X020664Y024068D02*
X020869Y024068D01*
X020901Y024227D02*
X020632Y024227D01*
X020513Y024385D02*
X021020Y024385D01*
X020020Y024385D02*
X019513Y024385D01*
X019492Y024407D02*
X019604Y024295D01*
X019664Y024149D01*
X019664Y023991D01*
X019604Y023845D01*
X019492Y023733D01*
X019346Y023672D01*
X019188Y023672D01*
X019042Y023733D01*
X018930Y023845D01*
X018869Y023991D01*
X018869Y024149D01*
X018930Y024295D01*
X019042Y024407D01*
X019188Y024467D01*
X019346Y024467D01*
X019492Y024407D01*
X019632Y024227D02*
X019901Y024227D01*
X019869Y024068D02*
X019664Y024068D01*
X019631Y023910D02*
X019903Y023910D01*
X020023Y023751D02*
X019510Y023751D01*
X019425Y023434D02*
X020108Y023434D01*
X019922Y023276D02*
X019612Y023276D01*
X019604Y023295D02*
X019492Y023407D01*
X019346Y023467D01*
X019188Y023467D01*
X019042Y023407D01*
X018930Y023295D01*
X018869Y023149D01*
X018869Y022991D01*
X018930Y022845D01*
X019042Y022733D01*
X019188Y022672D01*
X019346Y022672D01*
X019492Y022733D01*
X019604Y022845D01*
X019664Y022991D01*
X019664Y023149D01*
X019604Y023295D01*
X019664Y023117D02*
X019869Y023117D01*
X019882Y022959D02*
X019651Y022959D01*
X019559Y022800D02*
X019974Y022800D01*
X018974Y022800D02*
X018559Y022800D01*
X018604Y022845D02*
X018492Y022733D01*
X018346Y022672D01*
X018188Y022672D01*
X018042Y022733D01*
X017930Y022845D01*
X017869Y022991D01*
X017869Y023149D01*
X017930Y023295D01*
X018042Y023407D01*
X018188Y023467D01*
X018346Y023467D01*
X018492Y023407D01*
X018604Y023295D01*
X018664Y023149D01*
X018664Y022991D01*
X018604Y022845D01*
X018651Y022959D02*
X018882Y022959D01*
X018869Y023117D02*
X018664Y023117D01*
X018612Y023276D02*
X018922Y023276D01*
X019108Y023434D02*
X018425Y023434D01*
X018346Y023672D02*
X018492Y023733D01*
X018604Y023845D01*
X018664Y023991D01*
X018664Y024149D01*
X018604Y024295D01*
X018492Y024407D01*
X018346Y024467D01*
X018188Y024467D01*
X018042Y024407D01*
X017930Y024295D01*
X017869Y024149D01*
X017869Y023991D01*
X017930Y023845D01*
X018042Y023733D01*
X018188Y023672D01*
X018346Y023672D01*
X018510Y023751D02*
X019023Y023751D01*
X018903Y023910D02*
X018631Y023910D01*
X018664Y024068D02*
X018869Y024068D01*
X018901Y024227D02*
X018632Y024227D01*
X018513Y024385D02*
X019020Y024385D01*
X018020Y024385D02*
X017513Y024385D01*
X017492Y024407D02*
X017604Y024295D01*
X017664Y024149D01*
X017664Y023991D01*
X017604Y023845D01*
X017492Y023733D01*
X017346Y023672D01*
X017188Y023672D01*
X017042Y023733D01*
X016930Y023845D01*
X016869Y023991D01*
X016869Y024149D01*
X016930Y024295D01*
X017042Y024407D01*
X017188Y024467D01*
X017346Y024467D01*
X017492Y024407D01*
X017632Y024227D02*
X017901Y024227D01*
X017869Y024068D02*
X017664Y024068D01*
X017631Y023910D02*
X017903Y023910D01*
X018023Y023751D02*
X017510Y023751D01*
X017425Y023434D02*
X018108Y023434D01*
X017922Y023276D02*
X017612Y023276D01*
X017604Y023295D02*
X017492Y023407D01*
X017346Y023467D01*
X017188Y023467D01*
X017042Y023407D01*
X016930Y023295D01*
X016869Y023149D01*
X016869Y022991D01*
X016930Y022845D01*
X017042Y022733D01*
X017188Y022672D01*
X017346Y022672D01*
X017492Y022733D01*
X017604Y022845D01*
X017664Y022991D01*
X017664Y023149D01*
X017604Y023295D01*
X017664Y023117D02*
X017869Y023117D01*
X017882Y022959D02*
X017651Y022959D01*
X017559Y022800D02*
X017974Y022800D01*
X016974Y022800D02*
X016612Y022800D01*
X016691Y022959D02*
X016882Y022959D01*
X016869Y023117D02*
X016702Y023117D01*
X016653Y023276D02*
X016922Y023276D01*
X017108Y023434D02*
X016509Y023434D01*
X016267Y023434D02*
X016267Y023434D01*
X016267Y023276D02*
X016267Y023276D01*
X016267Y023117D02*
X016267Y023117D01*
X016267Y022959D02*
X016267Y022959D01*
X016267Y022800D02*
X016267Y022800D01*
X015922Y022800D02*
X015559Y022800D01*
X015651Y022959D02*
X015843Y022959D01*
X015831Y023117D02*
X015664Y023117D01*
X015612Y023276D02*
X015881Y023276D01*
X016024Y023434D02*
X015425Y023434D01*
X015510Y023751D02*
X016023Y023751D01*
X016042Y023733D02*
X016188Y023672D01*
X016346Y023672D01*
X016492Y023733D01*
X016604Y023845D01*
X016664Y023991D01*
X016664Y024149D01*
X016604Y024295D01*
X016492Y024407D01*
X016346Y024467D01*
X016188Y024467D01*
X016042Y024407D01*
X015930Y024295D01*
X015869Y024149D01*
X015869Y023991D01*
X015930Y023845D01*
X016042Y023733D01*
X015903Y023910D02*
X015631Y023910D01*
X015664Y024068D02*
X015869Y024068D01*
X015901Y024227D02*
X015632Y024227D01*
X015513Y024385D02*
X016020Y024385D01*
X016513Y024385D02*
X017020Y024385D01*
X016901Y024227D02*
X016632Y024227D01*
X016664Y024068D02*
X016869Y024068D01*
X016903Y023910D02*
X016631Y023910D01*
X016510Y023751D02*
X017023Y023751D01*
X017102Y027080D02*
X017431Y027080D01*
X017367Y027238D02*
X017167Y027238D01*
X017167Y027397D02*
X017367Y027397D01*
X017367Y027555D02*
X017167Y027555D01*
X017167Y027714D02*
X017367Y027714D01*
X017367Y027872D02*
X017167Y027872D01*
X017116Y028031D02*
X017417Y028031D01*
X017589Y028189D02*
X016944Y028189D01*
X016589Y028189D02*
X015944Y028189D01*
X016116Y028031D02*
X016417Y028031D01*
X016367Y027872D02*
X016167Y027872D01*
X016167Y027714D02*
X016367Y027714D01*
X016367Y027555D02*
X016167Y027555D01*
X016167Y027397D02*
X016367Y027397D01*
X016367Y027238D02*
X016167Y027238D01*
X016102Y027080D02*
X016431Y027080D01*
X015431Y027080D02*
X015102Y027080D01*
X015167Y027238D02*
X015367Y027238D01*
X015367Y027397D02*
X015167Y027397D01*
X015167Y027555D02*
X015367Y027555D01*
X015367Y027714D02*
X015167Y027714D01*
X015167Y027872D02*
X015367Y027872D01*
X015417Y028031D02*
X015116Y028031D01*
X014944Y028189D02*
X015589Y028189D01*
X014589Y028189D02*
X013944Y028189D01*
X014116Y028031D02*
X014417Y028031D01*
X014367Y027872D02*
X014167Y027872D01*
X014167Y027714D02*
X014367Y027714D01*
X014367Y027555D02*
X014167Y027555D01*
X014167Y027397D02*
X014367Y027397D01*
X014367Y027238D02*
X014167Y027238D01*
X014102Y027080D02*
X014431Y027080D01*
X013431Y027080D02*
X013102Y027080D01*
X013167Y027238D02*
X013367Y027238D01*
X013367Y027397D02*
X013167Y027397D01*
X013167Y027555D02*
X013367Y027555D01*
X013367Y027714D02*
X013167Y027714D01*
X013167Y027872D02*
X013367Y027872D01*
X013417Y028031D02*
X013116Y028031D01*
X012944Y028189D02*
X013589Y028189D01*
X012589Y028189D02*
X011944Y028189D01*
X012116Y028031D02*
X012417Y028031D01*
X012367Y027872D02*
X012167Y027872D01*
X012167Y027714D02*
X012367Y027714D01*
X012367Y027555D02*
X012167Y027555D01*
X012167Y027397D02*
X012367Y027397D01*
X012367Y027238D02*
X012167Y027238D01*
X012102Y027080D02*
X012431Y027080D01*
X011431Y027080D02*
X011102Y027080D01*
X011167Y027238D02*
X011367Y027238D01*
X011367Y027397D02*
X011167Y027397D01*
X011167Y027555D02*
X011367Y027555D01*
X011367Y027714D02*
X011167Y027714D01*
X011167Y027872D02*
X011367Y027872D01*
X011417Y028031D02*
X011116Y028031D01*
X010944Y028189D02*
X011589Y028189D01*
X010589Y028189D02*
X002007Y028189D01*
X002007Y028031D02*
X010417Y028031D01*
X010367Y027872D02*
X002007Y027872D01*
X002007Y027714D02*
X010367Y027714D01*
X010367Y027555D02*
X002007Y027555D01*
X002007Y027397D02*
X010367Y027397D01*
X010367Y027238D02*
X002007Y027238D01*
X002007Y027080D02*
X010431Y027080D01*
X010632Y029933D02*
X002007Y029933D01*
X002007Y030091D02*
X010424Y030091D01*
X010367Y030250D02*
X002007Y030250D01*
X002007Y030408D02*
X010367Y030408D01*
X010367Y030567D02*
X002007Y030567D01*
X002007Y030725D02*
X010367Y030725D01*
X010367Y030884D02*
X002007Y030884D01*
X002007Y031042D02*
X010422Y031042D01*
X012152Y031042D02*
X012422Y031042D01*
X012367Y030884D02*
X012204Y030884D01*
X012207Y030725D02*
X012367Y030725D01*
X012367Y030567D02*
X012207Y030567D01*
X012207Y030408D02*
X012367Y030408D01*
X012367Y030250D02*
X012203Y030250D01*
X012149Y030091D02*
X012424Y030091D01*
X012632Y029933D02*
X011996Y029933D01*
X012902Y029933D02*
X013632Y029933D01*
X013424Y030091D02*
X013109Y030091D01*
X013167Y030250D02*
X013367Y030250D01*
X013367Y030408D02*
X013167Y030408D01*
X013167Y030567D02*
X013367Y030567D01*
X013367Y030725D02*
X013167Y030725D01*
X013167Y030884D02*
X013367Y030884D01*
X013422Y031042D02*
X013112Y031042D01*
X014112Y031042D02*
X014422Y031042D01*
X014367Y030884D02*
X014167Y030884D01*
X014167Y030725D02*
X014367Y030725D01*
X014367Y030567D02*
X014167Y030567D01*
X014167Y030408D02*
X014367Y030408D01*
X014367Y030250D02*
X014167Y030250D01*
X014109Y030091D02*
X014424Y030091D01*
X014632Y029933D02*
X013902Y029933D01*
X014902Y029933D02*
X015632Y029933D01*
X015424Y030091D02*
X015109Y030091D01*
X015167Y030250D02*
X015367Y030250D01*
X015367Y030408D02*
X015167Y030408D01*
X015167Y030567D02*
X015367Y030567D01*
X015367Y030725D02*
X015167Y030725D01*
X015167Y030884D02*
X015367Y030884D01*
X015422Y031042D02*
X015112Y031042D01*
X016112Y031042D02*
X016422Y031042D01*
X016367Y030884D02*
X016167Y030884D01*
X016167Y030725D02*
X016367Y030725D01*
X016367Y030567D02*
X016167Y030567D01*
X016167Y030408D02*
X016367Y030408D01*
X016367Y030250D02*
X016167Y030250D01*
X016109Y030091D02*
X016424Y030091D01*
X016632Y029933D02*
X015902Y029933D01*
X016902Y029933D02*
X017632Y029933D01*
X017424Y030091D02*
X017109Y030091D01*
X017167Y030250D02*
X017367Y030250D01*
X017367Y030408D02*
X017167Y030408D01*
X017167Y030567D02*
X017367Y030567D01*
X017367Y030725D02*
X017167Y030725D01*
X017167Y030884D02*
X017367Y030884D01*
X017422Y031042D02*
X017112Y031042D01*
X018112Y031042D02*
X018422Y031042D01*
X018367Y030884D02*
X018167Y030884D01*
X018167Y030725D02*
X018367Y030725D01*
X018367Y030567D02*
X018167Y030567D01*
X018167Y030408D02*
X018367Y030408D01*
X018367Y030250D02*
X018167Y030250D01*
X018109Y030091D02*
X018424Y030091D01*
X018632Y029933D02*
X017902Y029933D01*
X018902Y029933D02*
X019632Y029933D01*
X019424Y030091D02*
X019109Y030091D01*
X019167Y030250D02*
X019367Y030250D01*
X019367Y030408D02*
X019167Y030408D01*
X019167Y030567D02*
X019367Y030567D01*
X019367Y030725D02*
X019167Y030725D01*
X019167Y030884D02*
X019367Y030884D01*
X019422Y031042D02*
X019112Y031042D01*
X018589Y028189D02*
X017944Y028189D01*
X018116Y028031D02*
X018417Y028031D01*
X018367Y027872D02*
X018167Y027872D01*
X018167Y027714D02*
X018367Y027714D01*
X018367Y027555D02*
X018167Y027555D01*
X018167Y027397D02*
X018367Y027397D01*
X018367Y027238D02*
X018167Y027238D01*
X018102Y027080D02*
X018431Y027080D01*
X010637Y019564D02*
X010514Y019687D01*
X010354Y019754D01*
X010180Y019754D01*
X010019Y019687D01*
X009896Y019564D01*
X009830Y019404D01*
X009830Y018636D01*
X009896Y018476D01*
X010019Y018353D01*
X010180Y018286D01*
X010354Y018286D01*
X010514Y018353D01*
X010637Y018476D01*
X010704Y018636D01*
X010704Y019404D01*
X010637Y019564D01*
X010571Y019630D02*
X033405Y019630D01*
X033394Y019619D02*
X033327Y019457D01*
X033327Y018682D01*
X033394Y018521D01*
X010656Y018521D01*
X010704Y018679D02*
X033328Y018679D01*
X033327Y018838D02*
X010704Y018838D01*
X010704Y018996D02*
X033327Y018996D01*
X033327Y019155D02*
X010704Y019155D01*
X010704Y019313D02*
X033327Y019313D01*
X033333Y019472D02*
X010675Y019472D01*
X009963Y019630D02*
X009627Y019630D01*
X009630Y019627D02*
X009577Y019680D01*
X009517Y019725D01*
X009450Y019759D01*
X009378Y019782D01*
X009304Y019794D01*
X009285Y019794D01*
X009285Y019038D01*
X009744Y019038D01*
X009744Y019354D01*
X009732Y019428D01*
X009709Y019500D01*
X009675Y019567D01*
X009630Y019627D01*
X009718Y019472D02*
X009858Y019472D01*
X009830Y019313D02*
X009744Y019313D01*
X009744Y019155D02*
X009830Y019155D01*
X009830Y018996D02*
X009744Y018996D01*
X009744Y019001D02*
X009285Y019001D01*
X009285Y018246D01*
X009304Y018246D01*
X009378Y018258D01*
X009450Y018281D01*
X009517Y018315D01*
X009577Y018359D01*
X009630Y018412D01*
X009675Y018473D01*
X009709Y018540D01*
X009732Y018611D01*
X009744Y018686D01*
X009744Y019001D01*
X009744Y018838D02*
X009830Y018838D01*
X009830Y018679D02*
X009743Y018679D01*
X009699Y018521D02*
X009878Y018521D01*
X010010Y018362D02*
X009580Y018362D01*
X009285Y018362D02*
X009248Y018362D01*
X009248Y018246D02*
X009248Y019001D01*
X009285Y019001D01*
X009285Y019038D01*
X009248Y019038D01*
X009248Y019001D01*
X008790Y019001D01*
X008790Y018686D01*
X008802Y018611D01*
X008825Y018540D01*
X008859Y018473D01*
X008903Y018412D01*
X008956Y018359D01*
X009017Y018315D01*
X009084Y018281D01*
X009155Y018258D01*
X009229Y018246D01*
X009248Y018246D01*
X009248Y018521D02*
X009285Y018521D01*
X009285Y018679D02*
X009248Y018679D01*
X009248Y018838D02*
X009285Y018838D01*
X009285Y018996D02*
X009248Y018996D01*
X009248Y019038D02*
X008790Y019038D01*
X008790Y019354D01*
X008802Y019428D01*
X008825Y019500D01*
X008859Y019567D01*
X008903Y019627D01*
X008956Y019680D01*
X009017Y019725D01*
X009084Y019759D01*
X009155Y019782D01*
X009229Y019794D01*
X009248Y019794D01*
X009248Y019038D01*
X009248Y019155D02*
X009285Y019155D01*
X009285Y019313D02*
X009248Y019313D01*
X009248Y019472D02*
X009285Y019472D01*
X009285Y019630D02*
X009248Y019630D01*
X009248Y019789D02*
X009285Y019789D01*
X009334Y019789D02*
X033628Y019789D01*
X033679Y019810D02*
X033517Y019743D01*
X033394Y019619D01*
X033679Y019810D02*
X033854Y019810D01*
X034016Y019743D01*
X034140Y019619D01*
X034207Y019457D01*
X034207Y018682D01*
X034140Y018521D01*
X034394Y018521D01*
X034517Y018397D01*
X034679Y018330D01*
X034854Y018330D01*
X035016Y018397D01*
X035140Y018521D01*
X035394Y018521D01*
X035517Y018397D01*
X035679Y018330D01*
X035854Y018330D01*
X036016Y018397D01*
X036140Y018521D01*
X036394Y018521D01*
X036517Y018397D01*
X036679Y018330D01*
X036854Y018330D01*
X037016Y018397D01*
X037140Y018521D01*
X040519Y018521D01*
X040519Y018679D02*
X037205Y018679D01*
X037207Y018682D02*
X037207Y019457D01*
X037140Y019619D01*
X037016Y019743D01*
X036854Y019810D01*
X036679Y019810D01*
X036517Y019743D01*
X036394Y019619D01*
X036327Y019457D01*
X036327Y018682D01*
X036394Y018521D01*
X036328Y018679D02*
X036205Y018679D01*
X036207Y018682D02*
X036207Y019457D01*
X036140Y019619D01*
X036016Y019743D01*
X035854Y019810D01*
X035679Y019810D01*
X035517Y019743D01*
X035394Y019619D01*
X035327Y019457D01*
X035327Y018682D01*
X035394Y018521D01*
X035328Y018679D02*
X035205Y018679D01*
X035207Y018682D02*
X035207Y019457D01*
X035140Y019619D01*
X035016Y019743D01*
X034854Y019810D01*
X034679Y019810D01*
X034517Y019743D01*
X034394Y019619D01*
X034327Y019457D01*
X034327Y018682D01*
X034394Y018521D01*
X034328Y018679D02*
X034205Y018679D01*
X034207Y018838D02*
X034327Y018838D01*
X034327Y018996D02*
X034207Y018996D01*
X034207Y019155D02*
X034327Y019155D01*
X034327Y019313D02*
X034207Y019313D01*
X034201Y019472D02*
X034333Y019472D01*
X034405Y019630D02*
X034128Y019630D01*
X033905Y019789D02*
X034628Y019789D01*
X034905Y019789D02*
X035628Y019789D01*
X035405Y019630D02*
X035128Y019630D01*
X035201Y019472D02*
X035333Y019472D01*
X035327Y019313D02*
X035207Y019313D01*
X035207Y019155D02*
X035327Y019155D01*
X035327Y018996D02*
X035207Y018996D01*
X035207Y018838D02*
X035327Y018838D01*
X035207Y018682D02*
X035140Y018521D01*
X034933Y018362D02*
X035601Y018362D01*
X035933Y018362D02*
X036601Y018362D01*
X036933Y018362D02*
X040519Y018362D01*
X040519Y018204D02*
X002007Y018204D01*
X002007Y018362D02*
X003206Y018362D01*
X003197Y018366D02*
X003318Y018316D01*
X003443Y018278D01*
X003571Y018253D01*
X003687Y018241D01*
X003687Y019490D01*
X003847Y019490D01*
X003847Y019650D01*
X005095Y019650D01*
X005084Y019765D01*
X005058Y019893D01*
X005020Y020018D01*
X004970Y020139D01*
X004909Y020254D01*
X004836Y020363D01*
X004753Y020464D01*
X004661Y020557D01*
X004560Y020639D01*
X004451Y020712D01*
X004336Y020774D01*
X004215Y020824D01*
X004090Y020862D01*
X003962Y020887D01*
X003847Y020898D01*
X040519Y020898D01*
X040519Y020740D02*
X004399Y020740D01*
X004631Y020581D02*
X040519Y020581D01*
X040519Y020423D02*
X004787Y020423D01*
X004902Y020264D02*
X040519Y020264D01*
X040519Y020106D02*
X004984Y020106D01*
X005042Y019947D02*
X040519Y019947D01*
X040519Y019789D02*
X036905Y019789D01*
X037128Y019630D02*
X040519Y019630D01*
X040519Y019472D02*
X037201Y019472D01*
X037207Y019313D02*
X040519Y019313D01*
X040519Y019155D02*
X037207Y019155D01*
X037207Y018996D02*
X040519Y018996D01*
X040519Y018838D02*
X037207Y018838D01*
X037207Y018682D02*
X037140Y018521D01*
X036327Y018838D02*
X036207Y018838D01*
X036207Y018682D02*
X036140Y018521D01*
X036207Y018996D02*
X036327Y018996D01*
X036327Y019155D02*
X036207Y019155D01*
X036207Y019313D02*
X036327Y019313D01*
X036333Y019472D02*
X036201Y019472D01*
X036128Y019630D02*
X036405Y019630D01*
X036628Y019789D02*
X035905Y019789D01*
X034601Y018362D02*
X033933Y018362D01*
X033854Y018330D02*
X034016Y018397D01*
X034140Y018521D01*
X033854Y018330D02*
X033679Y018330D01*
X033517Y018397D01*
X033394Y018521D01*
X033601Y018362D02*
X010524Y018362D01*
X008953Y018362D02*
X004327Y018362D01*
X004336Y018366D02*
X004451Y018428D01*
X004560Y018500D01*
X004661Y018583D01*
X004753Y018676D01*
X004836Y018777D01*
X004909Y018885D01*
X004970Y019001D01*
X005020Y019121D01*
X005058Y019246D01*
X005084Y019374D01*
X005095Y019490D01*
X003847Y019490D01*
X003847Y018241D01*
X003962Y018253D01*
X004090Y018278D01*
X004215Y018316D01*
X004336Y018366D01*
X004585Y018521D02*
X008834Y018521D01*
X008791Y018679D02*
X004756Y018679D01*
X004877Y018838D02*
X008790Y018838D01*
X008790Y018996D02*
X004968Y018996D01*
X005031Y019155D02*
X008790Y019155D01*
X008790Y019313D02*
X005072Y019313D01*
X005093Y019472D02*
X008816Y019472D01*
X008906Y019630D02*
X003847Y019630D01*
X003847Y019650D02*
X003687Y019650D01*
X003687Y020898D01*
X003847Y020898D01*
X003847Y019650D01*
X003847Y019789D02*
X003687Y019789D01*
X003687Y019650D02*
X003687Y019490D01*
X002438Y019490D01*
X002449Y019374D01*
X002475Y019246D01*
X002513Y019121D01*
X002563Y019001D01*
X002625Y018885D01*
X002697Y018777D01*
X002780Y018676D01*
X002872Y018583D01*
X002973Y018500D01*
X003082Y018428D01*
X003197Y018366D01*
X002948Y018521D02*
X002007Y018521D01*
X002007Y018679D02*
X002777Y018679D01*
X002656Y018838D02*
X002007Y018838D01*
X002007Y018996D02*
X002565Y018996D01*
X002503Y019155D02*
X002007Y019155D01*
X002007Y019313D02*
X002462Y019313D01*
X002440Y019472D02*
X002007Y019472D01*
X002007Y019630D02*
X003687Y019630D01*
X003687Y019650D02*
X002438Y019650D01*
X002449Y019765D01*
X002475Y019893D01*
X002513Y020018D01*
X002563Y020139D01*
X002625Y020254D01*
X002697Y020363D01*
X002780Y020464D01*
X002872Y020557D01*
X002973Y020639D01*
X003082Y020712D01*
X003197Y020774D01*
X003318Y020824D01*
X003443Y020862D01*
X003571Y020887D01*
X003687Y020898D01*
X003686Y020898D02*
X002007Y020898D01*
X002007Y020740D02*
X003134Y020740D01*
X002903Y020581D02*
X002007Y020581D01*
X002007Y020423D02*
X002746Y020423D01*
X002631Y020264D02*
X002007Y020264D01*
X002007Y020106D02*
X002549Y020106D01*
X002491Y019947D02*
X002007Y019947D01*
X002007Y019789D02*
X002454Y019789D01*
X003687Y019947D02*
X003847Y019947D01*
X003847Y020106D02*
X003687Y020106D01*
X003687Y020264D02*
X003847Y020264D01*
X003847Y020423D02*
X003687Y020423D01*
X003687Y020581D02*
X003847Y020581D01*
X003847Y020740D02*
X003687Y020740D01*
X003687Y019472D02*
X003847Y019472D01*
X003847Y019313D02*
X003687Y019313D01*
X003687Y019155D02*
X003847Y019155D01*
X003847Y018996D02*
X003687Y018996D01*
X003687Y018838D02*
X003847Y018838D01*
X003847Y018679D02*
X003687Y018679D01*
X003687Y018521D02*
X003847Y018521D01*
X003847Y018362D02*
X003687Y018362D01*
X005079Y019789D02*
X009199Y019789D01*
X002007Y021057D02*
X040519Y021057D01*
X040519Y021215D02*
X002007Y021215D01*
X002007Y021374D02*
X040519Y021374D01*
X040519Y021532D02*
X002007Y021532D01*
X002007Y018045D02*
X040519Y018045D01*
X040519Y017887D02*
X002007Y017887D01*
X002007Y031518D02*
X028993Y031518D01*
X029040Y031471D02*
X029187Y031410D01*
X029346Y031410D01*
X029493Y031471D01*
X029606Y031583D01*
X029667Y031730D01*
X029667Y032409D01*
X029606Y032556D01*
X029493Y032669D01*
X029346Y032730D01*
X029187Y032730D01*
X029040Y032669D01*
X028928Y032556D01*
X028867Y032409D01*
X028867Y031730D01*
X028928Y031583D01*
X029040Y031471D01*
X028889Y031676D02*
X002007Y031676D01*
X002007Y031835D02*
X028867Y031835D01*
X028867Y031993D02*
X002007Y031993D01*
X002007Y032152D02*
X028867Y032152D01*
X028867Y032310D02*
X002007Y032310D01*
X002007Y032469D02*
X028891Y032469D01*
X028999Y032627D02*
X002007Y032627D01*
X002007Y034054D02*
X028151Y034054D01*
X028090Y034212D02*
X002007Y034212D01*
X002007Y034371D02*
X028101Y034371D01*
X028194Y034529D02*
X002007Y034529D01*
X014267Y042771D02*
X014267Y042771D01*
X014267Y042930D02*
X014267Y042930D01*
X014267Y043088D02*
X014267Y043088D01*
X014267Y043247D02*
X014267Y043247D01*
X014267Y043405D02*
X014267Y043405D01*
X014267Y043722D02*
X014267Y043722D01*
X014267Y043881D02*
X014267Y043881D01*
X014267Y044039D02*
X014267Y044039D01*
X014267Y044198D02*
X014267Y044198D01*
X014267Y044356D02*
X014267Y044356D01*
X014599Y044356D02*
X014991Y044356D01*
X015042Y044407D02*
X014930Y044295D01*
X014869Y044149D01*
X014869Y043991D01*
X014930Y043845D01*
X015042Y043733D01*
X015188Y043672D01*
X015346Y043672D01*
X015492Y043733D01*
X015604Y043845D01*
X015664Y043991D01*
X015664Y044149D01*
X015604Y044295D01*
X015492Y044407D01*
X015346Y044467D01*
X015188Y044467D01*
X015042Y044407D01*
X014889Y044198D02*
X014685Y044198D01*
X014704Y044039D02*
X014869Y044039D01*
X014915Y043881D02*
X014661Y043881D01*
X014533Y043722D02*
X015067Y043722D01*
X015188Y043467D02*
X015042Y043407D01*
X014930Y043295D01*
X014869Y043149D01*
X014869Y042991D01*
X014930Y042845D01*
X015042Y042733D01*
X015188Y042672D01*
X015346Y042672D01*
X015492Y042733D01*
X015604Y042845D01*
X015664Y042991D01*
X015664Y043149D01*
X015604Y043295D01*
X015492Y043407D01*
X015346Y043467D01*
X015188Y043467D01*
X015040Y043405D02*
X014687Y043405D01*
X014704Y043247D02*
X014910Y043247D01*
X014869Y043088D02*
X014704Y043088D01*
X014704Y042930D02*
X014894Y042930D01*
X015003Y042771D02*
X014700Y042771D01*
X015530Y042771D02*
X016003Y042771D01*
X016042Y042733D02*
X016188Y042672D01*
X016346Y042672D01*
X016492Y042733D01*
X016604Y042845D01*
X016664Y042991D01*
X016664Y043149D01*
X016604Y043295D01*
X016492Y043407D01*
X016346Y043467D01*
X016188Y043467D01*
X016042Y043407D01*
X015930Y043295D01*
X015869Y043149D01*
X015869Y042991D01*
X015930Y042845D01*
X016042Y042733D01*
X015894Y042930D02*
X015639Y042930D01*
X015664Y043088D02*
X015869Y043088D01*
X015910Y043247D02*
X015624Y043247D01*
X015493Y043405D02*
X016040Y043405D01*
X016188Y043672D02*
X016346Y043672D01*
X016492Y043733D01*
X016604Y043845D01*
X016664Y043991D01*
X016664Y044149D01*
X016604Y044295D01*
X016492Y044407D01*
X016346Y044467D01*
X016188Y044467D01*
X016042Y044407D01*
X015930Y044295D01*
X015869Y044149D01*
X015869Y043991D01*
X015930Y043845D01*
X016042Y043733D01*
X016188Y043672D01*
X016067Y043722D02*
X015466Y043722D01*
X015619Y043881D02*
X015915Y043881D01*
X015869Y044039D02*
X015664Y044039D01*
X015644Y044198D02*
X015889Y044198D01*
X015991Y044356D02*
X015542Y044356D01*
X015973Y044832D02*
X002007Y044832D01*
X002007Y044990D02*
X015892Y044990D01*
X015892Y045149D02*
X002007Y045149D01*
X002007Y045307D02*
X015972Y045307D01*
X016561Y045307D02*
X023972Y045307D01*
X023973Y044832D02*
X016561Y044832D01*
X016542Y044356D02*
X016991Y044356D01*
X017042Y044407D02*
X016930Y044295D01*
X016869Y044149D01*
X016869Y043991D01*
X016930Y043845D01*
X017042Y043733D01*
X017188Y043672D01*
X017346Y043672D01*
X017492Y043733D01*
X017604Y043845D01*
X017664Y043991D01*
X017664Y044149D01*
X017604Y044295D01*
X017492Y044407D01*
X017346Y044467D01*
X017188Y044467D01*
X017042Y044407D01*
X016889Y044198D02*
X016644Y044198D01*
X016664Y044039D02*
X016869Y044039D01*
X016915Y043881D02*
X016619Y043881D01*
X016466Y043722D02*
X017067Y043722D01*
X017188Y043467D02*
X017042Y043407D01*
X016930Y043295D01*
X016869Y043149D01*
X016869Y042991D01*
X016930Y042845D01*
X017042Y042733D01*
X017188Y042672D01*
X017346Y042672D01*
X017492Y042733D01*
X017604Y042845D01*
X017664Y042991D01*
X017664Y043149D01*
X017604Y043295D01*
X017492Y043407D01*
X017346Y043467D01*
X017188Y043467D01*
X017040Y043405D02*
X016493Y043405D01*
X016624Y043247D02*
X016910Y043247D01*
X016869Y043088D02*
X016664Y043088D01*
X016639Y042930D02*
X016894Y042930D01*
X017003Y042771D02*
X016530Y042771D01*
X017530Y042771D02*
X018003Y042771D01*
X018042Y042733D02*
X018188Y042672D01*
X018346Y042672D01*
X018492Y042733D01*
X018604Y042845D01*
X018664Y042991D01*
X018664Y043149D01*
X018604Y043295D01*
X018492Y043407D01*
X018346Y043467D01*
X018188Y043467D01*
X018042Y043407D01*
X017930Y043295D01*
X017869Y043149D01*
X017869Y042991D01*
X017930Y042845D01*
X018042Y042733D01*
X017894Y042930D02*
X017639Y042930D01*
X017664Y043088D02*
X017869Y043088D01*
X017910Y043247D02*
X017624Y043247D01*
X017493Y043405D02*
X018040Y043405D01*
X018188Y043672D02*
X018346Y043672D01*
X018492Y043733D01*
X018604Y043845D01*
X018664Y043991D01*
X018664Y044149D01*
X018604Y044295D01*
X018492Y044407D01*
X018346Y044467D01*
X018188Y044467D01*
X018042Y044407D01*
X017930Y044295D01*
X017869Y044149D01*
X017869Y043991D01*
X017930Y043845D01*
X018042Y043733D01*
X018188Y043672D01*
X018067Y043722D02*
X017466Y043722D01*
X017619Y043881D02*
X017915Y043881D01*
X017869Y044039D02*
X017664Y044039D01*
X017644Y044198D02*
X017889Y044198D01*
X017991Y044356D02*
X017542Y044356D01*
X018542Y044356D02*
X018991Y044356D01*
X019042Y044407D02*
X018930Y044295D01*
X018869Y044149D01*
X018869Y043991D01*
X018930Y043845D01*
X019042Y043733D01*
X019188Y043672D01*
X019346Y043672D01*
X019492Y043733D01*
X019604Y043845D01*
X019664Y043991D01*
X019664Y044149D01*
X019604Y044295D01*
X019492Y044407D01*
X019346Y044467D01*
X019188Y044467D01*
X019042Y044407D01*
X018889Y044198D02*
X018644Y044198D01*
X018664Y044039D02*
X018869Y044039D01*
X018915Y043881D02*
X018619Y043881D01*
X018466Y043722D02*
X019067Y043722D01*
X019188Y043467D02*
X019042Y043407D01*
X018930Y043295D01*
X018869Y043149D01*
X018869Y042991D01*
X018930Y042845D01*
X019042Y042733D01*
X019188Y042672D01*
X019346Y042672D01*
X019492Y042733D01*
X019604Y042845D01*
X019664Y042991D01*
X019664Y043149D01*
X019604Y043295D01*
X019492Y043407D01*
X019346Y043467D01*
X019188Y043467D01*
X019040Y043405D02*
X018493Y043405D01*
X018624Y043247D02*
X018910Y043247D01*
X018869Y043088D02*
X018664Y043088D01*
X018639Y042930D02*
X018894Y042930D01*
X019003Y042771D02*
X018530Y042771D01*
X019530Y042771D02*
X020003Y042771D01*
X020042Y042733D02*
X019930Y042845D01*
X019869Y042991D01*
X019869Y043149D01*
X019930Y043295D01*
X020042Y043407D01*
X020188Y043467D01*
X020346Y043467D01*
X020492Y043407D01*
X020604Y043295D01*
X020664Y043149D01*
X020664Y042991D01*
X020604Y042845D01*
X020492Y042733D01*
X020346Y042672D01*
X020188Y042672D01*
X020042Y042733D01*
X019894Y042930D02*
X019639Y042930D01*
X019664Y043088D02*
X019869Y043088D01*
X019910Y043247D02*
X019624Y043247D01*
X019493Y043405D02*
X020040Y043405D01*
X020188Y043672D02*
X020346Y043672D01*
X020492Y043733D01*
X020604Y043845D01*
X020664Y043991D01*
X020664Y044149D01*
X020604Y044295D01*
X020492Y044407D01*
X020346Y044467D01*
X020188Y044467D01*
X020042Y044407D01*
X019930Y044295D01*
X019869Y044149D01*
X019869Y043991D01*
X019930Y043845D01*
X020042Y043733D01*
X020188Y043672D01*
X020067Y043722D02*
X019466Y043722D01*
X019619Y043881D02*
X019915Y043881D01*
X019869Y044039D02*
X019664Y044039D01*
X019644Y044198D02*
X019889Y044198D01*
X019991Y044356D02*
X019542Y044356D01*
X020542Y044356D02*
X020991Y044356D01*
X021042Y044407D02*
X020930Y044295D01*
X020869Y044149D01*
X020869Y043991D01*
X020930Y043845D01*
X021042Y043733D01*
X021188Y043672D01*
X021346Y043672D01*
X021492Y043733D01*
X021604Y043845D01*
X021664Y043991D01*
X021664Y044149D01*
X021604Y044295D01*
X021492Y044407D01*
X021346Y044467D01*
X021188Y044467D01*
X021042Y044407D01*
X020889Y044198D02*
X020644Y044198D01*
X020664Y044039D02*
X020869Y044039D01*
X020915Y043881D02*
X020619Y043881D01*
X020466Y043722D02*
X021067Y043722D01*
X021188Y043467D02*
X021042Y043407D01*
X020930Y043295D01*
X020869Y043149D01*
X020869Y042991D01*
X020930Y042845D01*
X021042Y042733D01*
X021188Y042672D01*
X021346Y042672D01*
X021492Y042733D01*
X021604Y042845D01*
X021664Y042991D01*
X021664Y043149D01*
X021604Y043295D01*
X021492Y043407D01*
X021346Y043467D01*
X021188Y043467D01*
X021040Y043405D02*
X020493Y043405D01*
X020624Y043247D02*
X020910Y043247D01*
X020869Y043088D02*
X020664Y043088D01*
X020639Y042930D02*
X020894Y042930D01*
X021003Y042771D02*
X020530Y042771D01*
X021530Y042771D02*
X022003Y042771D01*
X022042Y042733D02*
X022188Y042672D01*
X022346Y042672D01*
X022492Y042733D01*
X022604Y042845D01*
X022664Y042991D01*
X022664Y043149D01*
X022604Y043295D01*
X022492Y043407D01*
X022346Y043467D01*
X022188Y043467D01*
X022042Y043407D01*
X021930Y043295D01*
X021869Y043149D01*
X021869Y042991D01*
X021930Y042845D01*
X022042Y042733D01*
X021894Y042930D02*
X021639Y042930D01*
X021664Y043088D02*
X021869Y043088D01*
X021910Y043247D02*
X021624Y043247D01*
X021493Y043405D02*
X022040Y043405D01*
X022188Y043672D02*
X022042Y043733D01*
X021930Y043845D01*
X021869Y043991D01*
X021869Y044149D01*
X021930Y044295D01*
X022042Y044407D01*
X022188Y044467D01*
X022346Y044467D01*
X022492Y044407D01*
X022604Y044295D01*
X022664Y044149D01*
X022664Y043991D01*
X022604Y043845D01*
X022492Y043733D01*
X022346Y043672D01*
X022188Y043672D01*
X022067Y043722D02*
X021466Y043722D01*
X021619Y043881D02*
X021915Y043881D01*
X021869Y044039D02*
X021664Y044039D01*
X021644Y044198D02*
X021889Y044198D01*
X021991Y044356D02*
X021542Y044356D01*
X022542Y044356D02*
X022991Y044356D01*
X023042Y044407D02*
X022930Y044295D01*
X022869Y044149D01*
X022869Y043991D01*
X022930Y043845D01*
X023042Y043733D01*
X023188Y043672D01*
X023346Y043672D01*
X023492Y043733D01*
X023604Y043845D01*
X023664Y043991D01*
X023664Y044149D01*
X023604Y044295D01*
X023492Y044407D01*
X023346Y044467D01*
X023188Y044467D01*
X023042Y044407D01*
X022889Y044198D02*
X022644Y044198D01*
X022664Y044039D02*
X022869Y044039D01*
X022915Y043881D02*
X022619Y043881D01*
X022466Y043722D02*
X023067Y043722D01*
X023188Y043467D02*
X023042Y043407D01*
X022930Y043295D01*
X022869Y043149D01*
X022869Y042991D01*
X022930Y042845D01*
X023042Y042733D01*
X023188Y042672D01*
X023346Y042672D01*
X023492Y042733D01*
X023604Y042845D01*
X023664Y042991D01*
X023664Y043149D01*
X023604Y043295D01*
X023492Y043407D01*
X023346Y043467D01*
X023188Y043467D01*
X023040Y043405D02*
X022493Y043405D01*
X022624Y043247D02*
X022910Y043247D01*
X022869Y043088D02*
X022664Y043088D01*
X022639Y042930D02*
X022894Y042930D01*
X023003Y042771D02*
X022530Y042771D01*
X023530Y042771D02*
X024003Y042771D01*
X024042Y042733D02*
X024188Y042672D01*
X024346Y042672D01*
X024492Y042733D01*
X024604Y042845D01*
X024664Y042991D01*
X024664Y043149D01*
X024604Y043295D01*
X024492Y043407D01*
X024346Y043467D01*
X024188Y043467D01*
X024042Y043407D01*
X023930Y043295D01*
X023869Y043149D01*
X023869Y042991D01*
X023930Y042845D01*
X024042Y042733D01*
X023894Y042930D02*
X023639Y042930D01*
X023664Y043088D02*
X023869Y043088D01*
X023910Y043247D02*
X023624Y043247D01*
X023493Y043405D02*
X024040Y043405D01*
X024188Y043672D02*
X024346Y043672D01*
X024492Y043733D01*
X024604Y043845D01*
X024664Y043991D01*
X024664Y044149D01*
X024604Y044295D01*
X024492Y044407D01*
X024346Y044467D01*
X024188Y044467D01*
X024042Y044407D01*
X023930Y044295D01*
X023869Y044149D01*
X023869Y043991D01*
X023930Y043845D01*
X024042Y043733D01*
X024188Y043672D01*
X024067Y043722D02*
X023466Y043722D01*
X023619Y043881D02*
X023915Y043881D01*
X023869Y044039D02*
X023664Y044039D01*
X023644Y044198D02*
X023889Y044198D01*
X023991Y044356D02*
X023542Y044356D01*
X024542Y044356D02*
X024991Y044356D01*
X025042Y044407D02*
X024930Y044295D01*
X024869Y044149D01*
X024869Y043991D01*
X024930Y043845D01*
X025042Y043733D01*
X025188Y043672D01*
X025346Y043672D01*
X025492Y043733D01*
X025604Y043845D01*
X025664Y043991D01*
X025664Y044149D01*
X025604Y044295D01*
X025492Y044407D01*
X025346Y044467D01*
X025188Y044467D01*
X025042Y044407D01*
X024889Y044198D02*
X024644Y044198D01*
X024664Y044039D02*
X024869Y044039D01*
X024915Y043881D02*
X024619Y043881D01*
X024466Y043722D02*
X025067Y043722D01*
X025188Y043467D02*
X025042Y043407D01*
X024930Y043295D01*
X024869Y043149D01*
X024869Y042991D01*
X024930Y042845D01*
X025042Y042733D01*
X025188Y042672D01*
X025346Y042672D01*
X025492Y042733D01*
X025604Y042845D01*
X025664Y042991D01*
X025664Y043149D01*
X025604Y043295D01*
X025492Y043407D01*
X025346Y043467D01*
X025188Y043467D01*
X025040Y043405D02*
X024493Y043405D01*
X024624Y043247D02*
X024910Y043247D01*
X024869Y043088D02*
X024664Y043088D01*
X024639Y042930D02*
X024894Y042930D01*
X025003Y042771D02*
X024530Y042771D01*
X025530Y042771D02*
X026003Y042771D01*
X026042Y042733D02*
X026188Y042672D01*
X026346Y042672D01*
X026492Y042733D01*
X026604Y042845D01*
X026664Y042991D01*
X026664Y043149D01*
X026604Y043295D01*
X026492Y043407D01*
X026346Y043467D01*
X026188Y043467D01*
X026042Y043407D01*
X025930Y043295D01*
X025869Y043149D01*
X025869Y042991D01*
X025930Y042845D01*
X026042Y042733D01*
X025894Y042930D02*
X025639Y042930D01*
X025664Y043088D02*
X025869Y043088D01*
X025910Y043247D02*
X025624Y043247D01*
X025493Y043405D02*
X026040Y043405D01*
X026188Y043672D02*
X026346Y043672D01*
X026492Y043733D01*
X026604Y043845D01*
X026664Y043991D01*
X026664Y044149D01*
X026604Y044295D01*
X026492Y044407D01*
X026346Y044467D01*
X026188Y044467D01*
X026042Y044407D01*
X025930Y044295D01*
X025869Y044149D01*
X025869Y043991D01*
X025930Y043845D01*
X026042Y043733D01*
X026188Y043672D01*
X026067Y043722D02*
X025466Y043722D01*
X025619Y043881D02*
X025915Y043881D01*
X025869Y044039D02*
X025664Y044039D01*
X025644Y044198D02*
X025889Y044198D01*
X025991Y044356D02*
X025542Y044356D01*
X024561Y044832D02*
X036973Y044832D01*
X037188Y044467D02*
X037042Y044407D01*
X036930Y044295D01*
X036869Y044149D01*
X036869Y043991D01*
X036930Y043845D01*
X037042Y043733D01*
X037188Y043672D01*
X037346Y043672D01*
X037492Y043733D01*
X037604Y043845D01*
X037664Y043991D01*
X037664Y044149D01*
X037604Y044295D01*
X037492Y044407D01*
X037346Y044467D01*
X037188Y044467D01*
X036991Y044356D02*
X036542Y044356D01*
X036492Y044407D02*
X036346Y044467D01*
X036188Y044467D01*
X036042Y044407D01*
X035930Y044295D01*
X035869Y044149D01*
X035869Y043991D01*
X035930Y043845D01*
X036042Y043733D01*
X036188Y043672D01*
X036346Y043672D01*
X036492Y043733D01*
X036604Y043845D01*
X036664Y043991D01*
X036664Y044149D01*
X036604Y044295D01*
X036492Y044407D01*
X036644Y044198D02*
X036889Y044198D01*
X036869Y044039D02*
X036664Y044039D01*
X036619Y043881D02*
X036915Y043881D01*
X037067Y043722D02*
X036466Y043722D01*
X036346Y043467D02*
X036188Y043467D01*
X036042Y043407D01*
X035930Y043295D01*
X035869Y043149D01*
X035869Y042991D01*
X035930Y042845D01*
X036042Y042733D01*
X036188Y042672D01*
X036346Y042672D01*
X036492Y042733D01*
X036604Y042845D01*
X036664Y042991D01*
X036664Y043149D01*
X036604Y043295D01*
X036492Y043407D01*
X036346Y043467D01*
X036493Y043405D02*
X037040Y043405D01*
X037042Y043407D02*
X036930Y043295D01*
X036869Y043149D01*
X036869Y042991D01*
X036930Y042845D01*
X037042Y042733D01*
X037188Y042672D01*
X037346Y042672D01*
X037492Y042733D01*
X037604Y042845D01*
X037664Y042991D01*
X037664Y043149D01*
X037604Y043295D01*
X037492Y043407D01*
X037346Y043467D01*
X037188Y043467D01*
X037042Y043407D01*
X036910Y043247D02*
X036624Y043247D01*
X036664Y043088D02*
X036869Y043088D01*
X036894Y042930D02*
X036639Y042930D01*
X036530Y042771D02*
X037003Y042771D01*
X037530Y042771D02*
X037946Y042771D01*
X037933Y042785D02*
X037982Y042736D01*
X038037Y042696D01*
X038099Y042664D01*
X038164Y042643D01*
X038232Y042632D01*
X038267Y042632D01*
X038267Y043070D01*
X038267Y043070D01*
X038267Y043507D01*
X038232Y043507D01*
X038164Y043497D01*
X038099Y043475D01*
X038037Y043444D01*
X037982Y043404D01*
X037933Y043355D01*
X037892Y043299D01*
X037861Y043238D01*
X037840Y043172D01*
X037829Y043104D01*
X037829Y043070D01*
X038267Y043070D01*
X038267Y043070D01*
X037829Y043070D01*
X037829Y043035D01*
X037840Y042967D01*
X037861Y042902D01*
X037892Y042841D01*
X037933Y042785D01*
X037852Y042930D02*
X037639Y042930D01*
X037664Y043088D02*
X037829Y043088D01*
X037866Y043247D02*
X037624Y043247D01*
X037493Y043405D02*
X037984Y043405D01*
X038267Y043405D02*
X038267Y043405D01*
X038267Y043247D02*
X038267Y043247D01*
X038267Y043088D02*
X038267Y043088D01*
X038267Y042930D02*
X038267Y042930D01*
X038267Y042771D02*
X038267Y042771D01*
X038267Y043632D02*
X038267Y044070D01*
X038267Y044070D01*
X038267Y044507D01*
X038232Y044507D01*
X038164Y044497D01*
X038099Y044475D01*
X038037Y044444D01*
X037982Y044404D01*
X037933Y044355D01*
X037892Y044299D01*
X037861Y044238D01*
X037840Y044172D01*
X037829Y044104D01*
X037829Y044070D01*
X038267Y044070D01*
X038267Y044070D01*
X037829Y044070D01*
X037829Y044035D01*
X037840Y043967D01*
X037861Y043902D01*
X037892Y043841D01*
X037933Y043785D01*
X037982Y043736D01*
X038037Y043696D01*
X038099Y043664D01*
X038164Y043643D01*
X038232Y043632D01*
X038267Y043632D01*
X038267Y043722D02*
X038267Y043722D01*
X038267Y043881D02*
X038267Y043881D01*
X038267Y044039D02*
X038267Y044039D01*
X038267Y044198D02*
X038267Y044198D01*
X038267Y044356D02*
X038267Y044356D01*
X037935Y044356D02*
X037542Y044356D01*
X037644Y044198D02*
X037848Y044198D01*
X037829Y044039D02*
X037664Y044039D01*
X037619Y043881D02*
X037872Y043881D01*
X038001Y043722D02*
X037466Y043722D01*
X036067Y043722D02*
X035466Y043722D01*
X035492Y043733D02*
X035604Y043845D01*
X035664Y043991D01*
X035664Y044149D01*
X035604Y044295D01*
X035492Y044407D01*
X035346Y044467D01*
X035188Y044467D01*
X035042Y044407D01*
X034930Y044295D01*
X034869Y044149D01*
X034869Y043991D01*
X034930Y043845D01*
X035042Y043733D01*
X035188Y043672D01*
X035346Y043672D01*
X035492Y043733D01*
X035619Y043881D02*
X035915Y043881D01*
X035869Y044039D02*
X035664Y044039D01*
X035644Y044198D02*
X035889Y044198D01*
X035991Y044356D02*
X035542Y044356D01*
X034991Y044356D02*
X034542Y044356D01*
X034492Y044407D02*
X034346Y044467D01*
X034188Y044467D01*
X034042Y044407D01*
X033930Y044295D01*
X033869Y044149D01*
X033869Y043991D01*
X033930Y043845D01*
X034042Y043733D01*
X034188Y043672D01*
X034346Y043672D01*
X034492Y043733D01*
X034604Y043845D01*
X034664Y043991D01*
X034664Y044149D01*
X034604Y044295D01*
X034492Y044407D01*
X034644Y044198D02*
X034889Y044198D01*
X034869Y044039D02*
X034664Y044039D01*
X034619Y043881D02*
X034915Y043881D01*
X035067Y043722D02*
X034466Y043722D01*
X034346Y043467D02*
X034188Y043467D01*
X034042Y043407D01*
X033930Y043295D01*
X033869Y043149D01*
X033869Y042991D01*
X033930Y042845D01*
X034042Y042733D01*
X034188Y042672D01*
X034346Y042672D01*
X034492Y042733D01*
X034604Y042845D01*
X034664Y042991D01*
X034664Y043149D01*
X034604Y043295D01*
X034492Y043407D01*
X034346Y043467D01*
X034493Y043405D02*
X035040Y043405D01*
X035042Y043407D02*
X034930Y043295D01*
X034869Y043149D01*
X034869Y042991D01*
X034930Y042845D01*
X035042Y042733D01*
X035188Y042672D01*
X035346Y042672D01*
X035492Y042733D01*
X035604Y042845D01*
X035664Y042991D01*
X035664Y043149D01*
X035604Y043295D01*
X035492Y043407D01*
X035346Y043467D01*
X035188Y043467D01*
X035042Y043407D01*
X034910Y043247D02*
X034624Y043247D01*
X034664Y043088D02*
X034869Y043088D01*
X034894Y042930D02*
X034639Y042930D01*
X034530Y042771D02*
X035003Y042771D01*
X035530Y042771D02*
X036003Y042771D01*
X035894Y042930D02*
X035639Y042930D01*
X035664Y043088D02*
X035869Y043088D01*
X035910Y043247D02*
X035624Y043247D01*
X035493Y043405D02*
X036040Y043405D01*
X034067Y043722D02*
X033466Y043722D01*
X033492Y043733D02*
X033604Y043845D01*
X033664Y043991D01*
X033664Y044149D01*
X033604Y044295D01*
X033492Y044407D01*
X033346Y044467D01*
X033188Y044467D01*
X033042Y044407D01*
X032930Y044295D01*
X032869Y044149D01*
X032869Y043991D01*
X032930Y043845D01*
X033042Y043733D01*
X033188Y043672D01*
X033346Y043672D01*
X033492Y043733D01*
X033619Y043881D02*
X033915Y043881D01*
X033869Y044039D02*
X033664Y044039D01*
X033644Y044198D02*
X033889Y044198D01*
X033991Y044356D02*
X033542Y044356D01*
X032991Y044356D02*
X032542Y044356D01*
X032492Y044407D02*
X032346Y044467D01*
X032188Y044467D01*
X032042Y044407D01*
X031930Y044295D01*
X031869Y044149D01*
X031869Y043991D01*
X031930Y043845D01*
X032042Y043733D01*
X032188Y043672D01*
X032346Y043672D01*
X032492Y043733D01*
X032604Y043845D01*
X032664Y043991D01*
X032664Y044149D01*
X032604Y044295D01*
X032492Y044407D01*
X032644Y044198D02*
X032889Y044198D01*
X032869Y044039D02*
X032664Y044039D01*
X032619Y043881D02*
X032915Y043881D01*
X033067Y043722D02*
X032466Y043722D01*
X032346Y043467D02*
X032188Y043467D01*
X032042Y043407D01*
X031930Y043295D01*
X031869Y043149D01*
X031869Y042991D01*
X031930Y042845D01*
X032042Y042733D01*
X032188Y042672D01*
X032346Y042672D01*
X032492Y042733D01*
X032604Y042845D01*
X032664Y042991D01*
X032664Y043149D01*
X032604Y043295D01*
X032492Y043407D01*
X032346Y043467D01*
X032493Y043405D02*
X033040Y043405D01*
X033042Y043407D02*
X032930Y043295D01*
X032869Y043149D01*
X032869Y042991D01*
X032930Y042845D01*
X033042Y042733D01*
X033188Y042672D01*
X033346Y042672D01*
X033492Y042733D01*
X033604Y042845D01*
X033664Y042991D01*
X033664Y043149D01*
X033604Y043295D01*
X033492Y043407D01*
X033346Y043467D01*
X033188Y043467D01*
X033042Y043407D01*
X032910Y043247D02*
X032624Y043247D01*
X032664Y043088D02*
X032869Y043088D01*
X032894Y042930D02*
X032639Y042930D01*
X032530Y042771D02*
X033003Y042771D01*
X033530Y042771D02*
X034003Y042771D01*
X033894Y042930D02*
X033639Y042930D01*
X033664Y043088D02*
X033869Y043088D01*
X033910Y043247D02*
X033624Y043247D01*
X033493Y043405D02*
X034040Y043405D01*
X032067Y043722D02*
X031466Y043722D01*
X031492Y043733D02*
X031604Y043845D01*
X031664Y043991D01*
X031664Y044149D01*
X031604Y044295D01*
X031492Y044407D01*
X031346Y044467D01*
X031188Y044467D01*
X031042Y044407D01*
X030930Y044295D01*
X030869Y044149D01*
X030869Y043991D01*
X030930Y043845D01*
X031042Y043733D01*
X031188Y043672D01*
X031346Y043672D01*
X031492Y043733D01*
X031619Y043881D02*
X031915Y043881D01*
X031869Y044039D02*
X031664Y044039D01*
X031644Y044198D02*
X031889Y044198D01*
X031991Y044356D02*
X031542Y044356D01*
X030991Y044356D02*
X030542Y044356D01*
X030492Y044407D02*
X030346Y044467D01*
X030188Y044467D01*
X030042Y044407D01*
X029930Y044295D01*
X029869Y044149D01*
X029869Y043991D01*
X029930Y043845D01*
X030042Y043733D01*
X030188Y043672D01*
X030346Y043672D01*
X030492Y043733D01*
X030604Y043845D01*
X030664Y043991D01*
X030664Y044149D01*
X030604Y044295D01*
X030492Y044407D01*
X030644Y044198D02*
X030889Y044198D01*
X030869Y044039D02*
X030664Y044039D01*
X030619Y043881D02*
X030915Y043881D01*
X031067Y043722D02*
X030466Y043722D01*
X030346Y043467D02*
X030188Y043467D01*
X030042Y043407D01*
X029930Y043295D01*
X029869Y043149D01*
X029869Y042991D01*
X029930Y042845D01*
X030042Y042733D01*
X030188Y042672D01*
X030346Y042672D01*
X030492Y042733D01*
X030604Y042845D01*
X030664Y042991D01*
X030664Y043149D01*
X030604Y043295D01*
X030492Y043407D01*
X030346Y043467D01*
X030493Y043405D02*
X031040Y043405D01*
X031042Y043407D02*
X030930Y043295D01*
X030869Y043149D01*
X030869Y042991D01*
X030930Y042845D01*
X031042Y042733D01*
X031188Y042672D01*
X031346Y042672D01*
X031492Y042733D01*
X031604Y042845D01*
X031664Y042991D01*
X031664Y043149D01*
X031604Y043295D01*
X031492Y043407D01*
X031346Y043467D01*
X031188Y043467D01*
X031042Y043407D01*
X030910Y043247D02*
X030624Y043247D01*
X030664Y043088D02*
X030869Y043088D01*
X030894Y042930D02*
X030639Y042930D01*
X030530Y042771D02*
X031003Y042771D01*
X031530Y042771D02*
X032003Y042771D01*
X031894Y042930D02*
X031639Y042930D01*
X031664Y043088D02*
X031869Y043088D01*
X031910Y043247D02*
X031624Y043247D01*
X031493Y043405D02*
X032040Y043405D01*
X030067Y043722D02*
X029466Y043722D01*
X029492Y043733D02*
X029604Y043845D01*
X029664Y043991D01*
X029664Y044149D01*
X029604Y044295D01*
X029492Y044407D01*
X029346Y044467D01*
X029188Y044467D01*
X029042Y044407D01*
X028930Y044295D01*
X028869Y044149D01*
X028869Y043991D01*
X028930Y043845D01*
X029042Y043733D01*
X029188Y043672D01*
X029346Y043672D01*
X029492Y043733D01*
X029619Y043881D02*
X029915Y043881D01*
X029869Y044039D02*
X029664Y044039D01*
X029644Y044198D02*
X029889Y044198D01*
X029991Y044356D02*
X029542Y044356D01*
X028991Y044356D02*
X028542Y044356D01*
X028492Y044407D02*
X028346Y044467D01*
X028188Y044467D01*
X028042Y044407D01*
X027930Y044295D01*
X027869Y044149D01*
X027869Y043991D01*
X027930Y043845D01*
X028042Y043733D01*
X028188Y043672D01*
X028346Y043672D01*
X028492Y043733D01*
X028604Y043845D01*
X028664Y043991D01*
X028664Y044149D01*
X028604Y044295D01*
X028492Y044407D01*
X028644Y044198D02*
X028889Y044198D01*
X028869Y044039D02*
X028664Y044039D01*
X028619Y043881D02*
X028915Y043881D01*
X029067Y043722D02*
X028466Y043722D01*
X028346Y043467D02*
X028188Y043467D01*
X028042Y043407D01*
X027930Y043295D01*
X027869Y043149D01*
X027869Y042991D01*
X027930Y042845D01*
X028042Y042733D01*
X028188Y042672D01*
X028346Y042672D01*
X028492Y042733D01*
X028604Y042845D01*
X028664Y042991D01*
X028664Y043149D01*
X028604Y043295D01*
X028492Y043407D01*
X028346Y043467D01*
X028493Y043405D02*
X029040Y043405D01*
X029042Y043407D02*
X028930Y043295D01*
X028869Y043149D01*
X028869Y042991D01*
X028930Y042845D01*
X029042Y042733D01*
X029188Y042672D01*
X029346Y042672D01*
X029492Y042733D01*
X029604Y042845D01*
X029664Y042991D01*
X029664Y043149D01*
X029604Y043295D01*
X029492Y043407D01*
X029346Y043467D01*
X029188Y043467D01*
X029042Y043407D01*
X028910Y043247D02*
X028624Y043247D01*
X028664Y043088D02*
X028869Y043088D01*
X028894Y042930D02*
X028639Y042930D01*
X028530Y042771D02*
X029003Y042771D01*
X029530Y042771D02*
X030003Y042771D01*
X029894Y042930D02*
X029639Y042930D01*
X029664Y043088D02*
X029869Y043088D01*
X029910Y043247D02*
X029624Y043247D01*
X029493Y043405D02*
X030040Y043405D01*
X028067Y043722D02*
X027466Y043722D01*
X027492Y043733D02*
X027604Y043845D01*
X027664Y043991D01*
X027664Y044149D01*
X027604Y044295D01*
X027492Y044407D01*
X027346Y044467D01*
X027188Y044467D01*
X027042Y044407D01*
X026930Y044295D01*
X026869Y044149D01*
X026869Y043991D01*
X026930Y043845D01*
X027042Y043733D01*
X027188Y043672D01*
X027346Y043672D01*
X027492Y043733D01*
X027619Y043881D02*
X027915Y043881D01*
X027869Y044039D02*
X027664Y044039D01*
X027644Y044198D02*
X027889Y044198D01*
X027991Y044356D02*
X027542Y044356D01*
X026991Y044356D02*
X026542Y044356D01*
X026644Y044198D02*
X026889Y044198D01*
X026869Y044039D02*
X026664Y044039D01*
X026619Y043881D02*
X026915Y043881D01*
X027067Y043722D02*
X026466Y043722D01*
X026493Y043405D02*
X027040Y043405D01*
X027042Y043407D02*
X026930Y043295D01*
X026869Y043149D01*
X026869Y042991D01*
X026930Y042845D01*
X027042Y042733D01*
X027188Y042672D01*
X027346Y042672D01*
X027492Y042733D01*
X027604Y042845D01*
X027664Y042991D01*
X027664Y043149D01*
X027604Y043295D01*
X027492Y043407D01*
X027346Y043467D01*
X027188Y043467D01*
X027042Y043407D01*
X026910Y043247D02*
X026624Y043247D01*
X026664Y043088D02*
X026869Y043088D01*
X026894Y042930D02*
X026639Y042930D01*
X026530Y042771D02*
X027003Y042771D01*
X027530Y042771D02*
X028003Y042771D01*
X027894Y042930D02*
X027639Y042930D01*
X027664Y043088D02*
X027869Y043088D01*
X027910Y043247D02*
X027624Y043247D01*
X027493Y043405D02*
X028040Y043405D01*
X024561Y045307D02*
X036972Y045307D01*
X031511Y050379D02*
X018879Y050379D01*
X018980Y050221D02*
X031367Y050221D01*
X031336Y054659D02*
X002007Y054659D01*
X002007Y054817D02*
X031327Y054817D01*
X031327Y054976D02*
X002007Y054976D01*
X002007Y055134D02*
X031327Y055134D01*
X031327Y055293D02*
X002007Y055293D01*
X002007Y055451D02*
X031327Y055451D01*
X031390Y055610D02*
X002007Y055610D01*
X002007Y055768D02*
X031579Y055768D01*
X034183Y055610D02*
X034390Y055610D01*
X034327Y055451D02*
X034240Y055451D01*
X034247Y055293D02*
X034327Y055293D01*
X034327Y055134D02*
X034247Y055134D01*
X034247Y054976D02*
X034327Y054976D01*
X034327Y054817D02*
X034247Y054817D01*
X034235Y054659D02*
X034336Y054659D01*
X034414Y054500D02*
X034164Y054500D01*
X038687Y054659D02*
X038847Y054659D01*
X038847Y054817D02*
X038687Y054817D01*
X038687Y054976D02*
X038847Y054976D01*
X038847Y055134D02*
X038687Y055134D01*
X038687Y055293D02*
X038847Y055293D01*
X038847Y055451D02*
X038687Y055451D01*
X038687Y055610D02*
X038847Y055610D01*
X038847Y055768D02*
X038687Y055768D01*
X039346Y055768D02*
X040519Y055768D01*
X040519Y055610D02*
X039596Y055610D01*
X039764Y055451D02*
X040519Y055451D01*
X040519Y055293D02*
X039883Y055293D01*
X039972Y055134D02*
X040519Y055134D01*
X040519Y054976D02*
X040033Y054976D01*
X040073Y054817D02*
X040519Y054817D01*
X040519Y054659D02*
X040094Y054659D01*
X040519Y055927D02*
X002007Y055927D01*
X002007Y056085D02*
X040519Y056085D01*
X020361Y052598D02*
X002007Y052598D01*
X002007Y052440D02*
X004212Y052440D01*
X004140Y052368D02*
X004059Y052173D01*
X004059Y051962D01*
X004140Y051767D01*
X004289Y051618D01*
X004484Y051537D01*
X005475Y051537D01*
X005669Y051618D01*
X005818Y051767D01*
X005899Y051962D01*
X005899Y052173D01*
X005818Y052368D01*
X005669Y052517D01*
X005475Y052597D01*
X004484Y052597D01*
X004289Y052517D01*
X004140Y052368D01*
X004104Y052281D02*
X002007Y052281D01*
X002007Y052123D02*
X004059Y052123D01*
X004059Y051964D02*
X002007Y051964D01*
X002007Y051806D02*
X004124Y051806D01*
X004260Y051647D02*
X002007Y051647D01*
X002007Y051489D02*
X010420Y051489D01*
X010330Y051330D02*
X002007Y051330D01*
X002007Y051172D02*
X010317Y051172D01*
X010369Y051013D02*
X002007Y051013D01*
X002007Y050855D02*
X010552Y050855D01*
X010881Y050855D02*
X011259Y050855D01*
X011101Y051013D02*
X011064Y051013D01*
X011013Y051489D02*
X011163Y051489D01*
X011322Y051647D02*
X005699Y051647D01*
X005835Y051806D02*
X020305Y051806D01*
X020464Y051964D02*
X005899Y051964D01*
X005899Y052123D02*
X020398Y052123D01*
X020313Y052281D02*
X005854Y052281D01*
X005746Y052440D02*
X020304Y052440D01*
X014884Y052757D02*
X013623Y052757D01*
X013827Y053232D02*
X014697Y053232D01*
X012970Y052757D02*
X002007Y052757D01*
X002007Y052915D02*
X012833Y052915D01*
X005029Y053549D02*
X004929Y053549D01*
X004929Y053708D02*
X005029Y053708D01*
X005029Y053866D02*
X004929Y053866D01*
X004929Y054183D02*
X005029Y054183D01*
X005029Y054342D02*
X004929Y054342D01*
X004929Y054500D02*
X005029Y054500D01*
X004243Y054500D02*
X002007Y054500D01*
X002007Y054342D02*
X004100Y054342D01*
X004245Y048160D02*
X002007Y048160D01*
X002007Y048002D02*
X004132Y048002D01*
X004084Y047843D02*
X002007Y047843D01*
X002007Y047685D02*
X004084Y047685D01*
X004145Y047526D02*
X002007Y047526D01*
X002007Y047368D02*
X004277Y047368D01*
X002063Y044673D02*
X002007Y044673D01*
X028739Y034529D02*
X036994Y034529D01*
X036951Y034054D02*
X028783Y034054D01*
X029535Y032627D02*
X029942Y032627D01*
X029931Y032617D02*
X029890Y032560D01*
X029859Y032499D01*
X029838Y032433D01*
X029827Y032365D01*
X029827Y032070D01*
X030267Y032070D01*
X030707Y032070D01*
X030707Y032365D01*
X030696Y032433D01*
X030674Y032499D01*
X030643Y032560D01*
X030602Y032617D01*
X030553Y032665D01*
X030497Y032706D01*
X030436Y032738D01*
X030370Y032759D01*
X030301Y032770D01*
X030267Y032770D01*
X030267Y032070D01*
X030267Y032070D01*
X030707Y032070D01*
X030707Y031775D01*
X030696Y031707D01*
X030674Y031641D01*
X030643Y031579D01*
X030602Y031523D01*
X030553Y031474D01*
X030497Y031434D01*
X030436Y031402D01*
X030370Y031381D01*
X030301Y031370D01*
X030267Y031370D01*
X030267Y032070D01*
X030267Y032070D01*
X030267Y032070D01*
X030267Y032770D01*
X030232Y032770D01*
X030164Y032759D01*
X030098Y032738D01*
X030036Y032706D01*
X029980Y032665D01*
X029931Y032617D01*
X029849Y032469D02*
X029642Y032469D01*
X029667Y032310D02*
X029827Y032310D01*
X029827Y032152D02*
X029667Y032152D01*
X029667Y031993D02*
X029827Y031993D01*
X029827Y032070D02*
X029827Y031775D01*
X029838Y031707D01*
X029859Y031641D01*
X029890Y031579D01*
X029931Y031523D01*
X029980Y031474D01*
X030036Y031434D01*
X030098Y031402D01*
X030164Y031381D01*
X030232Y031370D01*
X030267Y031370D01*
X030267Y032070D01*
X030267Y032070D01*
X029827Y032070D01*
X029827Y031835D02*
X029667Y031835D01*
X029644Y031676D02*
X029847Y031676D01*
X029936Y031518D02*
X029540Y031518D01*
X030267Y031518D02*
X030267Y031518D01*
X030267Y031676D02*
X030267Y031676D01*
X030267Y031835D02*
X030267Y031835D01*
X030267Y031993D02*
X030267Y031993D01*
X030267Y032152D02*
X030267Y032152D01*
X030267Y032310D02*
X030267Y032310D01*
X030267Y032469D02*
X030267Y032469D01*
X030267Y032627D02*
X030267Y032627D01*
X030591Y032627D02*
X030999Y032627D01*
X031040Y032669D02*
X030928Y032556D01*
X030867Y032409D01*
X030867Y031730D01*
X030928Y031583D01*
X031040Y031471D01*
X031187Y031410D01*
X031346Y031410D01*
X031493Y031471D01*
X031606Y031583D01*
X031667Y031730D01*
X031667Y032409D01*
X031606Y032556D01*
X031493Y032669D01*
X031346Y032730D01*
X031187Y032730D01*
X031040Y032669D01*
X030891Y032469D02*
X030684Y032469D01*
X030707Y032310D02*
X030867Y032310D01*
X030867Y032152D02*
X030707Y032152D01*
X030707Y031993D02*
X030867Y031993D01*
X030867Y031835D02*
X030707Y031835D01*
X030686Y031676D02*
X030889Y031676D01*
X030993Y031518D02*
X030597Y031518D01*
X031540Y031518D02*
X031993Y031518D01*
X032040Y031471D02*
X032187Y031410D01*
X032346Y031410D01*
X032493Y031471D01*
X032606Y031583D01*
X032667Y031730D01*
X032667Y032409D01*
X032606Y032556D01*
X032493Y032669D01*
X032346Y032730D01*
X032187Y032730D01*
X032040Y032669D01*
X031928Y032556D01*
X031867Y032409D01*
X031867Y031730D01*
X031928Y031583D01*
X032040Y031471D01*
X031889Y031676D02*
X031644Y031676D01*
X031667Y031835D02*
X031867Y031835D01*
X031867Y031993D02*
X031667Y031993D01*
X031667Y032152D02*
X031867Y032152D01*
X031867Y032310D02*
X031667Y032310D01*
X031642Y032469D02*
X031891Y032469D01*
X031999Y032627D02*
X031535Y032627D01*
X032535Y032627D02*
X032999Y032627D01*
X033040Y032669D02*
X032928Y032556D01*
X032867Y032409D01*
X032867Y031730D01*
X032928Y031583D01*
X033040Y031471D01*
X033187Y031410D01*
X033346Y031410D01*
X033493Y031471D01*
X033606Y031583D01*
X033667Y031730D01*
X033667Y032409D01*
X033606Y032556D01*
X033493Y032669D01*
X033346Y032730D01*
X033187Y032730D01*
X033040Y032669D01*
X032891Y032469D02*
X032642Y032469D01*
X032667Y032310D02*
X032867Y032310D01*
X032867Y032152D02*
X032667Y032152D01*
X032667Y031993D02*
X032867Y031993D01*
X032867Y031835D02*
X032667Y031835D01*
X032644Y031676D02*
X032889Y031676D01*
X032993Y031518D02*
X032540Y031518D01*
X033540Y031518D02*
X033993Y031518D01*
X034040Y031471D02*
X034187Y031410D01*
X034346Y031410D01*
X034493Y031471D01*
X034606Y031583D01*
X034667Y031730D01*
X034667Y032409D01*
X034606Y032556D01*
X034493Y032669D01*
X034346Y032730D01*
X034187Y032730D01*
X034040Y032669D01*
X033928Y032556D01*
X033867Y032409D01*
X033867Y031730D01*
X033928Y031583D01*
X034040Y031471D01*
X033889Y031676D02*
X033644Y031676D01*
X033667Y031835D02*
X033867Y031835D01*
X033867Y031993D02*
X033667Y031993D01*
X033667Y032152D02*
X033867Y032152D01*
X033867Y032310D02*
X033667Y032310D01*
X033642Y032469D02*
X033891Y032469D01*
X033999Y032627D02*
X033535Y032627D01*
X034535Y032627D02*
X034999Y032627D01*
X035040Y032669D02*
X034928Y032556D01*
X034867Y032409D01*
X034867Y031730D01*
X034928Y031583D01*
X035040Y031471D01*
X035187Y031410D01*
X035346Y031410D01*
X035493Y031471D01*
X035606Y031583D01*
X035667Y031730D01*
X035667Y032409D01*
X035606Y032556D01*
X035493Y032669D01*
X035346Y032730D01*
X035187Y032730D01*
X035040Y032669D01*
X034891Y032469D02*
X034642Y032469D01*
X034667Y032310D02*
X034867Y032310D01*
X034867Y032152D02*
X034667Y032152D01*
X034667Y031993D02*
X034867Y031993D01*
X034867Y031835D02*
X034667Y031835D01*
X034644Y031676D02*
X034889Y031676D01*
X034993Y031518D02*
X034540Y031518D01*
X035540Y031518D02*
X035993Y031518D01*
X036040Y031471D02*
X036187Y031410D01*
X036346Y031410D01*
X036493Y031471D01*
X036606Y031583D01*
X036667Y031730D01*
X036667Y032409D01*
X036606Y032556D01*
X036493Y032669D01*
X036346Y032730D01*
X036187Y032730D01*
X036040Y032669D01*
X035928Y032556D01*
X035867Y032409D01*
X035867Y031730D01*
X035928Y031583D01*
X036040Y031471D01*
X035889Y031676D02*
X035644Y031676D01*
X035667Y031835D02*
X035867Y031835D01*
X035867Y031993D02*
X035667Y031993D01*
X035667Y032152D02*
X035867Y032152D01*
X035867Y032310D02*
X035667Y032310D01*
X035642Y032469D02*
X035891Y032469D01*
X035999Y032627D02*
X035535Y032627D01*
X036535Y032627D02*
X036999Y032627D01*
X037040Y032669D02*
X036928Y032556D01*
X036867Y032409D01*
X036867Y031730D01*
X036928Y031583D01*
X037040Y031471D01*
X037187Y031410D01*
X037346Y031410D01*
X037493Y031471D01*
X037606Y031583D01*
X037667Y031730D01*
X037667Y032409D01*
X037606Y032556D01*
X037493Y032669D01*
X037346Y032730D01*
X037187Y032730D01*
X037040Y032669D01*
X036891Y032469D02*
X036642Y032469D01*
X036667Y032310D02*
X036867Y032310D01*
X036867Y032152D02*
X036667Y032152D01*
X036667Y031993D02*
X036867Y031993D01*
X036867Y031835D02*
X036667Y031835D01*
X036644Y031676D02*
X036889Y031676D01*
X036993Y031518D02*
X036540Y031518D01*
X037540Y031518D02*
X037993Y031518D01*
X037889Y031676D02*
X037644Y031676D01*
X037667Y031835D02*
X037867Y031835D01*
X037867Y031993D02*
X037667Y031993D01*
X037667Y032152D02*
X037867Y032152D01*
X037867Y032310D02*
X037667Y032310D01*
X037642Y032469D02*
X037891Y032469D01*
X037999Y032627D02*
X037535Y032627D01*
X037346Y029730D02*
X037187Y029730D01*
X037040Y029669D01*
X036928Y029556D01*
X036867Y029409D01*
X036867Y028730D01*
X036928Y028583D01*
X037040Y028471D01*
X037187Y028410D01*
X037346Y028410D01*
X037493Y028471D01*
X037606Y028583D01*
X037667Y028730D01*
X037667Y029409D01*
X037606Y029556D01*
X037493Y029669D01*
X037346Y029730D01*
X037546Y029616D02*
X037931Y029616D01*
X037931Y029617D02*
X037890Y029560D01*
X037859Y029499D01*
X037838Y029433D01*
X037827Y029365D01*
X037827Y029070D01*
X038267Y029070D01*
X038267Y029070D01*
X038267Y029770D01*
X038232Y029770D01*
X038164Y029759D01*
X038098Y029738D01*
X038036Y029706D01*
X037980Y029665D01*
X037931Y029617D01*
X037845Y029457D02*
X037647Y029457D01*
X037667Y029299D02*
X037827Y029299D01*
X037827Y029140D02*
X037667Y029140D01*
X037667Y028982D02*
X037827Y028982D01*
X037827Y029070D02*
X037827Y028775D01*
X037838Y028707D01*
X037859Y028641D01*
X037890Y028579D01*
X037931Y028523D01*
X037980Y028474D01*
X038036Y028434D01*
X038098Y028402D01*
X038164Y028381D01*
X038232Y028370D01*
X038267Y028370D01*
X038267Y029070D01*
X038267Y029070D01*
X037827Y029070D01*
X037827Y028823D02*
X037667Y028823D01*
X037640Y028665D02*
X037851Y028665D01*
X037948Y028506D02*
X037529Y028506D01*
X037004Y028506D02*
X036529Y028506D01*
X036493Y028471D02*
X036606Y028583D01*
X036667Y028730D01*
X036667Y029409D01*
X036606Y029556D01*
X036493Y029669D01*
X036346Y029730D01*
X036187Y029730D01*
X036040Y029669D01*
X035928Y029556D01*
X035867Y029409D01*
X035867Y028730D01*
X035928Y028583D01*
X036040Y028471D01*
X036187Y028410D01*
X036346Y028410D01*
X036493Y028471D01*
X036640Y028665D02*
X036894Y028665D01*
X036867Y028823D02*
X036667Y028823D01*
X036667Y028982D02*
X036867Y028982D01*
X036867Y029140D02*
X036667Y029140D01*
X036667Y029299D02*
X036867Y029299D01*
X036887Y029457D02*
X036647Y029457D01*
X036546Y029616D02*
X036987Y029616D01*
X035987Y029616D02*
X035546Y029616D01*
X035493Y029669D02*
X035346Y029730D01*
X035187Y029730D01*
X035040Y029669D01*
X034928Y029556D01*
X034867Y029409D01*
X034867Y028730D01*
X034928Y028583D01*
X035040Y028471D01*
X035187Y028410D01*
X035346Y028410D01*
X035493Y028471D01*
X035606Y028583D01*
X035667Y028730D01*
X035667Y029409D01*
X035606Y029556D01*
X035493Y029669D01*
X035647Y029457D02*
X035887Y029457D01*
X035867Y029299D02*
X035667Y029299D01*
X035667Y029140D02*
X035867Y029140D01*
X035867Y028982D02*
X035667Y028982D01*
X035667Y028823D02*
X035867Y028823D01*
X035894Y028665D02*
X035640Y028665D01*
X035529Y028506D02*
X036004Y028506D01*
X035004Y028506D02*
X034529Y028506D01*
X034493Y028471D02*
X034606Y028583D01*
X034667Y028730D01*
X034667Y029409D01*
X034606Y029556D01*
X034493Y029669D01*
X034346Y029730D01*
X034187Y029730D01*
X034040Y029669D01*
X033928Y029556D01*
X033867Y029409D01*
X033867Y028730D01*
X033928Y028583D01*
X034040Y028471D01*
X034187Y028410D01*
X034346Y028410D01*
X034493Y028471D01*
X034640Y028665D02*
X034894Y028665D01*
X034867Y028823D02*
X034667Y028823D01*
X034667Y028982D02*
X034867Y028982D01*
X034867Y029140D02*
X034667Y029140D01*
X034667Y029299D02*
X034867Y029299D01*
X034887Y029457D02*
X034647Y029457D01*
X034546Y029616D02*
X034987Y029616D01*
X033987Y029616D02*
X033546Y029616D01*
X033493Y029669D02*
X033346Y029730D01*
X033187Y029730D01*
X033040Y029669D01*
X032928Y029556D01*
X032867Y029409D01*
X032867Y028730D01*
X032928Y028583D01*
X033040Y028471D01*
X033187Y028410D01*
X033346Y028410D01*
X033493Y028471D01*
X033606Y028583D01*
X033667Y028730D01*
X033667Y029409D01*
X033606Y029556D01*
X033493Y029669D01*
X033647Y029457D02*
X033887Y029457D01*
X033867Y029299D02*
X033667Y029299D01*
X033667Y029140D02*
X033867Y029140D01*
X033867Y028982D02*
X033667Y028982D01*
X033667Y028823D02*
X033867Y028823D01*
X033894Y028665D02*
X033640Y028665D01*
X033529Y028506D02*
X034004Y028506D01*
X033004Y028506D02*
X032529Y028506D01*
X032493Y028471D02*
X032606Y028583D01*
X032667Y028730D01*
X032667Y029409D01*
X032606Y029556D01*
X032493Y029669D01*
X032346Y029730D01*
X032187Y029730D01*
X032040Y029669D01*
X031928Y029556D01*
X031867Y029409D01*
X031867Y028730D01*
X031928Y028583D01*
X032040Y028471D01*
X032187Y028410D01*
X032346Y028410D01*
X032493Y028471D01*
X032640Y028665D02*
X032894Y028665D01*
X032867Y028823D02*
X032667Y028823D01*
X032667Y028982D02*
X032867Y028982D01*
X032867Y029140D02*
X032667Y029140D01*
X032667Y029299D02*
X032867Y029299D01*
X032887Y029457D02*
X032647Y029457D01*
X032546Y029616D02*
X032987Y029616D01*
X031987Y029616D02*
X031546Y029616D01*
X031493Y029669D02*
X031346Y029730D01*
X031187Y029730D01*
X031040Y029669D01*
X030928Y029556D01*
X030867Y029409D01*
X030867Y028730D01*
X030928Y028583D01*
X031040Y028471D01*
X031187Y028410D01*
X031346Y028410D01*
X031493Y028471D01*
X031606Y028583D01*
X031667Y028730D01*
X031667Y029409D01*
X031606Y029556D01*
X031493Y029669D01*
X031647Y029457D02*
X031887Y029457D01*
X031867Y029299D02*
X031667Y029299D01*
X031667Y029140D02*
X031867Y029140D01*
X031867Y028982D02*
X031667Y028982D01*
X031667Y028823D02*
X031867Y028823D01*
X031894Y028665D02*
X031640Y028665D01*
X031529Y028506D02*
X032004Y028506D01*
X031004Y028506D02*
X030529Y028506D01*
X030493Y028471D02*
X030606Y028583D01*
X030667Y028730D01*
X030667Y029409D01*
X030606Y029556D01*
X030493Y029669D01*
X030346Y029730D01*
X030187Y029730D01*
X030040Y029669D01*
X029928Y029556D01*
X029867Y029409D01*
X029867Y028730D01*
X029928Y028583D01*
X030040Y028471D01*
X030187Y028410D01*
X030346Y028410D01*
X030493Y028471D01*
X030640Y028665D02*
X030894Y028665D01*
X030867Y028823D02*
X030667Y028823D01*
X030667Y028982D02*
X030867Y028982D01*
X030867Y029140D02*
X030667Y029140D01*
X030667Y029299D02*
X030867Y029299D01*
X030887Y029457D02*
X030647Y029457D01*
X030546Y029616D02*
X030987Y029616D01*
X029987Y029616D02*
X029546Y029616D01*
X029647Y029457D02*
X029887Y029457D01*
X029867Y029299D02*
X029667Y029299D01*
X029667Y029140D02*
X029867Y029140D01*
X029867Y028982D02*
X029667Y028982D01*
X029667Y028823D02*
X029867Y028823D01*
X029894Y028665D02*
X029640Y028665D01*
X029529Y028506D02*
X030004Y028506D01*
X038267Y028506D02*
X038267Y028506D01*
X038267Y028665D02*
X038267Y028665D01*
X038267Y028823D02*
X038267Y028823D01*
X038267Y028982D02*
X038267Y028982D01*
X038267Y029140D02*
X038267Y029140D01*
X038267Y029299D02*
X038267Y029299D01*
X038267Y029457D02*
X038267Y029457D01*
X038267Y029616D02*
X038267Y029616D01*
D23*
X037267Y034270D03*
X028467Y034270D03*
X024267Y045070D03*
X016267Y045070D03*
X037267Y045070D03*
M02*
