G75*
G70*
%OFA0B0*%
%FSLAX24Y24*%
%IPPOS*%
%LPD*%
%AMOC8*
5,1,8,0,0,1.08239X$1,22.5*
%
%ADD10C,0.0120*%
%ADD11R,0.0591X0.1378*%
%ADD12R,0.0630X0.0709*%
%ADD13R,0.0709X0.0630*%
%ADD14R,0.0394X0.0551*%
%ADD15R,0.0236X0.0866*%
%ADD16R,0.0512X0.0591*%
%ADD17R,0.0866X0.0236*%
%ADD18R,0.0630X0.0710*%
%ADD19R,0.0710X0.0630*%
D10*
X001767Y017570D02*
X001767Y056440D01*
X040759Y056440D01*
X040759Y017570D01*
X001767Y017570D01*
D11*
X018267Y035570D03*
X019267Y035570D03*
X020267Y035570D03*
X021267Y035570D03*
X022267Y035570D03*
X023267Y035570D03*
X023767Y037570D03*
X022767Y037570D03*
X021767Y037570D03*
X020767Y037570D03*
X019767Y037570D03*
X018767Y037570D03*
X033017Y035570D03*
X034017Y035570D03*
X035017Y035570D03*
X036017Y035570D03*
X037017Y035570D03*
X038017Y035570D03*
X038517Y037570D03*
X037517Y037570D03*
X036517Y037570D03*
X035517Y037570D03*
X034517Y037570D03*
X033517Y037570D03*
D12*
X030268Y031070D03*
X029165Y031070D03*
X015318Y042070D03*
X014215Y042070D03*
X014215Y045070D03*
X015318Y045070D03*
X011880Y029307D03*
X010778Y029307D03*
X010318Y020220D03*
X009215Y020220D03*
D13*
X019692Y048031D03*
X019692Y049134D03*
X019054Y054181D03*
X019054Y055284D03*
X036267Y055121D03*
X036267Y054019D03*
D14*
X026642Y049228D03*
X027016Y048362D03*
X026268Y048362D03*
X025528Y048349D03*
X024780Y048349D03*
X025154Y049215D03*
X010641Y045565D03*
X009893Y045565D03*
X008703Y045199D03*
X007955Y045199D03*
X008329Y046065D03*
X010267Y044699D03*
D15*
X016267Y041594D03*
X016767Y041594D03*
X017267Y041594D03*
X017767Y041594D03*
X017767Y039546D03*
X017267Y039546D03*
X016767Y039546D03*
X016267Y039546D03*
X025417Y037794D03*
X025917Y037794D03*
X026417Y037794D03*
X026917Y037794D03*
X026917Y035746D03*
X026417Y035746D03*
X025917Y035746D03*
X025417Y035746D03*
D16*
X019391Y042145D03*
X018643Y042145D03*
D17*
X022743Y040820D03*
X022743Y040320D03*
X022743Y039820D03*
X022743Y039320D03*
X024790Y039320D03*
X024790Y039820D03*
X024790Y040320D03*
X024790Y040820D03*
X009290Y047320D03*
X009290Y047820D03*
X009290Y048320D03*
X009290Y048820D03*
X007243Y048820D03*
X007243Y048320D03*
X007243Y047820D03*
X007243Y047320D03*
X007243Y051520D03*
X007243Y052020D03*
X007243Y052520D03*
X007243Y053020D03*
X009290Y053020D03*
X009290Y052520D03*
X009290Y052020D03*
X009290Y051520D03*
D18*
X008827Y050070D03*
X007707Y050070D03*
D19*
X010567Y047880D03*
X010567Y046760D03*
M02*
